<mxfile host="app.diagrams.net" modified="2022-07-22T02:14:10.373Z" agent="5.0 (Windows NT 10.0; Win64; x64) AppleWebKit/537.36 (KHTML, like Gecko) Chrome/103.0.0.0 Safari/537.36" etag="-ohJXSpe-OCEARLvjgZU" version="20.1.3" type="github">
  <diagram id="THpDOlHaEfJuRMqJsT-C" name="第 1 页">
    <mxGraphModel dx="1422" dy="762" grid="1" gridSize="10" guides="1" tooltips="1" connect="1" arrows="1" fold="1" page="1" pageScale="1" pageWidth="827" pageHeight="1169" math="0" shadow="0">
      <root>
        <mxCell id="0" />
        <mxCell id="1" parent="0" />
        <mxCell id="Fg2cKonypsr_Z_2TRhPn-1" value="" style="shape=image;verticalLabelPosition=bottom;labelBackgroundColor=default;verticalAlign=top;aspect=fixed;imageAspect=0;image=data:image/png,iVBORw0KGgoAAAANSUhEUgAAA/UAAANCCAYAAAAndOw0AAAAAXNSR0IArs4c6QAAAARnQU1BAACxjwv8YQUAAP+6SURBVHhe7P1drF1bmp6HbZ4IlpMUG6KsVtQKBLUIWJBJXiTFOKoLxSU7LCAJcmHJh2QQQFcyGCAIXECuAqQCknAFCJCrCmLETVhXAgKQPJGMXCROinJUjpKU7Wb5hqTlspuSL1ItuFtN5ZyyI8mxmfMsrvfw48cx55pr7bU31yKfBxiYc46fb3zjZ/68c8y198nrxpdffrnem2dpvl/84hfrvXn2Xe++8/385z9f781z6O1wPMZ8qHyOx5gPlc/xGPOh8jkeYz5UPsdjzIfK53iM+VD5HI8xHyqf4zHmQ+VzPMbsM99nJyIiIiIiIiJylCjqRURERERERI6UCyznr/fPhF/+8pcn3/rWt9ZHx8vf+Tt/5+SP/JE/sj46XhyPw8LxOCwcj8PC8TgsHI/DwvE4LByPw8LxOCwcj3Ng/Rn+N6xF/mxIviX4G4oxHyqf4zHmQ+VzPMZ8qHyOx5gPlc/xGDOXb3TPrmHE0nodjzEfKp/jMeZD5XM8xnyofI7HmA+Vz/EYU/ON7tk1bGLy8/uv04ZBREREDpfRvZsgIiIih8vo3k1Ygr+pFxERERERETlSLnyt/t+R/1999dXJr/zKr0y+Fbhw4cIqjXz/4OT3n/zk3/vdk//Hf/B3T3777/39k9/95T88+erv///WOUVEROQ8+Tf/F3929v79p//Fv74+EhERkfPk4j/6+07+0Lf+kZNf+wP/6Mmf+cf/sZNv/1f/0ZNf/yN/cJUWjT1iLi3sJOp/58t/cPIv/bV//+T/8vzvnvznGyoQERGR80FRLyIichx89vV9+b//X/sjJ3f+qV8/+dVf+f2nEvU7fX5/63/3b538n5/9roJeREREREREZEvQ0v/Hf+e3T27/y//WOmZ3dhL1/8k//M/WeyIiIiIiIiKyC//xPzi9tp4U9Szzj4KIiIgcLqN7N0FEREQOl9G9m7CE4W/qL168uD56w9/5//z9k//Bv/xvn/z9//Q/X8eIiIiIiIiIyL741u//fSf/+//Rf+PkD//K71/HjPV55wL/9H69P8n/+sf/4cn/9cXfXR+JiIiIiIiIyL757179x07+pzf++PpoGRtX6lml//P/23/LP4onIiIiIiIicob8Fz67cPJX/id/+uS/sl6tX7JSv/EP5f3f/qZ/5V5ERERERETkrPnP/vPXJz/59353fbSMjaL+//Vbv7feExEREREREZGz5P/5H2ynwTd+fv/P/Uv/5sn/+9XfXx+JiIjsn//lP3fl5L/9T/zq+ugt3/nhT1bbUfpf+3d/5+R//n94sT56S8/78nf+45P/4W/85vpoHv44zeVf/S+vj97Qy2P/T/yh/9LQ5k9/8N13/IovUz6Q/1/5N/721+E/XMeMmeqfUdlt+oq20mbAP/xcwj//T/3xr8Ovr4/egH3qCacdByD/aExCbE71T58/cz4kT++rke3YFREROQv+2B/8L548/h//N1f7e/n8/u/+8h+u90RERM4WxFINncQjuhBaCK4KIpn4boP4KWHYQfilLAKQcr2ebcFGF4a7UNuFbwhr2jYi+ab6Cv6Zf+IPrffe3Z8DkU291RdeLlT2MQ6BdsYGY9PHp5L4hM7UOEzF09beDuoXERE5S373q+00+EZR77+xExGRQ4PVVMRVFWIRrV3ocUzeH/75f2Ids5yIyJHg2wZsnPbFQAebaeuc7VFfhX/m6zjSsr8J6kEAd8HM1wJZpT+LcdgH37Tzyqgf3n+hQTsJ/YVFb5eIiMi++f/+p//Zem8ZG0W9iIjIoRKhBojWCNjOv/51fETaLoxsbsMP/sq/u9qehbCnzUteOvQ2pD/oG2xs6h/SqKeL3M5ZjsNpmeorvjwgbcSf+EC+ioiILEVRLyIiRwe/6UYY/qX178kj1P7WhPj+W7/zn6y2Sz8xD9ilHsToaUDgIoaxNxKVpyFtnhLKva/CX/w6Hv71f/d3v0lL3Aj+jgCkL0ec1Tjsi3/9xZtxpE9CfO79w5gRSM9v/EVERA4RRb2IiBwM/OY6YSSkkpaV1b66Oic4l4IATj2srPO59aY/ZLcEbCAS54TzLky1eVNfIVYjXKuAneJP/Opa1P/u5j7exzjsQtpMGM0f+oB21p8aMB5pfyef2mdO1JcBIiIih8Jnv/3bv31Swy9/+ct3jkVERM6L+gfJRr9drumsHCO0KhGeUywRm4i71AH7/A04n+EjEPcpDqfaPNdXEe/1C4TsTwn7bYT6PsZhF2qbp377Xn8CkNBX6SvVFi9IXLUXEZHzYEqfj8Jnv/Zrv3ZSw7e+9a13jkVERA6R+ul9Vo+nfv+8zSpzhb8cj+jrQpe4XeCFAZ/hIw53tdGhzVMrzaH2FeRrAfzIyjb7MPUlQfpu7tP5sxqHfZKvLmhn2tK/YujkRQ/5RvNBRERk30zp81Hw83sRETl6EF0IrimxhWDdJHxH5HPt+gfupn7DnuP8bnuKfIa/jy8AaC9hbqW5g58EXi7UlW0CcUnvpP8i/keQfhbjsG/wka8X+Ax/0x/+q2RsN32JICIicp4o6kVE5CiJ0EagAavq0D/Jz+fS+Qv02xLBnE/ms9LbRTnHEbWbwOZIOG8Dwpk+oL5Ndda+yuo0fyCvk7jkoe/q5+bpw/4JOn0TIX9W47BP0v+EUT8AafVlDuTf4U2VERER+RAo6kVE5GDIp+AJfcW3piGgWV2ucIxwrfkSv+vqMPYoyypz/Em9tR4+KZ/6HXdniRAfUetDcOJHRHSn5q19Nbdanvip1fhqp9rv+cmz73FYQq2PMPXFQNqZsZ2C8t3eWbdBRERkWy68/pr1/oqvvvrq5OLFi+ujtw8uIiIiIiIiInL28DIZuj4foagXEZFPitwkO6x477J6vi8O1a+z4lNrr4iIyDYo6kVERERERESOlG1Evb+pFxERERERETlSFPUiIiIiIiIiR8qFL7/88p3P7zvf+9HP1nsiIiIiIiIictb8+PvfXu9txt/Ui4iIiIiIiBwQ/qZeRERERERE5BNAUS8iIrIn/tlv/9rJH7r4j6yPzoY/84//Yyd/6tfGb+ypX0RERD4t/PxeRESkgTj+3a/+4cnf+Pf/7jpmGQh6RPe/+rPfXse8D4L8T/3at77J88//U3/85A996/ev9kf8r/5PP1/vvQX//uZv//Lr8NU65o2df+Xf+A/XR/Ns075N/v2r/85vv+MHtv/UH3n7HPE3/85Xq7aO7PzuL//Bez7/z/57f3LVZvryn/9v/fo69l1G5URERD4m/D/1IiIiC0GEE5YQgRo2Cd7wr/zf//ZKRAeE/T/7X/+1oWBfKs4Rz/XFAOK61hEQydvQfZ3zJ18MdFHPywJs1JccIzs9rr6s6C9IensV9SIi8jGjqBcREVkIwhGxHiGbleIRVVjCEnHZ7W9izib111XwEf3FQ6WLcIQzLxfm2jDnzz5FPfmAsthIeUW9iIh8iijqRUREFlJF95xoRuhXYQlLxOXopQH0z9bDnM0qmAFR/Ye+9Y+88xl99xFhPPUZe2fkE/5s+/n9lKif+/y+phOP3ZSF2q4l/S4iInLMKOpFRES2JKISQVpFMiK8f5IeNgneMPr8HnYR9duu1FdhDVPimDy/+8t/OPRpG7qP8WfUrlFcXgqAol5ERD5VFPUiIiILyUp2hDdCkhCmPsWHXcXlaUR9VsFh6Up9xDH56x/pq7+3X9ndk6iPj32lfpOor/2ScRnhH8oTEZGPnW1E/WdkqgH6sYiIyMcK4hPhzhaRiwjleBX3tXiswveYQUBXQQ9pJ6GDwKbtNaxeInwttnt8fQlyGvAPQY+vfAHBKn/8q/siIiIfO1P6fBRcqRcRkU+aCEiYEowI11A/pR+tPi+hrkh35myyCn6az+9H5bPqTZ66Ur8S8OUrgKSTP/ag55tbqe8/Vagr7tW31V/yb/WQnv1d+11ERORY8PN7ERGRLZj71Dv0PwhHGURoxOw2VFFfxSpsI1i7oB7RRX2tCxIX0b4PUb/Lb+rZ/xv//u+t6s9+/bJAUS8iIp8SinoREZEtqMJ3RBe8gMjMivS2RAhjd+n/ha9fCywhdruo/xAr9fzv+Zon9LamjVmp9zf1IiLyqaKoFxER2QLE5zYr9eTfdZUeEMJ/5h//g0Nhus0qdBfUIza9sAgjUc//sK9MiW3qn/Nh6gVIbSuCvvfxlN+u1IuIyMeOol5ERGQLNgnfLnjPgqxSb7MKvS9Rn7rrVwPddvpg00p9h/T6GX19WdB//y8iIiJvUNSLiIiIiIiIHCnbiPrP1lsREREREREROTIU9SIiIiIiIiJHiqJeRERERERE5Ei58OWXX77zm/rO9370s/WeiIiIiIiIiJw1P/7+t9d7m/EP5YmIiIiIiIgcEP6hPBEREREREZFPAEW9iIiIiIiIyJGiqBcRERERERE5UhT1IiIiIiIiIkfK4j+Ulx/qi4iIiIiIiMj+6frbP5QnIiIiIiIi8hFzLqL+b/xv/tQ7QUREREREREROz5l/fo+I/zP/nSvrozf8jX/txcmf+Rf+5vpIREREREREPnaePn262l6/fn213cSTJ09OLl++vAojsHfp0qVVOvux37l58+YqX3j8+PEqrkJdN27cWB+95eXLlyevXr16x+dR+UB+bI3A/lRbwi6f31/48ssv3xH1ne/96Ger7S6ifiTowxJhf+HChZO8c7h27drJ8+fPV/vh0aNHk51ZodMZiDt37qxj3kAcHR4b5KOj64CP8oxsBdIpnwmR/AE7sY9dBj0Q3+sJNS2QTr748uDBg9UWaj1zjMoQt7S8iIiIiIjIiK5pRnSdU/XJCMR1Fdhoqi78qROdNffyoGoe/CTvSHBjP9pu5Fv3P/qu25qK70TU//j7315tl3BmK/Vd0P/Oz//t1fZX/+Q/udrCJmHfRf3Dhw9Prl69ujoG0u/du3dy9+7ddcwYBikCtb59YbB3EfWk94kDyUt6FfWxyUDy9ii2RhMw9IlFOexX/5lUEfQ1P/Vge+rFQ5grU22LiIiIiIhsC/oi+oV9tEfVWlDzQD+uLBHrMJdv00uDqoHic+xB9637m3xd403Fdw76D+VFzEfc7wMEP6K+r+CPoPPqYJwGbI0+7SBuboJtGsA54n+grkyexMc+27xEmGJTGdoxaqOIiIiIiMg2sJiIzmCLqE44jTajLDawuQ3oHoQ7AT1FyHG0UYjPEe6ps4aq0QL5ez7izopz/ev3dZV+X7Dq/eLFi1VnTnVqYCD21ZldNM/VGxDJfaIspZel7hxTd3/jRdqcT5vKsF/bJyIiIiIisg3oDTQaoC+qmCaNOPYrI+GcUAV87HVNs4lqH21YBXjXP/E1PtY2JNRP72GUJ4G0s+DcPr8fcdrP7+HWrVurjuydWWHwWXmmExHHCFcGhi2DmLLkywQLozzYIk9dLSdP/TQj8eSPUAYGM1CmThzKE6CXw16dBKTHp6yopyyM4ipLyjCxq78iIiIiIiK7gO5B/wC6JnqpQ56ptBGj/NFkIy1U80eLRWeNbNU49qt+C+iy6MYlkH/qZcRBf37f+VB/AZ+BpcOrYN6FDEJsEaYGhkHL2xmEcq2bCZK0PumSRnwE9wjq3bY9S8pMtUdERERERGQTWQHPKnh0DyK6p4Wz1iDUlXoR4YSRH5CFVtKix/AdfYbGy37ia/tGJM++23gmoj6r9FO/n9+XoOe39HXFeimI5am3KNuIYwaFwWXwuyCfgjLbCnBsM/Bzwr7bxKepyRR2KSMiIiIiIrIEBGx0UhfTEJEbDbKtTqosXSWP8CagC+siKyHgS/whHh/RZLQDXYYOzX4n7erhrNi7qB8JekR8DfsS9HySz7+12xYGg47uA0BcnwwcZ5J1iGegtxHD5N3lzQyTDX9HEz11Y7tu5+rZVOY0J5SIiIiIiEioXy7PiVw0yFJdVZnTbAHbealQXy4Qenw0Gz5ilzi0WHTkaKW+MvKF+nfRgUvY62/qu6DnD+OdRsRv+j/11XU6Kav2vbOIp7N75xIPdaWfwapin3J1oLqt5E0eJgABEQ7krwKZ+JRlAkVMh0zukc/kpQx56qSCtD/Uk4R46u39Mlemt0tERERERGRbur6qoGWim4B82+qPkW5C56CdNtmKFqtlQ7RSfESHZRsdVjVZ11qdmneOXX5TvzdRv29BL5vhjVEV4iOYjEygerIsYYltERERERGROdAiU6I3QhnQLYRNoncT6BhA0J9G1Feqb13UY2O0sAyUySIq6XUxeYqdRP3Pf/7zd0R95y88/MVqOyfqFfQfhkySOfG99I1QhRNhamKKiIiIiIjI2RBR/5dv/9HVdgmnXqlX0IuIiIiIiIicnl1W6k/9h/IQ74h4xLyCXkREREREROT82Mtfv4+wV9CLiIiIiIiInB97+5d2iHkFvYiIiIiIiMj5sff/Uy8iIiIiIiIi54OiXkRERERERORIUdSLiIiIiIiIHCnnIur5t3c1iIiIiIiIiMjpOXNRn/9jX4PCXkREREREROT0fMY/s68B+vGuRNB3lgr7a9eunVy4cOGd8Pjx43XqG27duvVOOmVG8QnEVzjucUDegM3nz5+vj+aJzx3Kx7dAXPWNsKSeBw8enLx69Wp99BbiSKs8efJkFTr0I3kTer+GmqfaIX/3geORndP4UNNfvny5jn1Dby/pydttJZ4w6rsRozLblBcREREREdmFKX0+Cp9dvHjxpAbox7vQBf3v/PzfXoWwVNg/e/bs5PXr198EBPj9+/fXqW949OjRN+nk73GQfeIDAvrFixdDMXkabt68OXxRUKFORH5vH3Gb/Ll+/fp7AheIIy0gPgmjvHDjxo2TO3furMLly5ffEd4RyLSl5pmyNcVpfKAfkoYfpFVBnXTA/tOnT9/JH8iXethu6l+YKsPxkvIiIiIiIiK7MqXPR+Hc/lDer/7Jf3K1rcJ+FxC+9+7dW7xyPscXX3yxEn+E/qLgNGBv08sCRD+C/urVq+uYNxC36YUA4hcB2yGOtIDQ5Xgqf4U8VTCTn3ZcunRpHfMmT7W/hNP4UIU5flRfsIXYDvG3E3vxmy125l5ObCrDi5NNbRERERERETkPzvWv30fYn5aI5tPCy4HPP/98ZW/fq68PHz6cFOfUhZjvgh4Sz0sLxOXoc28EJkKzCtOI5y58iet5RyQvJG+1tSu7+jCCfohPaS8knpX8fC4f0V3LBMr1Pq1sKrOkLSIiIiIiIufBuf9Lu30J+wriOb9JX7riXoU1oh4RvU9hj11eGkwJ+ytX3v9bA4E0XlogLPncuwtM6MKyilzgmHKECNIuRKsIJk/9dH9UZ4f+SnlC77/T+lAhX12Zr8Qu5ekvAqKeeMKStlQ2lSGNPCIiIiIiIh+acxf14W/8ay9O/sy/8DfXR6ej/n7+7t2769h5EKD1c+2zWK3HF8T56KcCc18akDYn+gEBi5CNcI2oDf04+Sv5zfiun5PTZxHRhNqfsC8fGJe8GJiCtJqOPeraRYAvKTMn+kVERERERM6LMxH1+SN5U7+fP42gz4p6F5DbEBuspGeFn2PCSICfBj7Dv3379vroDfhOPaO6Es9K/yYiXAl1hTsiH5GcVfDkG4lVyiJSI6ojvrcVw5XT+hAYE9Jq+zqbRHhPw4e5FwSwSxkREREREZHzZu+ifiToEfE1nEbQ89fh61+w34X8gbys7icgpEnbJ/m8f/QX+2lLFfbbti/iuwvOHNdVdALil7QRrJgjqCNmEdEI6grpU+U7+/Ahgn6TmMYmxC7lsUO5lE1atikzYlOZLvhFREREREQ+FHsV9V3Q8/v5iPgatgGRm9V09hHffZW+/qaesAlW6Eef6RNH2ojuxzbkM/wKbeAv3Xe7xKV9iEdWuKdEZBWmdR9BO1rZJo60KRDVEfLk5Tir7ATYJLDDaX1ASNPu+pt7QvoCPyK2gT5LXspznD7BZtLY1vlD3lH/zpWh3qX9ICIiIiIicpZc+Fokv/lH7mv45/X8r7vwnR/+ZLX96Q++u9pOMSfoRc4CBDer/7uCmOcFAwJ+G05br4iIiIiIyIiuv7s+H/EZmWqAfryJT1HQZ3W9hqxyy/nA6jkCe1d2WXGnvrpqLyIiIiIism+m9PkonHql3hV6ERERERERkdOz00r9ersziHdEPGJeQS8iIiIiIiJyfuzlD+VF2CvoRURERERERM6Pvf31e8S8gl5ERERERETk/Nj7/6kXERERERERkfNBUS8iIiIiIiJypCjqRURERERERI4URb2IiIiIiIjIkXLq/1MvIiIiIiIi8qF4/Pjxyc2bN9dHb3jy5MnJjRs31kdvefny5SptxKVLl96zQ/5Xr16dXL9+fR0zri/M2cefy5cvr4/G7PJ/6i98+eWX74j6zvd+9LPV9kOI+gsXLpzwzuHWrVurjuvQkY8ePXov/erVqyfPnj1b7V+7du3k+fPnKzsjSL9y5crKzhTxA2KvQtmpQQ0PHjxY5WGiVJgg+H7nzp11zJsJCH0Sko/8YTTpgLoCkyZ2KM9+9QF71NftnMaHWn+fuL29mfS9b5IPpto5otYdm1N9LyIiIiIiHwf1mR8dgQgfCWj0B4zS0CVd/9S4qjVC1ypT9ufqrUTU//j7315tl/AZqr8G6McfGkQzojrCOvtViNc8EfSBTo5ArHRxvhTspy4CLxXu37+/Th3DpMpAVoirb30Qs4RRXmBCIYgJTIiIb6BMJnPNM2VritP4EMFOwA/SsBWqoMdX6hiJ7adPn07WMQW24xvbjDnHo/EXEREREZHjBk0Rsc0zP/voD/RD4ncFG9Fx7KNLolESzmrhcEqfj8K5/Kb+937v907+yl/5Kyd/9a/+1ZO/9/f+3jr2/EBcjkQ3cXfv3l0f7Q7C/t69e7MvCZgACNUOcaQFJgzHU/kr5KmCmfy0tU6s2NqG0/hA/QE/qi/Yylsu4CSox5Uav+REiQ9pK1vK5cUEJ+OmtoiIiIiIyHHBc38ENhqCkONog04Efw9V1wBaghcF5Mcux5vKwMg+cWfFmYt6BP1f+2t/7eSP//E/fvLH/tgfO/nxj3/8QYQ9n9jX1dpdV+mnQMy+ePFiNaijwUVgMqkiMiHiuQtf4nreEckLybtEAG9iVx9G0A/xKe3dliXlaj2BMhmHJW0REREREZHjgmf8KpyroB49/6MLIvp7qAuUQFxeFMCobC8zZ5+0s+BMRX0EPc7/6q/+6skf/sN/+ORP/Ik/cSbCnk/g+e07YbQqz4p8FfX7WqXvICwZsJG4ph/qxOpilWPKEYhHkPaJWCcpeeqn+6M6O/kkJaH2CZzWhwr5cgJsC3XWOghzjER9hbQIfBERERER+ThAJ0Q0R4DnuGsIFiSjMQhojqo7CGiYCunVTs2bEM00ShuFfeuSMxP1XdCHsxL29Tf1I7HOH88DVugJrKon7rygLxhsBjEDXydIP07+Sibprp+T8yYpk5zQ3yztywdeFuTFwC5QLj5Sf3/50Fki2udEv4iIiIiIHB9ohYhlBHldgOw6BqIx6uJjfRFQQYOgMbAV3YNOQQeho7Kf+NiY0kDJs29dcmai/ic/+cnK6SroA8L+13/910/++l//6+uY84GOZ4X+iy++2OsqPS8JGPAukEcw6EwuQiYAROTXt0fJNxKrlGUy1Mk1lXcpp/Uh0Bek1fadBk6yJe3qefB76oQSEREREZHjJ0KagG6oAp2wK2iL6AvsoCvQPtFLaJ7sdyLeezgrzuUP5R0KiG5W6JcK8CUg6Pk3d/Uv8c8R8d0FZ477wGfijGDCMoky2RDRtK1C+lT5zj58iKCvbdsWbNWTg318mCP1xc9sUy7+iYiIiIjI8cPzfRYiE/pKfcJSPVRBR6CF0BnYiCbhGL3TV+orIy2Ev5s0za6cmaj/7ne/u+q83/md31nHvOU/+o/+o5O//bf/9smf/bN/dh1zeupv6glT0PmnFfSI+NTDPp/8x2Ym15SIrANZ95kkowlBXBW4HUR1hDx5Oa4TGEaTasRpfWC8aXc/kdIX+FFPKMokPfukp19Snrg6ZuQd9S9+pG62tQw2lvaDiIiIiIgcNmiGvhiJHiD0+KoDojHQC6Hql4De4JgtNuA0eqLqnH1z4WtB+uafv6/56quvVv/rLuSf3//0B99dbbdh9Lt6BP3f+lt/6+R73/veyR/4A39gFSefDpwYOSl2gZOKFwycrNtw2npFREREROSwyQLilPiui5jJG1IGgd+1BhqEQB7SEefsYy8LkCPBTpkswJK+ZHG56++uz0dc+PLLL98R9Z3v/ehnq+0uoh6qsOf9wSEL+tEKP5/VL+l8WUYm9q4CmxMnJ9FSEPRTJ5qIiIiIiMihEFH/4+9/e7Vdwpmu1AeEPX8UD9H8T//T/7Qr9CIiIiIiIiKNXVbqz+UP5f3BP/gHT/78n//zJ3/uz/05Bb2IiIiIiIjInvik/vq9iIiIiIiIyMeEol5ERERERETkSFHUi4iIiIiIiBwpinoRERERERGRI0VRLyIiIiIiInKkKOpFREREREREjhRFvYiIiIiIiBwlT58+Xe+9u//kyZPV9uXLlyevXr1a7YfHjx+v997dn2KUJ/ZH1DTqrn6dBRd+8YtfvF7vD/lzf+nnq23++f15cu3atZOHDx+eXL16dR1zcvL8+fOT27dvnzx79mx1TB7iXr9+txk934ULF1Z5bt26NRyUmzdvnjx69Gh99C4pC6mvQjnKb4J6GdQ7d+6sY95AHAMfG+S7cePGyaVLl1bHMMozshVIpzx2ckz+gJ3Yxy6TPRDf6wk1LZBOvvjy4MGD1RZqPXOMyhC3tLyIiIiIiHx6dB2Brrl+/fpK46CFENQch5p/ipEGqdoE7YPNy5cvr1PfgjaKDyG+LOE7P/zJavtX/+KfXG2XcOFrsfqOGv7qq69OLl68uD56a/SQRf2VK1dW+1WUT4n6yihuRBf13SfS7927d3L37t11zJgIbaiDysDvIupJZyL1yZS8pFdRH5tMMiZ3bJF3ZAf6hKUc9qv/TPAI+pqferA99eIhzJWptkVERERERALaoWuYiPjoIdLZomGq7iCu5p9i00uArlWirdiOoN7osBFdf3d9PuKj+PyeTnnx4sVqkD4ECH5EfV/BH8EAM6GYgKcFW0zCzqaJSbldif+BuiLwEx/7bPMSYYpNZWjHqI0iIiIiIvJpg2ZAdBPQghyjHTjOfsQ1GqMuRKZc8id0MY4+oRwB3UPIcTRMiM4jHo2KlkleAsdzgn5XPprf1LN6zqf1H4q8WGAgmQxV+HaYCFNvbrali+a5egMTt0/ApfSymbRA3fhTIW3Op01l2K/tExERERERQS+gFSKcI5ar6CZ0rQHkTXoX3lmwDGiRKvgJOe46hbRoI+qd00H75KMR9XwOz2r5hxT2wOAxGUaTJ5DG5NmHsMdOnUyIbuJG5I3UKE+dnKRXalpOnBEjgb6JTWVIO6+TQUREREREjgN0QgR0pWoXwkhLzK3UE6q+oo4q+KdW6qln5M958FH99Xt+085q+ZLP4D80CGMG/rSCNYI4tghTIrm+kWKy1rrr5OyiPWnEd8Ff2UWALykz1R4REREREfk0QUOgaaooh6prCF1LoGlq+ihUcb50pZ56uo6qWmdbnbQNBy/qEenbwGf4/IG884SXCLzt2fb3EUw4JsWIbQadScdkZlL1iTQFZbadWNhmYs4J+24Tnza9sdqljIiIiIiIfLqgSxDgVaTDppX6nt5DFeoQ2wT0W39pMEcX9RyfBQct6hHJ/XN6BPuceOYzfNLv37+/jjlbEPT8Rfypf4c3B4MaQV4hrot9jqeELvFMkm3EMHl3mVRMYvztJwek7pwI2c7Vs6nMqB4REREREZERm1bqoabXQNmADumCH002eikQDdOJTgPyLNVq23LQ/9IOEOf8Vj70fx2HoOa4C33i4Sz+pV3/vL/aYNCyat8nEPG8SeqDSTzUNiCcq9inXF2F77aSN3mYNIRMTPJXgUx8yjIx+0RkUsPIZ/JShjzUSzuTnvaH2AHiqbf3y1yZ3i4REREREZGAXkAr1EXQql2Ir2J9pH0qVSd1Um4qHUb1cRw/N7HLv7Q7eFEvhw9vp6oQH4FwZyLXCb6EJbZFREREROTTBI1BQDNU0Z14FhTr4mkX3ZVNon2pqKdO6p5iTt/sJOq//PLL2aXq7/3oZ6vtpyDqWZHv8Fl9/wpA3iUr7XOTMyfU3AnQQdCPvngQERERERH5GImo//H3v73aLsGVehEREREREZEDYJeV+o/qX9qJiIiIiIiIfEoo6kVERERERESOFEW9iIiIiIiIyJGiqBcRERERERE5UhT1IiIiIiIiIkeKol5ERERERETkSFHUi4iIiIiIiBwpinoRERERERGRI+Uz/pl9DdCPPxTXrl07ef78+froDRwTH9i/cOHC+ugtPV/y3Lp1a7XfA/FTpI6E+/fvr1PeT6t1AnGdmr/W233rtkY8fvz45MGDB+ujt7x69WqVFtgnrjLKM7IVSH/y5Mn66G3+hGqffDVtVM8oLWCLtLo/lTdphN7GEdUeISwtLyIiIiIicpZM6fNR+OzixYsnNUA/PnRu3rw5K8orjx49Onn9+vUqQPaJn+PZs2ff5L1379474rLanPOFMoj1aov8U7bIt4TLly+/I7ZPA7Zevny5PnrLlNjF/zt37pzcuHHjPR+II41AvkpNG/lPn5AGT58+ncxLvthiW/tyCvJUv1OG4yXlRUREREREzpIpfT4KH8Xn9wi0Fy9enJsgQ9RT34jPP/98Mo0VfoT61atX1zFvfO+Cd1sQuojukRjfFmwhojvEXb9+fX30PpTblfgfqAuxHer+pUuX1ntvXzSkbrakz/UDackHKRtbtHHUfhERERERkUPko/lN/cOHDxev1p8lCPeRSM8Lhyrol4Lg3PRpOMJ3X6v1XRjP1RsQwhHI29LLRniPqGn4VUU+kLbE3wo2Uobycy8FREREREREDomPRtQjlllBP2thz2/1qYcV+VB/C4+gv3v37jrlXa5cubLem6baym/3EZ18Gt4FbIU0Vpn3IeyxU4Xt3Co9Lyt44TDKgy/53Xpf/a5pCOkp+4AvNe+cqN8E+bEXEc+2tpX0bV8KiIiIiIiIfCg+qr9+j5jm0/f+x/X2Qf4gHtv+CX1+B4/Yr39Ebxfqb+qnXg5MgTBGkJ5WlEYoxxZhSjzzEoMXDgREd62brweS1kV70ojvgr+DiI8dBHi+ethFgFOGuvMygpcL2K/tm2qriIiIiIjIoXHwon7q9+lT8Bn+7du310f7o/5xu6lP6BHhrMaPhD3iFyF5Fi8cKnOf4W8jgBG6iG1E9NwqeoUy24psbCOiNwn7QPtqHb0+/M1K/hT1JQHjQhmFvIiIiIiIHCMHLeoRXP1zegQ78VMguEk/7Yr5rrDSzor9SLwT3/9NHX5m5XkfIE4jyCvEdbGfVeoRxCOYl4jksKs4Rqjj7+iFAHG1LeynjvhFvXW7jQ/0QX1pMfJBRERERETkUDloUc/KN0I4vzEnINg3fZaez/A/FAj70f+Yxy/SanugvqSov6lPOkKzf9o+ByK15yWOkN+mExDFVdB2SN8k6PMZOwFxXgU1grnWN0c+iQfq7AI9Noiv/ZUvE0hjW9OwN+qz6jP2ax9gf1ObRUREREREDoULr/mevMA/r+d/3YXv/PAnq+1Pf/Dd1VbkPEBw83n8riDmWdVH9G/DaesVERERERHZla6/uz4f8RmZaoB+/KlQV8gT9vlpvCyHFXcE9q7ssuJOfXWlX0RERERE5EMwpc9HwZV6ERERERERkQNgp5X69VZEREREREREjgxFvYiIiIiIiMiRoqgXEREREREROVIU9SIiIiIiIiJHiqJeRERERERE5EhR1IuIiIiIiIgcKYp6ERERERERkSNFUS8iIiIiIiJypHzGP7OvAfrxh+TChQvfhMePH69j38SHa9euvXMcnj9/vkrrJH9ChTTKdW7duvVOmZHdSq+DUP0H4ipzeaGm408Fn2s6obdj1LbeR/G7U/P1vkjoPlV6f9Q6K9jodjbV19OnbFfo3wcPHqyP3vLq1at3+p594iqjPCNbgfQnT56sj97mT6j2yVfTRvWM0gK2SKv7U3mTRuhtHFHtEcLS8iIiIiIisowpfT4Kn128ePGkBujHHwoE2qNHj05ev369CiNhEm7evPmeGOxE+D58+PAbm4QlIhCqL8+ePVvHTkOeWg/+3b9/f536LnNtZZ/0ao/2Jg9b2tDrI26uz6bY1JfVT8g+8XPUcqM6GJ8XL1685/OS+mqeJWMDly9ffkdsnwZsvXz5cn30limxS/vv3LlzcuPGjfd8II40AvkqNW3kP31HGjx9+nQyL/lii+2SeUKe6nfKcLykvIiIiIiILGNKn4/CwX5+j8C7evXqO6JmTjSSbyQIK7dv314JPuxWlorA04LgvHfv3qptlU1t5UVA95u8yY84nmrXphcdI5b05Wn5/PPPV3VUvvjii2/aNfXyY58gdBHdIzG+LdhCRHeIu379+vrofSi3K/E/UBdiO9T9S5curffevmhI3WxJn+sH0pIPUja2aOOo/SIiIiIicrYcrKhHoCJ2uwCegxX4KREbO134njcRzJW5tkZYT/lNOmmj9MRv04dhri/3AaI9LyUCLzwQ+8Tv44UCgnPTp+EI332t1ndhPFdvQAhHIG9LLxvhPaKm4VcV+UDaEn8r2EgZys+9FBARERERkbPhoP9QHivNfEK+VFwiYBGGo/wI6StXrqyP3sAn7QlLwG7y73slea6t3e/OXDpp/SXCEub6cldq/yHc7969u0559+UEabyI2EbYj8YG0cmn4V3AVkhjlXkfwh47VdjOrdLTNl44jPLgS3633le/axpCeso+4EvNOyfqN0F+7EXEs61tJX3blwIiIiIiInJ6DlrUI/D4ZJ3tUiGNUETELlmdzm+wl1J/t10F6T7Ypa1hTrSPXmYsZZu+XEL6j5cFvX2I3Lpyv+1q/WnGBmGMID2tKI1Qji3ClHimfbxwICC6a918PZC0LtqTRnwX/B1EfOwgwNOfuwhwylB3XkbwcgH7tX1TbRURERERkbPjKP6lHSINsYagWCIw+XSc389XIhL3JVB3IavPVbx2els3+U06aaP0xPOiIGy7aj/qy9NCG3nREGGPj7QRsZ/Vdo7n2r1v5j7D30YAI3QR24jouVX0CmW2FdnYRkRvEvaB9tU6en34m5X8KepLAuYdZRTyIiIiIiIfloP+Q3m7fvqNiEV09NVgVnP5xP28hGKFOqm7/gG8sKmtiF3KVmgbohdG7RrVR5/0ehDsxE8x1ZenBb9oF37mD+RlpT2Bukk7DxCnEeQV4rrYzyr1COIRzEtEcthVHCPU8Xf0QoC42hb2U0f8ot663cYH+qC+tBj5ICIiIiIiZ89B/6E8hF5Wbgms8NZV5znI21elsZffrle7iMtKTa9iuv5um7CJbgehOhLQm9rKPiK4pkNsjdrFPnG1PuzU1XAC6cTPMerLfZCXEfg08iH+LmE0NgjN/mn7HIjUnpc4Qn6bTkAUV0HbIX2ToOeFTOwhzqugRjDX+ubIJ/FAnV2gxwbxdS7kywTS2NY07I36rPqM/doH2N/UZhERERER2T8Xvhaa7/yonH9ez/+6C9/54U9W25/+4LurrYgcLghuPo/fFcQ8q/qI/m04bb0iIiIiIvK+/u76fMSFn//857N/Ke4vPPzFaquoH5NV4Qor0HXl81PC/viwIMpZUd9VYOcz/W1W3RH0jO82n++LiIiIiMj7RNT/5dt/dLVdgiv1IiIiIiIiIgfALiv1R/HX70VERERERETkfRT1IiIiIiIiIkeKol5ERERERETkSFHUi4iIiIiIiBwpinoRERERERGRI0VRLyIiIiIiInKkKOpFREREREREjhRFvYiIiIiIiMiR8hn/zL4G6McfkgsXLnwTHj9+vI59Ex+uXbv2znF4/vz5Kq2T/AkV0ijXuXXr1jtlRnYrvQ5C9R+Iq8zlhZqOPxV8rumE3o5R23ofxe9Ozdf7IqH71KFNDx48WB+95dWrV++0l33iKqM8I1uB9CdPnqyP3uZPqPbJV9NG9YzSArZIq/tTeZNG6G0cUe0RwtLyIiIiIiJyfEzp81H47OLFiyc1QD/+UCAUHz16dPL69etVGImkcPPmzY2iMsL34cOH39gkVFE7R/Xl2bNn69hpyFPrwb/79++vU99lrq3sk17t0d7kYUsben3EzfXZFJv6svoJ2Sd+E5cvX35HbJ8GbL18+XJ99JYpsUu77ty5c3Ljxo33fCCONAL5KjVt5D99TBo8ffp0Mi/5YovtkrEhT/U7ZTheUl5ERERERI6PKX0+Cgf7+T0C/OrVq+8IrDnRSL4XL17MCp3bt2+vhC92K0sE+j5A+N67d2+4Wj7XVl4EdL/Jm/wI8Kl2bXrRMWJJX+4KQhfRPRLj24ItRHSHuOvXr6+P3odyuxL/A3UhtkPdv3Tp0nrv7YuG1M2W9Ll+IC35IGVjizaO2i8iIiIiIp8OByvqEaiI3S6A52AFfkrExk4XvudNBHNlrq0R1lN+k07aKD3x2/RhmOvLORCcmz4NR/jua7W+C+O5egNCOAJ5W3rZCO8RNQ2/qsgH0pb4W8FGylB+7qWAiIiIiIh8/Bz0H8pjpZlPyJeKSwQsK+Gj/AjpK1eurI/ewCftCUvAbvJPfUa/K3Nt7X535tJJ6y8RljDXl3MgOvk0vAvYCmmsMu9D2GOnCtu5VXpegPDCYZQHX/K79b76XdMQ0lP2AV9q3jlRvwnyYy8inm1tK+nbvhQQEREREZGPi4MW9QhLPllnu1RI3717dyVil6xO57fgS6m/JaeefbJLW8OcaB+9zFjKNn25LQhjBOlpRWmEcmwRpsQzX0nwwoGA6K518/VA0rpoTxrxXfB3EPGxgwDPlxa7CHDKUHdeRvByAfu1fVNtFRERERGRT4Oj+Jd2iEsEL+JmicDk03F+P19B0C0tf1ZQNz7kt/Ajels3+U06aaP0xPOiIGy7aj/qy30x9xn+NgIYoYvYRkTPraJXKLOtyMY2InqTsA+0r9bR68PfrORPUV8SMNaUUciLiIiIiEg46D+Ut+2n3wERiwDqq92stPOJ+0gAnzXUSd2jP/a3qa18Bk/ZCm1D7MOoXaP66JNeD4Kd+Cmm+nIfIE4jyCvEdbGfVeoRxCOYl4jksKs4Rqjj7+iFAHG1LeynjvhFvXW7jQ/0QX1pMfJBREREREQ+LQ76D+UhJvMbdgKr2HXVeY58Ol7BXn67Xu0imis1vYppBHEtt4luhxX4kYDe1Fb2Eec1HWJr1C72iav1YYe2VjukEz/HqC+nQGj2T9vnQKT2vMQR8tt0AqK4CtoO6ZsEPS9BYg9xXgU1grnWN0c+iQfq7AI9Noiv/Z8vE0hjW9OwN+qz6jP2ax9gf1ObRURERETk4+bC10LznR+V88/r+V934Ts//Mlq+9MffHe1FZF3QXDzefyuIOZZ1Uf0b8Np6xURERERkcOi6++uz0d8RqYaoB/LNHXVOyGruPJpwIo7AntXdllxp7660i8iIiIiIh8PU/p8FFypFxERERERETkAdlqpX29FRERERERE5MhQ1IuIiIiIiIgcKYp6ERERERERkSNFUS8iIiIiIiJypCjqRURERERERI4URb2IiIiIiIjIkaKoFxERERERETlSFPUiIiIiIiIiR8pn/DP7GqAff0guXLjwTXj8+PE69k18uHbt2jvH4fnz56u0TvInVEijXOfWrVvvlBnZrfQ67t+/v055P63bIq5T8+NL2NYvoB8fPHiwPnrLq1ev3ulj9omrjPKMbAXSnzx5sj56mz+h2idfTRvVM0oL2CKt7k/lTRqht3FEtUcIS8uLiIiIiIgsZUqfj8JnFy9ePKkB+vGHApH66NGjk9evX6/CSJyFmzdvviN2RyDWsfnw4cNvbBKWCGGovjx79mwdOw15kv/evXvv+F9tzflOGXyutsg/ZWuJX3D58uV3xPZpwNbLly/XR2+ZErv4f+fOnZMbN2685wNxpBHIV6lpI//pE9Lg6dOnk3nJF1tsa19OQZ7qd8pwvKS8iIiIiIjIUqb0+Sgc7Of3CPCrV6++I+wQr1OQ78WLF7MC6/bt2yvRi93KUiF8GhD1+Dfi888/n0xjhb/7TFu74N0WhC6ieyTGtwVbiOgOcdevX18fvQ/ldiX+B+pCbIe6f+nSpfXe2xcNqZst6XP9QFryQcrGFm0ctV9EREREROSsOVhRj4hF2I8+hZ+CFfipFe/Y6YL+EEC4j0R6XlDs4jOCc9On4Qjffa3Wd2E8V29ACEcgb0svG+E9oqbhVxX5QNoSfyvYSBnKz70UEBEREREROSsO+g/lsULNp/GbPqsPiF9WxEf5WQm/cuXK+ugN+R06YQnYTf76G/lN8EIBv1iRD9UWgv7u3bvrlHfpPo8Y+YXo5NPwLmArpLHKvA9hj50qbOdW6XlZwQuHUR58ye/W++p3TUNIT9kHfKl550T9JsiPvYh4trWtpG/7UkBERERERGQfHLSoR6TzO3G2S4U04hgBv2SFP79DX0r97fqUCK/kD+Kx7Z/QxxZif5sXBCO29auCMEaQnlaURijHFmFKPPMSgxcOBER3rZuvB5LWRXvSiO+Cv4OIjx0EeL562EWAU4a68zKClwvYr+2baquIiIiIiMhZchT/0g6himBFVC0R63yGz+/nKwjJpeX3BUI+YnvqE3raxmr8SNifl89zn+FvI4ARuohtRPTcKnqFMtuKbGwjojcJ+0D7ah29PvzNSv4U9SUB40IZhbyIiIiIiHxoDvoP5S397L6DgEZ4daHMijar5ucp7JeAX6zYj/wivv91ftqVled9gDiNIK8Q18V+VqlHEI9gXiKSw67iGKGOv6MXAsTVtrCfOuIX9dbtNj7QB/WlxcgHERERERGR8+Cg/1Aewjy/FSewqj214t0hb/+L8tjL7/SrXYRzpaZXQV1/u07YJ3nh0KEdpPV6aUsY+YXQ7J+2z4FI7XmJI+S36QREcRW0HdI3Cfp8xk5AnFdBjWCu9c2RT+KBOrtAjw3ia3/lywTS2NY07I36rPqM/doH2N/UZhERERERkbPgwmu+DS/wz+v5X3fhOz/8yWr70x98d7UVOVQQ3HwevyuIeVb1Ef3bcNp6RUREREREoOvvrs9HfEamGqAfyzR1hTxhn5/Gy3JYcUdg78ouK+7UV1f6RURERERETsuUPh8FV+pFREREREREDoCdVurXWxERERERERE5MhT1IiIiIiIiIkeKol5ERERERETkSFHUi4iIiIiIiBwpinoRERERERGRI0VRLyIiIiIiInKkKOpFREREREREjhRFvYiIiIiIiBwsT548OXn16tXJ06dP1zFjluSBx48fr/feQh1TpP4wKv8h+ey3f/u3T2r45S9/+c7xh+bChQvfhNp5HIdr1669cxyeP3++Suskf0KFNMp1bt269U6Zkd0RtQw2KtRT0wmjumt6+qD7k9Dr6FD+wYMH66O3MElr/7JfJy6M8oxsBdLryZH8CdU++WraqJ5RWsAWaXV/Km/SCL2NI6o9QlhaXkREREREdufSpUurAEtE+yZu3rz5zrM8muHy5cur/U7y1PrJ+/Lly9XxWTGlz0fhwuuvWZdb8dVXX51cvHhxfXRy8p0f/mS1/ekPvrvanieI1EePHq06HRCsHANpcR2BfeXKldV+0gGBfPv27ZNnz559c0xejq9evbqKg8Rl/+HDh++kA3XjR3zZBBODMrWuCExsjNKht3muD0Lti01QbybkjRs3VltgsiKsUw/5SE9eGOUhnUndT4LkJT31VJucBJwQsUXekR2g3PXr179Joxz2q/+clHfu3FntYytpPW+1hQ/kTbkpsI2fI79rvSIiIiIicjp4Xuf5fY48fy/JC/V5nef3OfqzPXoB/RAtQH0c1/h90vV31+cjDvbzewQ4YjfiCbqYrZDvxYsXq4GdIgK/C/YI+n1y//799+rCx7RnJOiBONJg2z5YCoKWybiPt0vYQuR2iGOSTzES70uJ/4G6qsCv+/UkS5nUzTYn5xSkJR+kbGzRxlH7RURERERke3juRljXwDN4PQ7opBqf5/YeX6m20A2EHOdZP/CcH63AtmocyiHs96GpTsvBinrELKKWsBRW2COIO7HTRfRZkBcLU3WRTtooPfER9Nv2ASA46+ckIzIJ90EXxnP1Bk6IftIspZeN8B5R0/Ar4jyQtsTfCjZShvKHcCKLiIiIiHwM8JyNlkmAPMOTNrWgluf+Tc/npMU2eoiQ41qOugiIeLaksZ889Zj0D8lB/6E8Vq35HH5KqHcQwffu3RvmZxU/n+gHPltPWAJ2k5+V+Dl6XZ25dNLwF7btA2DS86apC9gKaUzCfQj7OrmhvsHq8EKDE2aUp55Q/WStaZyoU/YBX2peAnCyzfXJCPLXEzUndCD9Q5/EIiIiIiIfCzy7Z+U8z/x53p7TGTyj51k/z/Ajqv25lXpskNb3O8SnXvyLDqmha5t9c9CiHpHOb8XZLhHScPfu3ZUgXrK6je2lv0UHPn1PGeo5DRHtI+oLiF36YCmcEJwgpxWlmcSxRUhcp34KwwSvddcTqp+sSSN+00lRT1RO5nw5gU/btjUncF5G8HIB+7V9U20VEREREZHtqM/r2ed5u4r2Ds/pVXTzvE7+0bM/8RHbPNvXxcOpFwFLQatEh9Qw9SJiXxzFv7RDQCNsEVZLxDqf4fP7+Qpicmn507KpLtJJG6UnHhFf2bYPlsLkZyKP2EYAc+IgtjkRlk5aymwrsrHNybz0bRftG10YAv7ixxyk54Rk7CijkBcRERER2S88q4+es3keR7N0nUF+xDjP6Z3onC7U81xPIA+hxm1iTge4Ut9AuG7zyXkFQYz46qvarLTzKfs+RfEU/AyAuir4gyiHkS/sE5c/hneaPlgKkzKCvJITp8LxlAAmnpNqiUgOu4pjTjz87QIdiKttYT91xK+c2Nlu40O/mIx8EBERERGR7eHZOjoEMZzndI6zzzN8nsGJR4ijscjPluf/iOksyJGfkPgEyqeuGqITOsTPaQd0Qn1BkLB00XNXDvpf2jEoVdQidhkY4FP0uI4QZiU7aSGimt+lhwjnCgI8n9N3oc0LgvxF+gjy0LruPbr/tR4Y+UJddZV+rg9C7QtgwlKOfH3SEc+k6sI7bau2OSGqQKZcnZDdVvImD5OegAgH8ucEBOJTlpOpnzycADDymbw5iSPcqx/xhfjapvRNSB1APD6N+ix+9z7obRYRERERkd3g2bo+V1ddE61AXPRFhzTyLX02j82ujSr4RDoaAf2RupeU3YVd/qXdQYt6kaXwRq0K9G3hAsAJO3WBmOK09YqIiIiIyJvncUJEMvuI6LpAxzF8CFHPy4X63H9Qov7LL7+cXW7+3o9+ttoq6sewSt4ZrabL2cIJ3E+0beBkrav9S0DQM859ZV9ERERERGQXIup//P1vr7ZLcKVeRERERERE5ADYZaX+KP76vYiIiIiIiIi8j6JeRERERERE5EhR1IuIiIiIiIgcKYp6ERERERERkSNFUS8iIiIiIiJypCjqRURERERERI4URb2IiIjIQl6+fHny9OnT9ZEcK46jiHxM+H/qRQ4EHi6uX7/+3v6TJ09Obty4sXoAuXTp0iqEx48fn9y8efO9/X3w4MGD9d4Y6qq+4PPly5dXcfF5V5aUn2svvmx6WKN/08dwHv0/yjPX1pr26tWrlQ/V5wrp+F1tnXYcKtvOh12p/Tzl/y7jC9uO1zak//G/cufOndX2tGMxNf6pj3Ovs818ww5pIxiLaue8+n8b/6GmzZ0vpMX23DybgrKwyf+l0Jf4wRjO9W38DZlztHGqrZVD6s9Rnm3H4bTsexw72KdvKrSvnqu9zdv2wTbX5V3n2Tac17jOXfemwA/ybyqT+RyfKRdyPQ8jPza1t5+HZ9E/Hwr6jvbs65wa9c3H1F9z7PJ/6i98+eWX74j6zvd+9LPV9kOK+lu3bq22jx49Wm3DtWvXTp4/f37S3kt8A+lXrlx5pxz5ia88e/bs5OrVq+ujN+UePnz4Thzlbt++vcoLU3XXfPidm0aFyd7bsoncHPoFpZ9AuRD1G3/PM7IVSKd8TprkD9iJfezmogbE93pCTQukkw9fsg+jvPXmVX2YotqDtBc7S8qfN719eYDKBSwPb2HTzRzSznrz5uaT+UAdpI/6otdXIQ07tVyN62MPxFMn9HTqqXWlzZUl7aXM6IZNXenPKc6y/yuUSzz9gM2lPo/6JYzSpsaQ+HBW82FEbXul92Xy9PipaxZ+w6gfw67jRd8QN9X2QB+QDx9qf6Tf5sZuE0t8h6m+TfzcfJvrw02+n2X/L/V/2/MFsM2c2mZsyJs62Me3fYAt2lXbtum6RX9Qf83Hljk35dch9Cd2yROoH3/wu1LPd/zB38TV+URdvQ3JP0oD6p8bx9pPu9L7gXYDNtO3PU+uF/ifUPuFstXX5IfYT3tJS98G6iOu9gl19LHehV3GdRew120C9dW+xJf0yRS1P6v/GXvi2BL6WIUeP5UP4k/t/7n8Z03Ok6VzfVN+0mlPnaO7cl7z6VCJqP/x97+92i7h4FfqI5JHAjqincnTJ1DKVVHPRERodxF/4cKFVZ7YWCrqsQ39pUHNF6hj6uXDEvA9J1A9+fsJlJtYPdlGeUjnBKkXFkhe0lNPtclJxgkVW+Qd2QHKcZNIGuWwX/3PQwBgK2k9b7WVE33TiVxvyt3vWu8hgH+9D/GXNmc8SGdLv9T+IK7m7yR/h76lXkJIf0F9aBoxlRcf+jh3aBP50h58qL7XuRCm2reEUR2Vs+z/sKk/+3ykXuyzHUG9mc/4g18BW/hDqBAf/zv7nA8jqDP+zkH92CGM5gFs8iXU9m47XhX8IO9c+6qv1Xb2p9qylKk5nPHq83fb+TZlB7rv59H/Z3m+dJaOTepIH9E24pbM612YGvP0KT7jS46B41FbDqU/8ZWxJz1zjjignaRRbz/X8D8+1mtJ2s5xLZP+yLyrLB3HWucupB8y19Ne/My49r5K3owXPnKctvX8m8a198sI2j+aZ9uw67huC+OK3dF4U3eN6301ouaJ33W+VL9rXnzIHKvgV4+nTGzGxty4nWbOnZZRP24D/UIb+7m0Lec1nw6ZnVbqD13U379/f7VFLCOy7969uzoGhDXH5OkiGvGekyuiG2HdBT1gG1vpiqWiPnWzzQQ+S1Gficw2F4h+Ao1OyFGe2OonHvmwzUmEHeg2OU655I8/ldQz5Sv1Y3NUlvrjQy8H3Xanlg+1HdQN2DgEaB/+Av7hF3EV4msf0Ia0YwR9U9ufvBlHttRJXam79if5p/qHNPLGFtS42p4K/qQO8nBMPsZ41Bbamzq6PykPlE9bRmxKP4/+r/6mrt4XAX+Zr9zcR77P9UX2u81eJr6nf9mmnu4f9PIV0jL2I7BHO6bKV8iLHUJvQyCedOqlj6q/7Oe4tz9tHtHHq7LJf9KxnflRH8jxk3JTbVlK5sQI7Naxglpf7R8Y+UIe4kfQhjr3z6P/t/F/2/NlkxCC7g9lOE4bgf3UXa9V24Ct9GftYxi1hTjyJ4594Ljm631Ujw+hP6HWy378gtof1Mdx/O3gK3bS/5ln+E6ZWm6bcYyd2tZtSPvSX6kP++nT5OGY/ZB+SRviU+0zqGNR2wOkpWzss79knp2G6iP78QtG9S+Fscv4MFZsCbSzjlugbtrPdkT6Pb6mjwLzf9QW+il9VdMBX/CDemv/Q+YYdkP6JmP2oenn0rbQRvpk1zEeMRqDgJ/7rOuQ2EXU/7719mC5d+/eSiCzKh4B3SEtF2NAWHdIR6R3QQ+Jz4uDbUD81xcCp2F0U+kwsftFYVeog5MjFxPq30QuUrvQy1L31MnY/er9QdoSfyvYiC3Kc3HY103sNOAT/uBXvTkz1rW/8LdT5wr9O2oP9jNnMgbYqvXFh5CHNPJPQdrUXK03uSmoj3am7up7vYhXMma9zj5faO+I3h7qwBZla3/ss/8DNpc8/AJ1pW7s06ZtmOo/+BDzIWlT4E9tY/LWPsNutYGvhPqgx37ynXa8KvQFPk7lr+OF3cydkQ8j0q+b/EmbK/TRiG3mG+DvNveV+HJW/X+W50tvJ+X7+RL/6/kygvpII0+uJ5258U2/L50r6d+MO2XjY+qB7seh9CdUPzJnCNVOzY/vtHkK/Et72U/+amOXccw5PDVPl563S6AufMZP9jO+m8CHOu6djCNb2lf7ZN9sO66dTf3Zx672Uca/kjnYy6Ue+iT9EyiTuMyF0Oc0MF5pd8av+l/9qnMJ30d9UevvJP+UH6TX86TOZXxkPzbwI76QRh+RP+cJPozqgeQPaX8YjcUuVLvsY5dQ6x71Ydg0n9LWUPue+mp/pS9G/Qe9D/qcOy8OWtTT2RHchPxGvV/cs2Ke+Ij/Fy9erI5DPpcfQRr5txX15OfFA75t+zv5Tp+sI8jDRGJiTZ1wS8EOkz6TmH3imOidOvG7j/Wk6hO9ptUTZkS9yNW8+LPtRYL82EtZthzHZuIOAXwh5AIUat8BeTp1XKDbSD/WMUuf1HnU+5j8mQ+Qm2edK+x3n/AneVImEF/nLMdpI3biy4iMFf5gly3lM6bVf7Z9jpKeciMoc5b9D7X9vT9rXfiaNi2FvPWm0tsPsdf7h3jizmI+LKVe02Mbap9ViMPXjH/Ggfpz3O8TsM14LYW+ohy+sJ9+6n24D7DdfYZRH9W+m5tv0O2mXM1X7bE96/6v9c35Tz8Tz3YXMk5TPpM2Op86o7JnSebaiNp34VD6E+hP8lFv8rBfr2FLzx3K1bb247DLOFJm137YhZxPsHQcapv6uJ4G6u3n6xT0N3Xuc1xHVDvYr7bm0gL9gz9cn6eeBUgP5Ol9QDvr/KIe6uNcxH5Nq2PHfu4LIf0WMn5TjOb1NmA/Y0S7qLv2E+0gnnqWjhP9XttB/9U2Vvp9JkyNx1nPp/QHpE/6+dT7qx7H594HlCOu2jovDl7UZyAhE67GQYR4Vugjzruo78cV0uZE/xy8QGC1fvSFwFmQC83UibOUnAyxw5a4kV36PPmZrPW4X5gqScvJPJUPcsIAJy75U8+mi12HMtRNP+UY+/EZ6v6HJBcIyAUP33u/1psNTF0IO/RdLZs60v6peZQxmyK+Vf8zXtTXL2jdf8BG6qe91DfXJmwnP/uZF6cZy7Pu/5AL/SZoC3ZrfWl3bX+F+FwXU476CLQD0kdnPR92pdpPW0ZkvDJGtY2k5bhfp7Ydr6Vgn0C9+M+8Z4uP1E/8Jui7TfmoI+dU2jnXHtKXzLcQ29UP+jHjmjlzXv2/1H/sY3eb86VCPbSRkDHbN0vGdxf6mPWxqhxaf+ZcZ5t5kfbAqA0d7KcuwBb7+Lkv5mxR1z7HNX3c90eQTvuXUM/DpZC/jsdSTjOum/oTO9gljNqOz5lvc/0TG6Fe5+o+YCfXt01jnXK0MWUCvhFqvaO+6OX2SWzHl9NSz/XQrx0V0jInlpL+Yrvv+UT63DWx91fqzzFzg9D7gP2ksz1PDlbUI5A5IQmshFdGn8lzIrNCT/zoE33SWU0flSWux2+7as9n+PyWnu15wGQbXThgm4nE5ONkIf/Sk40y205WbFOmnphz0K56slG2wok6ansFP+vJj71NZT4E9CN+1r6hff1i1fub9LkLFm2lDwjMf/Jin3qIwx4BO6MxIa76A5QDbITqf6VfLFO2gl3GdlR/pc43tjlmi42R7aVU/2t799X/oc7F3p+b6G3uvoyIbfzEF8oB8Wc5H3aBuYJt+oj60z7qqfMofUq+Pr8qlKv9DduO1y5gA9JPS8YJ8GuqbsZt7uG0Uttwmvk2B206j/4/jf/4uPR8qen4kPNlrsy2zI1vJ/VvyyZ/D6k/c82JH9nWOTVXB3BOcJ7VNuR8qOcFtuu1a59sM65LwMdcCze1n/Q+pulHfNrk167zbI7TjuvS/uT+NbJDm0LvH6j9Mwdzi3mc+UW72Kd87bO5cwFfNs05bFVf4t++wL9Dgn6s52agn0Z9dZbzib5hnOscmbunHQsHK+q/+OKL1YnbP2lnRZy0KVGPGO9/pC5gi/L1j+Uh5omr9WCLFwD1d/IIduKnwF58OA+YyLnYVIjjYlInKsdTEzs2mOBz7atwomy6WI3gAsZJQ539RKT+ahefkic+5gTNiT13Mnf6BfbQLnYj+gW/3rBCv2mF9FFI/7GlH9J3bOmL3pfJS5hjbh5037r/GU/qjl9T9vAxfUF+ypKXPsJuvdHui331P75PibJOrzMQl7HA9tL2Um5kD1sZ4/OaD3OkH2u/Ab5PtXWq77nGbFum13taqr0lfTKXh7GI35mD5KcO+oe5VefNPubbEs6q/8/zfKGeet+jr8mLD/tk6XnB+O4yHnNtPMT+5DhzmG1s1/kxut4G6qFc97XPr/TnLn0Km+bBpnFN2wn4UvttVDbnesYreer49Wsztkmv7aRfqY+x6Plh13m2idOO66b+PEsyRtD7jXZwXevPyJSp/ZgyxNEHo76vjPpi6tzaBHXhD4F96t+V2NgE7aQN1JV+2DS+24wxfpzVfOpjF9vbMuqD9P2SPtw3Byvq8wfyOqzCI7inVuPnIB2biPhKFfkQ2/zF+oA/ozorpHfb28Aky01xyWRgwtaLPWQS1zdOxM1N7jqxp6j1cNGp/vWTqt9YK5TFFnmoNydC7MVvjut4plyodRDffQLi6VPofVBPwEOD/lzqWx3nTr05sE9fZKzSZxmL3LDSh9Rf+zgXqW36rPtWy+ILNquPc5C/+hZq/L7Yd//jXz8ndunPzOVRe0mb86X303nPB/JtOufiT++rObgR95vxXPkl4zVik+8V2oFP9fp1WuI3PuIHdUDmFv1GyJj1PlgyXrVv0heZHzAqexb9v6v/ndpHIzLHDwX85R61tI3kpQznLPv0Ucar9t8h9mc/1/Af3+v8qPXgZ85BtvhS5ybU69W+SJ27kvFJ/7M/10fJnzzsU39tW9qdvHV8M67pX9LJV8tzvM0824Ztx3VXaNeI09imbL0GBfqLaxz9RVvq+JGWfmQfyMs40PY6liOor45Dxm+KjH3v55A6Abu79EfayXaqngrtq+NBmX5P2JVe/z7nE+3Dz9jC9q5w/nWfMu6MaeYNc2S0v2sbRhz8v7STjxtOhP7AsQ254C65+FROW+9ZQDsI+JWLey48hHqhAC4IU+2u5ekjLrr9QoPNao88sVcv0nPkgkR+6kmfjnxLXL2YdWKn+spxAj7PgX3aHHJBBS7acxfu9PO++3/EpnTAPnXOtXnU33W/tj9jRT+e9XwYgY1qvxKf+jk518edtJX8o36ds7VpPCjL3JlqG8R+b+fU/DkN9Bc+L30Q2dQ+/Iut5A0ps2kszrL/N6UD9unjJefL1PU/YwVzc3mJP6elPmzWcc65AlNzKmWn2nAo/VnnRJ8f/fgs7tmb+uG0dfbyuYfRLsaQ44whvpA2Gs+l7DIvM1f6PDsN24zrttBHtG80r6ds13OG9Kn+qf2XMhkfSBz9RB7yk0698Yk88SH569zP+ZDtiDkfP0XOcj4dMjv9n/ovv/xy9n+xfe9HP1ttFfX7pX4FEPgJwGku6MdILnq73ji5MHKx3OYCyE2sXmRF5Ow57bn+oeChgWvFvh54RWR7zvv64XOCfOrkhU/FFw7nR0T9j7//7dV2Ca7Ui4iIiIiIiBwAu6zUf7beioiIiIiIiMiRoagXEREREREROVIU9SIiIiIiIiJHiqJeRERERERE5EhR1IuIiIiIiIgcKYp6ERERERERkSNFUS8iIiIiIiJypCjqRURERERERI6Uz/hn9jVAP/4QXLt27eT+/fvro7c8fvz45MKFCyfPnz9fx7wP6QnkDxxDbPRw69atVTrbGo8vm8DmgwcP1kdvefXq1Ts+sE9cZZRnZCuQ/uTJk/XR2/wJ1T75atqonlFawBZpdX8qb9IIvY0jqj1CWFpeRERERETkY2RKn4/CZxcvXjypAfrxh+DZs2cr4VjFI0Iewf369euTq1evrmPfBRH+6NGjVR7CSHzevHnzm3QCdQHlQrWR9E1cvnz5HbF9GrD18uXL9dFbpsQubbpz587JjRs33vOBONII5KvUtJH/9B9p8PTp08m85IsttqN+75Cn+p0yHC8pLyIiIiIi8jEypc9H4aA/v3/48OE3q+fAivmcwEb0I/arcK1CfYrbt28vyrcJhC6ieyTGtwVbiOgOcdevX18fvQ/ldiX+B+pCbIe6f+nSpfXe2xcNqZst6XP9QFryQcrGFm0ctV9ERERERETectCiHoGO2EbYI+jZn1qhB9IQ9nOf5ndYEb5y5cp7K9gjEJybPg1H+O5rtb4L47l6A0I4AnlbetkI7xE1Db+qyAfSlvhbwUbKUH7upYCIiIiIiIgcwR/Ki9hmu0R4s5LPC4C6wj8H+Uar9MTnN/X5bT+ik0/Du4CtkMYq8z6EPXaqsJ1bpeflBC8cRnnwJb9b76vfNQ0hPWUf8KXmnRP1myA/9iLi2da2kr7tSwEREREREZFPjYMX9YjVFy9erFbfl/zOmtV6fgfPtgryEVOCHojPb+rv3r27jl0GwhhBelpRGqEcW4Qp8cwLD144EBDdtW6+HkhaF+1JI74L/g4iPnYQ4BmPXQQ4Zag7LyN4uYD92r6ptoqIiIiIiMgbDlrU5w/jsfqez/CXflqPEEeQIxpHZSJIl6z+78LcZ/jbCGCELmIbET23il6hzLYiG9uI6E3CPtC+WkevD3+zkj9FfUnAOFBGIS8iIiIiIrKcgxb1/Q/YsU/cFHkJsIS5Vfp9gDiNIK8Q18V+VqlHEI9gXiKSw67iGKGOv6MXAsTVtrCfOuIX9dbtNj7QB/WlxcgHEREREREReZeDFfX8Lr7/jj7HfFY/gk/uk57Ain3/43oR/jUfob4QYL+mAUKzf9o+ByK15yWOkN+mExDFVdB2SN8k6PMZOwFxXgU1grnWN0c+iQfq7AI9NoivY5MvE0hjW9OwN+qz6jP2ax9gf1ObRUREREREPnUuvOYb9QL/vJ7/dRe+88OfrLY//cF3V1v5tEBw83n8riDmWdVH9G/DaesVERERERE5Nrr+7vp8xIWf//zn74j6zl94+IvV9tBEfVbPK3xOX1eI5fQgyllR31Vg5zP9bVbdEfSM4zaf74uIiIiIiBw7EfV/+fYfXW2X4Eq9iIiIiIiIyAGwy0r9wf9LOxEREREREREZo6gXEREREREROVIU9SIiIiIiIiJHiqJeRERERERE5EhR1IuIiIiIiIgcKYp6ERERERERkSNFUS8iIiIiIiJypCjqRURERERERI6UC19++eXr9f6Q7/3oZ6tt/vn9eXHhwoWTR48endy8eXMdc3Ly/Pnzk2vXrp28fj3tMuVCLU885R4/fnxy69atVVyFfOQnjTzh6tWrJ8+ePVsfjSH/q1evTu7cubOOeQNxT548+cYH8t24cePk0qVLq2MY5RnZCqRTHjs5Jn/ATuxj9+XLl6t9IL7XE2paIJ18+JJ9GOV98ODBeu9dH6ao9iDtxc6S8iIiIiIiIh8b3/nhT1bbH3//26vtEj67ePHiSQ3Qjz8ECOz79++vj97AMfFT5EUA4j0CvoNgTDohgr3arTY2Cfpw+fLllYjeB9iqYjxUEV6hTYhihH73gTjSCF2I17SR/xH08PTp08m85IsttqN+75Cn+p0yHC8pLyIiIiIi8rEypc9H4WA/v48AjcBjlf7FixfvCdNAOqvqNX3uBUC4ffv2onybQOgiukdifFuwhYjuEHf9+vX10ftQblfif6AuxHao+3UVPWVSN1vS5/qBtOSDlI0t2jhqv4iIiIiIiLzLQf+m/u7du9+s1rPleAoEPcKesBReGFy5cmXyRUEFwcmn4VX4dhC++1qt78J4rt6AEI5A3pZeNsJ7RE3Dr/6pPGlL/K1gI2UoP/dSQERERERERN5w0KI+YhtBP7dKH/hUnt/cj34zP4J8o1V64vmUn5CXCohOPg3vArZCGqvM+xD22KnCdm6VnpcTvHAY5cEX0pJeqWkI6Sn7gC8175yo3wT5sRcRz7a2lfRtXwqIiIiIiIh8ihz8X79ndf7evXuzq/SB1Xp+B8+2CvIRU4Ie6m/ql9RbQRgjSE8rSiOUY4swJZ552cELBwKiu9bN1wNJ66I9acR3wd9BxMcOAjw/i9hFgFOGuvMygpcL2K/tm2qriIiIiIiIvOXgRX1W55d8Ih8Q4ghyROPoc/wI0m1sbsPcZ/jbCGCELmIbET23il6hzLYiG9uI6E3CPtC+WkevD3+zkj9FfUnAOFBGIS8iIiIiIrIdBy/ql4J4P+1n9/sCcRpBXiGui/2sUo8gHsG8RCSHXcUxQh1/Ry8EiKttYT91xC/qrdttfKAP6kuLkQ8iIiIiIiLyPh+NqM9fvs9v4Qms2BNfifCv+Qj1hQD7NQ0Qmv3T9jkQqT0vcYT8Np2AKK6CtkP6JkGfz9gJiPMqqBHMtb458kk8UGcX6LFBfP3KIV8mkMa2pmFv1GfVZ+zXPsD+pjaLiIiIiIjI19r2Nd+pF7766qvV/7oL+ef3P/3Bd1db+XRAcPN5/K4g5lnVR/Rvw2nrFREREREROUa6/u76fMRnZKoB+vGhUVfRE7LCLPuDFXcE9q7ssuJOfXWlX0RERERE5FNjSp+Pgiv1IiIiIiIiIgfATiv1662IiIiIiIiIHBmKehEREREREZEjRVEvIiIiIiIicqQo6kVERERERESOFEW9iIiIiIiIyJGiqBcRERERERE5UhT1IiIiIiIiIkeKol5ERERERETkSPmMf2ZfA/TjD8Hjx49PLly48F64devWOseYmhcbgWPYZJdtjb927doqfg5sPnjwYH30llevXr3jA/vEVUZ5RrYC6U+ePFkfvc2fUO2Tr6aN6hmlBWyRVven8iaN0Ns4otojhKXlRUREREREPlam9PkofHbx4sWTGqAffwhu3rx58vr162/Cs2fPVvGPHj1abUcgwklPmZH4XGK32kj6Ji5fvvyO2D4N2Hr58uX66C1TYpc23blz5+TGjRvv+UAcaQTyVWrayH/6jzR4+vTpZF7yxRbbUb93yFP9ThmOl5QXERERERH5WJnS56NwNJ/f3759e1bQP3/+/OTq1avvCNe5/GGT3aUgdBHdIzG+LdhCRHeIu379+vrofSi3K/E/UBdiO9T9S5curffevmhI3WxJn+sH0pIPUja2aOOo/SIiIiIiIvIuRyHqWbm9cuXKeyvNFQQ9wp6wlCV2A4Jz06fhCN99rdZ3YTxXb0AIRyBvSy8b4T2ipuFXFflA2hJ/K9hIGcrPvRQQERERERGRNxyFqOd37ktW0/lUnt/Ab/rdfZiyW39Xf//+/VUcopNPw7uArZDGKvM+hD12qrCdW6Xn5QQvHEZ58CW/W++r3zUNIT1lH/Cl5p0T9ZsgP/Yi4tnWtpK+7UsBERERERGRT5GDF/VLBT2wWs/v4NlWQT5izi7x+U393bt317HLQBgjSE8rSiOUY4swJZ7z23QCorvWzdcDSeuiPWnEd8HfQcTHDgI8v3vfRYBThrrzMoKXC9iv7Ztqq4iIiIiIiLzloEV9hOOSz+MrCHEEOeVHn+Pvancpc5/hbyOAEbqIbUT03Cp6hTLbimxsI6I3CftA+2odvT78zUr+FPUlAeNAGYW8iIiIiIjIdhy0qN9mlR7xTv4lbGN3FxCnEeQV4rrYzyr1COIRzEtEcthVHCPU8Xf0QoC42hb2U0f8ot663cYH+qC+tBj5ICIiIiIiIu9zsKI+Aj2/bU+YEu75y/c1Lyv2xFeW2GW/pgFCs3/aPgcitecljpDfphMQxVXQdkjfJOjzGTsBcV4FNYK51jdHPokH6uwCPTaIr1855MsE0tjWNOyN+qz6jP3aB9jf1GYRERERERH5Wtu+5jv1Av+8nv91F77zw5+stj/9wXdXW/l0QHDzefyuIOZZ1Uf0b8Np6xURERERETlGuv7u+nzEZ2SqAfrxoVFX0ROywiz7gxV3BPau7LLiTn11pV9ERERERORTY0qfj4Ir9SIiIiIiIiIHwE4r9eutiIiIiIiIiBwZinoRERERERGRI0VRLyIiIiIiInKkKOpFREREREREjhRFvYiIiIiIiMiRoqgXEREREREROVIU9SIiIiIiIiJHiqJeREREREREZIbHjx+v96Z58uTJKlRevnx58vTp0/XR2XDhF7/4xev1/pA/95d+vtrmn9+fJ9euXTt5/vz5+ugNjx49Orl58+b66OTk1q1b73Tw1atXT549e/ZefKAsNgL5oMbBhQsXTl6/ftM1+PHw4cOV7aVQPvQ6aRM2K/hc7aft8aFD+pUrV76xu23+qX6DKVvE3b59e6v+rTx48GCVfunSpXXMG169erWydefOnXXMmxMCbty4sdoG8pE/YKvOh0Bd4fLly9/YoTz71QfsUV+3cxofav2Ux4fQ28uJnrq6rWqn991c2hSjMsQtLS8iIiIi8qnRn/9D1RmBZ3tCjedZv+eb4js//Mlq+1f/4p9cbRfxtXB7hy+//HK994Y//S/+9VX4EHwtNF9/LSDXR2/A5Xv37q2PXr/+Woy8/lpEro/GDJq5AtvUMUqvcSM/psAXytb8xMXHUToQV9tBnVNti9+kh23zz/Vb8tb8EDudUf+N+M3f/M1V6PT43/u931v59hu/8RvrmLcQ/1u/9Vvrozdlf/zjH6+PXq/SKIeNQFzKUL6mQeqrnMaHags73Z9qEzu97lDrYVvLzaVNMVdmSXkRERERkU8NnpMJeY4OU8/wgfSU7aHrkUrX312fjzi6z++/9vnka1G/WjU+LV988cVqhZJw//79dezpwM7X4vedVffUAaxw93QgLl8NhCm/iLt79+766C3b5p8DWy9evFi9ldoXvMkafXpCXF3J5s0Wx1P5K+Spb83Ij+911Tm2tuE0PmSsAT+qL9iqb+nibyf24jdb7ODXXNoUm8pcv359YztFRERERD4l0EI8q/OFLc/NfOFKHNvRyjvxeb5OOQLP3tknVH2wD47yN/V0EILztPBy4PPPP1/Z24d4jY0u2APppI3SE99fVvDJfPVt08uMbfPPwU8O+ouGJSAgmdBV6AKTlwldxSf7EZgBcUlczzsieSF593GS7OrDCPohPqW9kHg+x6G/CBHWtUygHPFzaVNsKsP+pnaKiIiIiHxKoBPzvM6zMoI8Yj4/n62QTr48058XH8UfykN48ht2wmilekQV2AwW4reK4V1BVM8xl05af1nBCnv1a9Oq+zb5N/UbfcOLj22FPRN/6g1UF49V5ALHlCNEdNb8UEUweVhlDqM6O/RPyhP6uJ/Whwr5pn4/E7uUp78IXACIJ0y1ZS5tik1lSCOPiIiIiIi8eX7O8360QNUONb0+R/PsP6UNzoqPQtQ/evRo9Vk+Yeln5gwGYj7sa7V+E3NfGJDWRT/CGnjpQCBP4kZsk39JvxGPDWztAwQsJwUTnxBRG/px8lc4URDAu34yzlhHRBPqPIB9+cB8youBKUir6dijrjmRvYsAX1KGPCIiIiIi8ubZOM/70Q9ogOgAAs/xbEfP0XURkOf77J+F5jw6UY+47IJ8W2KDVeisVHNMOI14zYuBKRukkzZKT/xIgFOOlXT+BsCSlxbb5t8En+HzV+/3RYQrgf0QkY9IricAYSRIKcsJFFEd8b2t4K2c1ofAPCCttq9DuTlfexo+5AXAXNoUu5QREREREfnU4dkeXYBQr2J9BM/caIOR+CecRsdOcVSiHtHLv1tjhfk05A/kZZU6AUFN2mngRQE+VhDYTATA9/zLuLCpXfjKajk2lkyCbfNvgn7BzugT/V2I+O6iMseZ8AmIX9JGcLJw0kSwIqLT14H0qfKdffhA/fhR2zYCmxC7uQBQLmWTli1l5tKm2FSmC34REREREXkDWghN0FfqR/CcPbewdxYcvKhH7GY1nX3Edxeq9bfhhE0gvEcr2MSRNqL7MQU2EOfdn/jMlr903+0R19tVIW0uvbMk/zb9Rrt4UbAEBCJvrqaEYhWfdR9BOzoBiCNtCk6sCHnycpy3Z3mDtklgh9P6wElMu+sbPEL6Aj8iqIExSt68hEmfYDNpbOt4zqVhZ9T3c2XwaWkfiYiIiIh8SvB8nWfoPE8TOjxTzy20nRUXvhbJ/J/xb/jqq69OLl68uD56+8/vf/qD7662InI6uABMvdk7LYh5Xj4g4LfhLH0SERERETlWeLZm8Wsk1hH4ee6uz+FsNy0ITi2odf3d9fmIC/wz+/X+kO/96GerraL+XUYr26zQ19VPkRGc8LztOwsRzcWDC842q+4I+vqFgIiIiIiIfBgi6n/8/W+vtktwpV5ERERERETkANhlpf6j+Jd2IiIiIiIiIp8iinoRERERERGRI0VRLyIiIiIiInKkKOpFREREREREjhRFvYiIiIiIiMiRoqgXEREREREROVIU9SIiIiIiIiJHiqJeRERERETkQHjy5Ml67w0vX75cBTl+Xr16dfL48eP10f74jH9mXwP04w/FtWvXTi5cuPBO6J1w69atd9IpM4pPIL7CcY8D8gZsPn/+fH20mVpf/D2NP5vKjvzjOH0Ratklk4k8Dx48WB+9pU9G9omrjPKMbAXS6wUs+ROqffLVtFE9o7SALdJCzd/bMcWozDblRUREREQCz5BPnz5dH43pYr+zxMboGfa84QWFz82bmdLno/DZxYsXT2qAfvwhefbs2cnr16+/CQjZ+/fvr1Pf8OjRo2/Syd/jIPvEB4TvixcvhsJvVxDMte7YPo0/S8puYsqvTVy+fHnjBWQp2Bq9ZZw6oW/evHly586dkxs3brznA3GkEchXqWkj/2k7adlPfrZL+mWqDMdLyouIiIiIVC5durTem+b69evvPNdWgU7gORRR3+PD1DPseYI/6IEl7f3UmdLno3B0n98jSO/du7fVyvkUX3zxxUoQEvqLgl3Ap6tXr74jMrcR3vv2J5zGL0Qxonsfn/xga/T2kDguUlNQblfif6AuLmKQ+NhnywVmrq2bytCOTW9IRUREREQ69TmSZ8uIcoQ8ARFOfJ47Eec18FxK6PGwy3PvWYA/eRaX/XGUv6lHnLKifVp4OfD555+v7O3jTRXCGQG96wuHffsT5vziBOdiUYVvhxOvr3bvSr94zNUbuLjlArQtvSx155i6+1tC0uZ82lSG/fO+OIqIiIjIx0EWunimjCgnLivshDzLVtAO5COMdMTcMyyh6oGspuelQl+wSnxNQyvUZ2DSYo/tJm3TfSB/4hJiP/aom/hQ89b4UNNqm6biqSPx1a8eB4kjzPXXpn7YlY/iD+XV35wvXeGmQxG7WcFG8O6jk/n8n9+y99/Fb+Ks/AlTfnFyc3HoJ3mFNC4Q+xD22KknPJOeuBG0PydGz4MvOTn6iVPTuFhN2edEnGv3iE1lSKsnuIiIiIjIUnhOrs/KwLNljwvE88ybRTgC+8TVZ9K5Z1jiux7ALnHoEp61Ywu7eblAIB9pdWErdeWY7ehFRGXkA1og9eDHSIuQBumD5E8fhJ4efTDVHtocnwgwioMpG0mr9W7qh135KER9/a343bt317HzMEmYHIH9fYhoRDl+sN32JcNZ+BN29Ssw8ZmcmaC7khM1tgj15K3QBzkBOCFq3aOTMiSN+C74K9S7bXuWlJlqj4iIiIjIFIjBKQE8er7k+Zj8PPeSzrMzgX3iEMHRE0ueYSs8TwPlUjd1AfUmYDM+J50t5XNMnl3EbNVG+FDrwGY0QOqvdbCfNo/SIbbm2lP7bxQ3ZyN2ar1dt+yLoxP1WcGug7wtscHn7lnh55gw+kR9F3i5gIheYnMf/iz9OcI2fnU4OUdvyIDJuxQmNmKbib50YlNmmzoA25xsc8K+28zJN8cuZUREREREpogQjJgOPMfynFkFZIiYB57RSa95SKuaaR/PsOSn3hryPE8aNqmHugns5/i0VP/3YQ+m2oN99hkPhDrtGsXN2ThPjkrUI0L5hHybPz43In+QDnFbA6vYpO0K/m372T2c1h/K9npv3779zUm8q18dJjKTtotk4rrY55j4EcRzUm5zIcmJtC2cdPhbLwIhdeeEzHaunk1lRvWIiIiIiMzBs2QX9DxXEnj+JOS5M/CMW8Vj8iQf9vKMvstzb6fbh6oBSK86geM5TbCJaos60xedkV/Zp32jdGyP4tOe1E15+pi6R3FzNubS9s2Fr8Xjm/+Ttob/c8efxQ/f+eFPVtuf/uC7q+15Mvr/683dlVhl1bnS87DyXeM45jfmiOYKdrBH3lqm+0G5/Ou8TmwEXkDUN2Swiz+hlw18Ts9Kf2C//hRhyi8mI2ns95OaeCYsE7JCPNR2McnriUe5epHptpI3eTLhczEjP74F4lOWk6GeHMAbMRj5TF7KkId6c3JD2h9iB4in3t4vc2V6u0REREREtoHnVp5BWQ2uz5k8g/Jcy3Nm3YeUCTyT8rxLPp5lCVPPsImPHuj11mfiboP663MvZetzO8dVZ1AWG5XYrj6wj42qL6q/tLdqEaCugI2avqntoban2kv+UdycjZ5GW2lT973S9XfX5yMOWtSLnAWcjPVCNYITkBOuXhyXsMS2iIiIiMgUCFZEKaI2YjhErPd4hCPPr6GL2mOD9kTsf2rsJOq//PLL95d9C9/70c9WW0X9u7Bi3hmtysvhkTdmc+KbC2YupktB0DP+n+LFR0RERERkXyjqT05+/P1vr7ZLcKVeREREREREDgZF/XYr9R/Fv7QTERERERGRjwO/ft0ORb2IiIiIiIjIkaKoFxERERERETlSFPUiIiIiIiIiR4qiXkRERERERORIUdSLiIiIiIiIHCmKehEREREREZEjxf9TL3IgPH369OT69esnr169Onn58uVqH548ebL6P51z9DIjSMfWCOxfvnx5tY8t/jdoB9tz9gPt4F+QxN6IBw8erPdOvvl3JdRbqT51lvYJvtR8c+UOpf93ZYmflToGI6b+lcx5jO8SPrXxwh9YWm/6J9T6et2c7318OowjcwIoH3+mqPmrffxnv9dX88/1fWU0DocwP0f92e2Nxr+P2bZjLrIPmLvMvbnrY2XJPO3znTqIyzk/gnR8yLm07/NgV/tL2otNzufa5tE5D9te73a5vnSfc4yder2c8+XOnTvrvem2jFiSlzbNzYVt+hNyLaUcbcpcXuJLLzNirp+wPzc3lrLL/6m/8OWXX74j6jvf+9HPVtsPIeqvXbt28vz58/XRycmzZ89Orl69uj56w61bt1bbR48erbZAHBOkw4Sp+S5cuLDeezeNeh8+fPhOXfhx+/btlQ9TxN/2nmRYljjyV0btG5ETup5gQByTLCcG+ZhceWiBUZ6RrUA65XMSJH/ATuxjNxcKIL7XE2paIJ188aU+eNV65hiVIW5p+Q/JaS5ClOUiMtfGjE2/2Iziqw/dnznIN7rQYbu3AbsE0rr/2GF/qj1L+mSUJ3084pD6fxeq/wnEBXyr51zti+7DVHvIdxbjS3r1dcSU/9SBvUMcr7lrT/U/ofZBb2+tt17nwlT/sI1djrFDXUA/LWkHfUq+5F3SxzVP9tPOTXWO+nhJnZQjXwc7vWz1hf5hm3HCDvujccM+8ZlvI7qvaQ/l2KfsqD2jciM/GH/uk+SP7Ura29Oxkzmy7b1/xNzzQMAHqHY2+R3qPK9p1Mt+rQs/sFvPgU76DabaX+1Mnb/kofxoDJb0ca1jSV+kvkr3K3WF6gftwBY2Q21DLztFb0eI/9V+h3biQ70eVaq/gD/ko8wm+/jfy1Im1zvoZbexD/Efev6aFkZx1De6bozqH5UPPS3l6UP2R9eXXgftJ3BMXra1fug2ar/WtD5/SK/t7HagnttTUCY+jWxM9SckrfoMIzsdylJvPb86vT/DVPwuRNT/+PvfXm2X8Pu66l/yJuA8idBl0oyE8YsXL1bbShfuXWRjC+FfRTRx/cKwC5THdvWhM6of8JVyS3xgwiyZnEvAFhOxT8J6klbwLxcPfKj+1pOwU9M4abr/9EtuGuwnP/XUtCmmyhDqzfwQyQVu7iJVoW0ZH/LTXsp29tnmWif0mzDjiR99DtC2UZvIO9VW6pmaR0uIr+lX+oH+SQjpn2Po/6XgG9B/OVeB8an0vuj0/j/L8SVfzYtfpE/dVI/lfFlib8l4pb1AvpHdUX7ayHiRn/T0M/vELwFbfcyBPqx1VqZsx59tqG2v+2lLwJezmp8V7FMXeabmZ1g6P6fYVEftS9o5mhe9PyrE0w89PefKEuaeB7CTUNnkd7WV9hM38vU0YIt6qj8Vxo46+xj2uE19PFfHLn0B5O311mPmXuolcFzz1nOxjhkwXqN2B8oS5qBsyuNrtvhAfZkT8QlfKxyTJ2U7lIv/bNN3NX/3sfbtNva3Jfeb2Kbe9Fn1qY81VH/qfu3PgK2pMQr4kXtM6PWO2pnxp/zcXADmJTbYJv8mRu2ZYtv+TL4l/QOxD+TH/2o3jMbrPIgmX6LPf996e/BwEbh///766A1ffPHFKv7KlSurtLt3765T5iFvF9T9orYr8ZNJMmVzJOiBOFbv+0uIEVxwmHRMvlwUdyW2up2cEFMnaMrtAmXrRRw7ubDk5Io/bPPQ0H0Mm8rQjrTnEMlFCv+WXBTr3CIv5XrfjMam3zjD6KJO+djAPoE+JUC1j13qxw77tZ4lF0LaHLv7AFvpo/hCHdWX6v8h9v9SqD92qbOfR1NkTCHtTRu679g/pPE99PGijm4/7DJetLeP0Ry1f0L1eZP/ED/JO6qTuIz9yLfEBY6ZA/g16mtgnPo8qfO0Um3gJ3XjK/t13M5iflIX7Rn5dUzQDvqxjhtk7vQxnCO2KpQnnv6NzSWQt8+F7uM+iM/xs0Mcz3Ld7/i3hE11bIK5PDoviMO3qflNXTkPug+MByH+EF/PmUCZQB/Ufqg+UR5q+2pZfMR+ve6QnuOelj6v/kG1H2gH+QN1EUcZbIzKbmN/F+iXzI/0Kz7Vsar9U+n9HKbybwJfqHfUxvRTfMyYJp4xoa84Jj7j3cl1ly15ob6QAI5H8zjUOZD60w+U2aY/ieeY8rE1R2xD6u1zYdT/8aVT5/J5czR/KA+hXDse7t27d/L555+v4utJPUfydUG9T/h0H+E+gvqpe1R/4vnygInISZATZEROpH3ASVMn/ly9gUm+60Wwl6XuHFN3P/FJm/NpUxn2N53YhwI+0z+MP1v8Zn80HzhO37FNG0djwzEXu1HoeYELG2k57+jfXn9gLsZG/CFu6uLW27gL6ZOEuWtAvWFs4lD6v4K9qX6iLGNE+7C1lLSRQP8Qctzr+hDj28/nKQ51vEYPZkDZXcZrV2hz+qOGufOFMswH/Jxra2z1+TMCO9jNdYWQOZTj0ZhnbHuoYCN+nsf8xH7mzj7J/AwcE84S+rzXuQujcyhx2/RX8i09/08Lc4S5OwIfuu/sE7eNf3N1zEFd1DOqK/FT49XHg/Muc51tvT6RL+cggfO+nqeEqevZtuQ6QdtyLmc//bzpulOhD/BvaX7Yxn6o/vbrXfyegrxT16IOYxO7NeyLtIPrP3VxnDHOfCIt+TIPNrWR/iQP5ft8ynGfx/TLaP5iZ258tulP7KdP0970aa+b49TNlgCU6/70NtYw5/tZc/Ar9fV353UFu4pjAiKaOE7WTbCyv4n+e3egniWQjxcOU5/hz9VPGj8pwAaTYw5OEE64bSb4FNipE5d94kYnXH0Y7D7iS6A8IdQ0/J2a+NTZT/5NbCqTi9UhQ5+n32vf4ffU+NKumkbeXIjSHxzXvp+D8yfl4g/gC/EcM269v5kT6V/mRPxgW+uO/bQTW8nHRbZCnrlzYC6t2xvljb8h7T2U/t8G6sj5hA8Zozlqn8TnqXPyrMe3pwHpndH8/FTGC/CLvOnjysgP+rX2T/oLNrWRfJvalvFLH7Kd6nsgLT6kLcD+VLn43qnt/xDXn32DD/hW5wakXbtS2z/qS45pa+pM3yytd+p5gHbQngT86G2bgvybqPWGJeU6lKG9U3MwcyR+j9qwqY831THHXJtIy7yB6gf1VD/ZZ2wJlEka+6O+BPJWus1dwAZ9CNiifo7TZ3P+dPr1t5cd+U/+Xez3uQ1TfYEf2z5/hNH8gd6WXcBvQvyp8zH7tDfpaSeQNuUz0BeZf9iYm+uxQzsz9pRnP3Oij+u2/Zm5nv5Mn5Jvyi/qrGnkTR/EH47reTbHrs8Hp+HgRX39TJ3fnOeYk5IOC+z3uNPQP4/PH7tbCj8FyB/O6yDapyBtyUuHwESl3X1Cb0smXuywJW5kt05UTrR6zAkxdaFLWk62qXzYqheTJSwpEx8PDfqYMaQ/6COO59qS/IF2MQYZq96vHNeL+Mh26q7kQjjyh/Gr+SlPHPSH44CfU2MwOm+XXjhHpE8gdmgDIX7Hl0Pt/wrpm3yq7ZnqZ+j+z5Fzm/rPcnz7TTppoz6J/+kzjg9tvDZB3emruj9F+pw6428eUkL6rLaXduQ445ftpjp3Af/wY65v8Ic+rf1OW3pcwN/4XKntp9xZzs/zgH6hHWkL232MUZ0zI1IH9WdLXI43kWsE1OeBPp7sT43xLtR6AX93HTPmEufIqM34i92k0YY+vzf1MczVMcdcftJqH8SPnDPdJ3zo5yfl6/WXcsRhm/LVfqVeU0fk/MRO8jI/qKv2YZ8TI39ia9O1JWWpE7uUYwu1jm3tpy+n+gKqHfLlmpI5iR+13VO2sEPoxPa21P6HkZ2MC/T8gfZv8oE8lAfaWftkBH2Q/OxnrHrfbNOf8R9fSOM4dkf09qau+FXnDXCcvsKXke3U/SE4qv9TT0fnD+MxCKyGI/QJHBNGIrqCjSX59gGf4fcXAdRP3aP6E19fJiyByZOJ3snEXAITkZOQSbr0AkKZbeoAbHPijC5codvEp35ydXYpcwjQF1wkclGagvbQxuRPyMUOSBtdZAL9UcsmLIWx4/zpvhKPHeYiAZ+IYxt/q599fnFTqWFqPp8G2k6I7cyX+Nfb1PmQ/b9pLtOf9Bvn1KZ2dP8Zr/QN+zUtts5zfPt53El9m9p5COfLFNuMF1An/b6EtLeOQcYvW8KSeueg3+p4EtgnfnRtTzowLnU+40sf9/gXfwl1PEbtO4/5eVb0c5w+xE/8n5uj+4B6qY96et9sA3YYR0LmQfqUY0If5w42luTbN8ybqXGnT+L/afpnro4RtT87iR+dx5k3/TzM/Mq2gi3GCUjHRsqzrbZIy3lYz7sal37K+YdNttRDP8beVBsC6duC/TmblV3s7wLtJ2T8e73xt/Zh+oyw67xL/2eMuh3GnPSQ/LVM9jeRc2QTdczZ5pgt5Wn3Jqb6M/7H/hTUk3rTXsIhPB+chqMS9YgJVrHzB/L4HL8GxDBpm+BlQP+8Pn/cbp/gD35iu8In+X0Vn33i5v5q/hRMPCbX6ALebyAcEz+C+G1OKiDvppNnBBcI/M2JWEndOZmynatnU5lRPcfGXBuYu1ys6Ye0fcRoXHNh62CHC349L8iX0GFuUabWQT7GOg91U9QLIoEyozpOC74tuTmNOO/+r2B7Lg9p9Bt11/rxi74ndP85zrjgV3wf5YXzGl/qGY3R1PViirm8Zz1em9hlvA4N+qaPa0J/cATGdCqtU/uYca99RBr90zmk6w/l8ZOQey4Bm6P297FO3uzP+b4PqAMfev9tC+XxO3Z6vyZtE/RRve9Anwf7Bt/wuT9HQcYg7dqVuTqmYC7RF3WOsE8caVOQtvSayfnBPGWMKviac23JebsE+iD1YJvjKfBpql7GoraN4/Tr0nHaxv4+wKfRmFFP+qHPc9L69W7b68sIbFI++WNvjjn76fPMO5jKSz1pL9u0l7LsJ20TU/25hLm2fujng9Nw8KIeoZvVeAQvQhlRPvpL98SRtgnyYSt2CVDf0OwL6uqf21NP/tJ96mefuPjAxMhJtwQmYM9LHAE7CUzCqRMNSB9N1Ep98OSEqhOYC0ytbw7K5sbdTx7SYottHZt+gwtzZXLBOSa4MObiOEe/ubNPHyydO6OLaMaFm2/ve/qx33gSX/0I2MYO+atP2Eg9I5b6P4KymYPVz0D6pgvvh+z/bUl7qZuQfmXs6HtC6khezhHiu+/E5TxKG85jfCmfNowg/1w/HdJ49etZh7qWjlcnZXuY859+IU+2m/IvIXamwpR9fBjdg+izlGFLwA6QFjLfah3nMT8r2Ko+dSibeVbHdwrOt+p77yP2iduFnMsJU9CeuTZNQdtimzbQ31NjvLQd5MNW93sX/7aBekfjXs/F0Xm5tI9hqo4paDPXhdrP7BO3qT+WzD3g/Kj3eUi5bf1dCvMgddKmXgd9Sl+P+hvq9ZW82CIOW/VcmprX29iH2v+UnRtz2pL4bgdIr/VynDJQ/SVfv96xxR/auXSMQ/zOmDMO2MPPUV/Udk6R8vg91Z8V8icfZZhjUOMrxMeHJf05gnYuufakXwP71EsdS+j9yHHKT+3vkwuvWeIu9P+Dl39+/9MffHe1FTkrmOBcaObgBODErCfdEpbY/pBwIaFt+MiWYy50hKRxoeg3XtpF3OiClovT1EWSdBjZrZCXCxCh2puzv4nY5ILONhd1oE2Q9ldfN4E/2ORGlDlS96mLY6j9lj4+xP7fBG2qD0i7gA2oDxOngfYtHV+gL+iHjBMwTvELaj9lTA55vMg/yrfLeKUv8G9qjOo8Tx+kf/oYQM0fajuX1jVFzTPKT9yoTfhAqHHJW+fMaUifLJ2fHfwhbTRXABv1fkN9uW9lbDKP4kvqIp183TbliZsaE5HTwlzM+V+vk8xP5nyNq5AOU3OzXo9yftXzA8iT8yHnQLeXspDzp9fNeUIYQX7Yxv5SqDPncL3e1f30I6QvaS+h+kKeXBNG16Btri8Qe6M2p7+JJ732X+Iq3T772B/11cgXjhOmxinE39qHdX/Un5B6c//jOH058inQr9VOhXLUO0pLHTCyuytdfy/5P/UXfv7zn8/+U/S/8PAXq62i/i1Z2a+w8r+vgfxUyYnRL/YVLgKcNP3CNMfciSoichYsuZ7J8cFDJPeS0cP2x0oVOyEP3IfIsfkrItKJqP/Lt//oarsEV+pFREREREREDoBdVuqP6g/liYiIiIiIiMhbFPUiIiIiIiIiR4qiXkRERERERORIUdSLiIiIiIiIHCmKehEREREREZEjRVEvIiIiIiIicqQo6kVERERERESOFP9PvYjIOfD06dOTS5cunVy+fHkd8z4vX748efLkyfroXSh78+bN9dG7LLH94MGD9d4bW/Dq1avVNty4ceMdG/hC3FJqHSPwv9b9+PHjb+KW1EX/wFw7wy7tpR+vX7/+3n58o35sxR6kDX3/tGBrl/GZ6kf6g/akTZWzmj9Q+4T8+Lepj+hn8o58nWLJ/AnYxq+p/hhBGfyayk8fEjqZ39B93MZn2Ob8qpzl+Ial5+boHFoCfUWZqf4fnS8dyo/m3i7zAercHpFrSJ87S8Z903wD0rE1Ym6sljDqz25z1A7anDFmW5nrX/ISpvpl6vyq4FsvP9XXo+vhoY5X5lnKT+XFB9oQX0d9dufOnfXeu2AbTjNnOiObo76c65fqby1Ln7C/7XVkG5gjU/11Huzyf+ovfPnll++I+s73fvSz1fZDiPpr166dPH/+fH10cvLs2bOTq1evro/ecOvWrdX20aNHq23oZSlH+SVcuHBhvffmJlltYxPble5XrxuwUS/++M2kDJv8Y3JRvk9gTmLs9IkP/cTpF+mpG1y9udeL5Ogkwh71dTun8aHWT/l6QajtzT5sstP7bi5tilEZ4paWl0+HOjc3Uef43I213tAqUzfEeu4G/CKQxs2ebeYudtivc7k+5CTUhwTy1vMu+aG3pdcXOIc4n6faV6k26/kYuj/btref4+ShPfGttg9GPnR2vT70/kjbsdX9qhBHWp9/9R5RwRZlOvTVaecPcX3OdKgDO9DvD520gTy7nF+dUf9NQZ3p9zl6v9Ryvb7MJ/Ik1L7CxmnPL/Kd1fhWuj9TbNPngbGu/bRteaBefJvzb863qX7s1PO9ji/lM3ZL+mBqPCtTfb50LOboPsYm/qQtNU/OXeJ7GvQ+4HjJOYyNUTu6vSnwgzy9rtH18BDHa9Rv1NX9IQ9+BvJ3/3s76nH3YVObt+n/qTpH9PRaT01jPNmf6+/TkmeTD0VE/Y+//+3VdgkHvVKPOH748OFK8DKA9+/ff0f4Ipxv37692rZmrMrevXv3mxsiZcnXxX+FOhDbVaTnQoCdUTrwEqCK9up3IM+9e/dWPgF2yJ8ym+Akhn4C9XhOACY+2z4Z8Z98OWkpS76cJLko4FNOlHqiU76fRKmvtuM0PpAeW8TnOHXWk6ye4CM7qSftSrm5tCnmynzoE18Onz5Xmc85Byr1fOtUG4E4yhBfyzAn63kTqJt5nH3KJE9NC4mLeCU/xynTfUq+KUY+hVH7KtU2fozydhvbtJd+rH0IyYNdyqV8rk2kzdk8DWlLbGZuUBf78SvtzX7vg1xD+z6Q9yznD3a2uTZ23ytzfdvbtQTGkPqmymGTPJvo7et+YmM0XpC8Z3V+neX4ckyYg/zblKG+3j8EfOhj0ds0B+3dlH/TfMj5Fxt1XEfUsUqebPu4Qp1v5MN2bzPU+dZ9ClPx2xAf6f/4A4xF2t3bUftkLm10vIltz8fU3/2o14q6f6jjVX0MPY56ietth5w/2O7tqMfdh1He5JmCspSJPx187vHkT53Yz/WGffoVW9mvPmGH/eTfhqVlmRP9+n6e7LRSfyyiPsdV1CPUAbFOnghm6KI+LwDmVsNHYryCMO+CHrBN2XTllJ1afltR30/a0G/OuWGSn7hclIDyHOcEIg8nSXzYNNFH6d0GnMaHTq2zXpw6nPQE8o5spl7KT6WN7MKcPcqkvbWdIsyLzI0pmDN13jCHmWsjmLt1DpKP+Udgn7Jh6kaEP6mPMpwvoaZ1P5KPc4H68AU22YCcV6TVsvUhagryV/vdZmfOn7k0ID328ZG02gfQxwAbhCm6/9sQf+Nn9Y39+Bf7xJFW87PlGD84rv1PWY4Jte1w2vkDpDNf6K9uP/T+4bpKmSlGfmGXMtTfwZ/qU4Vy+LX0oS3twd/04Yg6r2kf9VMX2/RZ6g7pg32eX5TlmMB+8sM+xrfX1/2BWiZjVG12Uid5c4+tdVbSJubX1Hikn7FZ/RqRvFN9k/bRBvwbgR/9+oD/5Kd82tL7tpO6us+1PyE+j1jS5jniY+qMT7QxbUmejFcgT/JVKBP/0ydAHSPqWFAXNslLndUPbJFOe2OftOQnLnk5Jh/HbMkTkvdQxovyUG0AdgjVp2477UqfcF1iv5ap7eptGLW5xi3pox5He/CLOjIO8RN7xJE/9wH2SU891R55kr4tS8seo6j/fevtwYOArxdLYOUbkXzlypVVehX1nVH5Si5IU4KedNJG6YnPy4UpqP/FixezeZjI1NVvVOxzAjC5c9Jlv+bjpKBsTpB+MajkpIKc0LucIJ1dfRiBjfiEj1NjWPullgmkEQ9zaSM22WOfi81cO+XTJOdxP9eYK8yfnHeBPEtvIrm5QeZ/6hhBffix6ZwE7OQcZr/7OUXsT1H96+2ceijYlW3am3YyVslLm/Gn+jzyJ2MMS+oK6ael+TeBn7FZr1fYp31Q489y/pCXulJfH9cpyD91jU/bKtSTceo+8UA25yflSE/b50ie1DdlFx/rnBn5DKSf9fl1luO7Ldjm3KH+/jKPuD4/mAdcH/Cl5w+Um7tWps56fs6RcU1fTZFxSz/NzYfQ+5YyaVf3j7yk0ydsAX8o2/3a1AdzYA/2MdYZL/xNny+F+rsP2EnbK8nLM3LK5NmdOtMmSJ9B7V/K0ccwNS8OYbywhe1+bgB2SI9/gbyUIY5x4Jgt+brfUNu1BOxFn1SwMWoXvtR+i28h/hCfcSQ/9dBGfK/5R1T/Uw6qTUgacUnjmHiodqgz9dJH+AE1fkR8n8pf64Bdz905Dn6lHqEcqqsMCEI9K++jT+Br2f6b9g72CFOf529KryvvUyv1NQ/72Av10/wpmFyETEImDpMykzgnedpZTw6gPiZzqGnd9ohePnBips7T+NDp7aNs7AJ15eSpdqgf6smUuDBKmzpZ5+wljnaexQkqxwtzhDnJ+ZG5W280mTvZkj/zCnIuZo4D9hJfzyXmHvucE9kG6sUH7LDFBunJ28k8rv5nnzKJA2zGn058IP8m4jOhnuPdPunEVb8qxKX8tu0F7GU8Ulel2gfydx869dpUSbl6Xamk7fEJfwAf2Ceu9w+M4qDHn/X8gfhO2WozYGvKpxHVNvnIT/nav4mveTtpI+XwcdRfFfzPGNAH0Mc09aZNHBOmxot6yUt69uNT6uhjVkl/dj/CWY9v9R9G/mT8Qz+G2sa59ob41e100s5N+SB58R0fRz7U9sXPTXXkIT7p2S5pJ6St9HFtM/HYWELGt0M7Ycr3+JgxS/uxlTb3dnCMn/RRt0tfUDbXz9p3aQ9zi/pIq3Y5Zj4vgXJ1DnYfwyj+kMYr17apdpOW/suY1DqII63XOzUfKA+17yrpm01U++m30Vyb6tPuR50ntUyub7keZY7U61Pq62np2/hJ2zjubSeeONJiY6r/YC5/ryPjFZ9GfJQr9fVz9/r5ejorsN/jIuQR/5tW6pfAKvsUpPHFwDZsetHQYTIwCZgswKRgkgSO66Rkv8dlUjHhCTVtCfhbJzS+4FPYlw+MJfGjtEBaTgh8wFb8o84Rc2lTLClT+0QkMG+Yl5mnzJPsc+70eZW0Gl9vBPVcIw7bMHXDpb6puTm69lT7+JeydX8E6ZyzS+jXEKC9Od/7dTykjbU/6kMCVP87c+2t/qdPqafWBd0+9XcfloLdTdeVbcEegTakHZX6YEE4y/lToc4lUNfILtT2MF7UNbJL2qb6sFXzzM1v+obzkjxAv1F37xtsko/+T3qdO51a51z9QPq259d5jO8mn7Y9N7ovU35D+nsfbDMfco5V39LPuR5kvBgD7HJMmSn6+FI3/U889HnEcdrOmIxsp+4pSJ/zaVuwlfmE333s5q6VaQ9l0vYKcX2sp87/Cj4RGJ+MUYX6sIH9Qxuv9EEtl/SU7+2P7/Rz6qE8bcc+foZRXIc8GbNR/1PX6DoxIn0yGrfen4EyU3MGat20g/y0mS1h7voRav4R8RX7c30VRvlHdbBPOm1fYncpR/Wb+qx0I55JGxHRT3r9TT1liZ9bDZ/6zXw4zW/qe566ar8N/cKUCT91UgB1MGlIJ38mFicX8bHBCZC8IyjPhK3p1Isdyu3DB+h5AvFz/YX/XHg4geinmje+4+NU2lS75+ylzCbf5NODOcMczjlSyfxmbmXukz/7xFfq+ZKbRkhe5iL75M05WcGPpLOlvkrqiP2cz/GJbdqUeT/yB7Afv8gf21NUOzlHOa59AtXmiG5nm/ZCrY8y2KvQ7tqvpMenEdie8rX3ZSdtiU+pJ+NMXG0v+Wgz1DaFmrfS7eITeU87fyC+s+35gbT0NzDf0oYR/cEyvuPvFPhTx4Ay1JF62Z9qL/6kzrQ/5XJuVNuBfATqruXqGMR+7LGlj7C3z/Mr+c5ifCvVnylG84D8vZ/CVPthLg1G9kaQh7zJx/6of/rYwKY6KENazxfficNetVmhfNKm+hUbo7RN/TNqTyXl0wbqAfKnLbUO9pMv7YSU6z7SJ8z/TeT8ww51zEG9qRu/qQNG/TDqn0Mdr+4P+1DtEFf7Bz8yh0dj3eNGNtMfnbwMwS/yUE/vk+pzrSs+Et/LQPej2ql9xNxhv9rI9ZQ49uv9IvoAallsE0Z9X8vAqM7KVP60odexyd4uK/WIzHfgX9xV/vS/+NdX4UPwtSh+/bWIXh+t1PDq+N69e6+/nkTr2LeQn7TsP3r0aLUfUn4KyvYuIS522HYb7BNX6+p+j/Lgf/dvCb/3e7+3KkdgP/zmb/7m6x//+Mfro7eQj7Ts/9Zv/dZqP/zGb/zGN3bIx3GFuJTpdUL8gX34MEoPqQfIH5vAfk2vdtguTZtirkztA5HAnGRuMF8ydyBzdzSHQ8r0sv384jhx1R77nFdL6q2M4pnbmd+kYzehz/vUi0/xnX3iSBsxde6M/Oz90an9s0t76/Gormof+nFlk69LwHfqmKon8ckHdUt8GNkgLvG1n9hnzKr/Sa/5OlP9mXKVOTuBudHLVUZ9PNfv2BrNN/zoviQf28z3GqD3cZia06MxIG/y40Oto9uhLuKxk3ayT9zID9JSJ+lpY+zUfkp6zdeZioe5fg9T5dOGXj6+j5hLg7l2BPKMxopyvSz1pd/mQm1DbHRf4jtxpI2ofm1qa2dJ25eAHeqeqj/xqa/WO+qb2qbRfOlxtd6aNurLWnf8hrolPlTboZYf1UFctVE5y/Hqc3TkR4/DB8r1Mah9WPP3vofuEzaxAdVn6ultxlbsVzvEz/XPyI9Qy/U6KRPfeh3UnzSgbK2j9gvE31oGKNf7vTKXv9fBPulzdP3d9fmIz74WmwcNq9uskOc386x+T/3+nDjSpqA89qagPHlSHwHytovt1wL9HZ/YJy55Qs/zdV+/l4fV+uQhAG90eNvDdkR9o1P3p96o5S3ZFLwl4m0RkJdj6k+A+uZujtP6wJss2s3buOpD+gI/yANpe/IQX/sXm7HDdmkafoz6fq4MdS/tI/k0ydwh5HwbkTzkD7VsBTvMO+Zmh/ODN8Y5pwLn4Vz9NS/71Il9Qsox97FNyHmYvPhKfPWJfeLSjlpH7G9L6uuh2oZt2lup/b+JkR+EbWyMwDd87/0/gnHo/cgxPky1EXtnOX86lKv9M7KTPss211mO59qyhPRnvXYH7lGk1/tU8mW+syUf+wSg73IOAP1F20Z92qG+5CWkP1If4TTnF/bOc3xPQ9qA/VpH+nMUSDsN1LPNfKDP0m8JfU4Q5p4FsFdtToFffYxp89L+p2/qvNyF9A91E+bmBXXRD5X0R8qzX/t6k4+0l3K7gN1eluNtryGHMF6jfsDuKH+Py7WEscl+nZ/4jX1CrrE5JgTq45iy2OhgmzTypM3Vx8SlP8k7N5+qH3NgP/koE9+wH59HNkhPewH/a519Lu8DfKt10A/1fNgXB/35vUiHk2F0UdkHXAQ40foFdBNn6ZMcL7l5jW6+ubkx18iTuNxM+gNr8nBT2HZ+BuY3drHFtt64mMNAHIF0/DnNTSdtiO+dqfMmfQPUn/6j7disfdap/bNNe0Pqxq/qf+LxpfbJ3Hhsav8mev/U6xMPRBx3f6D7FN/xY8rXJezanxyn/nouxF7yYyPjHXshdvPwHDujMYI6b0LvzxH0HfX0stD97eAb5UZ93McLO/jax24batv3wS7jW1niTx2jEemfMHd+TaXRjggG0qf82WY+AHa7rbk5kTGnjviU/uvzoVLPgw7l6vyvpA4Y2d2W3j/YZ+yof8p/4jIPpsY5/td+q75PjVmdX9hOWcYIe/Gtl+3zhHwE8tX4tOlQxivpdQxoC/3QfSdv+pMt+WqetHfkxxy1nzu1zk7SqC++sE98fEr7aDd5qQt622Cu/z9mdvn8/gLL+ev9Id/70c9W249J1GdVvMIK/ac0WY6VXAg23Yx3gYsKFw0uKkuZu6CLiIiIiMjHAc/9HV5EbKMdlhBR/+Pvf3u1XYIr9SIiIiIiIiIHwC4r9Qf/m3oRERERERERGaOoFxERERERETlSFPUiIiIiIiIiR4qiXkRERERERORIUdSLiIiIiIiIHCmKehEREREREZEjRVEvIiIiIiIicqT4f+pFRETko+Dly5er7eXLl1fbOR48eLDeOzm5dOnSavvq1avVNty4cWNoi3xPnjw5uXnz5jpmOZTD7uPHj1e2r1+/vk45PefV/g/BNm1bSsaiQhz9MTcu9BPjR54l4/f06dOVzTnfHY/zGw9YMia0kfpHULaf/+THl+oDfk1dJ+bsH9JYB3ylbZmfnVH7mdd37txZH02z7/nE+BIqmR/4SH3Vz6n6R3MyjMrM5d+GXf5P/YUvv/zyHVHf+d6PfrbafihRf+HChfXeycmjR4/eOzFqOmnkqdy6dWu17fHXrl07ef78+Ul7p7GKu3379smzZ8/WMe8zVTaQfuXKlXfqJD/xFeq4evXq+uit3UpvM+3hAhEoP+crkJ8J3E8q4ph8sU8+JmI9WUd5RrYC6ZTPhE7+gJ3Yx25OCKgXyF6upgXSyRdf6g2x1jPHqAxxS8uLiMjhUB+y6vU99HsJ9xEC+XkAZJtrP7bYn7oXkE7Z+mC4hE0Pibnn7nIPOs/2L6H6QJuxvyu1bSP6M8WI2v7qW+KJw0/6BFu1r0bMjWXADvk6tKOXPcvxwC7PTFD7YVeOaTxq2zdB+bRpro2jumpcbU/o/T5lf1PfnjcRyLVvRmxqP0zZ2Heb8Zdrc+zS9+xXUQ/1+o3/5OtxfZwrPX0q/7bnX0T9j7//7dV2CQe9Uo9gr6IWQRuhTMdwXIVxOiv5I9BHAjzCG7r4XiLqKUs9fVBSvor6ka/Q24fdhw8fvpfn3r17J3fv3l0dY2dU7xzUzwSCOtGYYEy+2CIf6ckLozykc9L1Ey95SU891SYnECdZbJF3ZAcox0mVNMphv/rPBSOCvuanHmwnbYq5MtW2iIgcPvUhkut6vV8ErvM1Pg9+2adc7oE1rT6QbQL72Jl6qO3U/Gxzr6v34iWcZft3gf7K/T79x/G27Qr4A0t9ykM7bRqBT+TBXvwjb8rhZ8ZiZIM0+jNtHEE69roNxmrUF2c5HnXssZW27coxjkfofYHtkc05n6sN4Di+p1zv315myv5cvecJY0B7aBchbezzFnr7aedcO+j3zKEpUu8uZFwBn0L1kfSEKfqYAeXpmw5zr8dTlvZXO/iGjW63stNK/aGK+k3ieiSAO/fv319tsUW+CGOgPMfkYZuLwFJRn7I9X0Q3gxpRjzDvgh6oC1sZgqk21fK7inomMZOIbU4uJhSTLLbIxwSrk3uUJ7a6D+TDdk5m6DY5TrnkH53sqWfK15yspPc06OU7m8pgHzgWEZHjYNPDMNf9+iCV+yLMpXV63m2Yswv9vrkN59X+XThNuwD/YGm/b+oL2ocvPA/s0k7s49PUAgBp1E1gP/7AVJnzGg98ISztyxHHNh7YJ8xBvbXu2ByBr/UZsr5Uw4fRS71eZs4+/TrVV+cNY5LzF59Gz9jEkQ9oP/v0N2XYp5217aRRPteD0fwgz65znrLVNnayxR9C6mIf/6HPH+Kr3xXaVOd/6sRub18FPwhz584uov5g/1AeAhbRS+ik47v47bDC/fnnn68GI2U6iGiE8i6wGl/tTvmKnyNfEz8qV8H/Fy9erI/GMCG5gLCdgskzdfHYFiZpTkCYqzdkgu9CL0vd9WTsJw1pcz5tKsN+bZ+IiHxccL3n3sK9k+2+ie0auAfP3ZvOk9O2n7ZMPVuNGN13PyTdH9pCX9Q2zT0z8YwQoTAiAgjyzELc1IP8eY5HfYY6FM56PIDnaUQb+dgnsE8c+x36iLRR6PmJq+M7KtvLzNnfND5Lxpv+S8icSr8S6POpOMh8TD3UyXGd24G2pf3YoAxjkfLEsb8v8G3TeYK/BPxIG+JP2kIa844+Zy6MqH1SSZsI7BNqv0xd76hz0/juwkF/fp+VbCZK/USewSDUuA7pdSV99Kl7VujJR12ks126Uo+op2z84OUA8Qjw+LfJ17ryPrVSX/Owj71QP82fgvxMVCYQJwCTLicdkxq7yUd8nYSjPNgiD7bID+QhnvxM1sSTn7jASRNyogXK54Tq5bBXTwDS41NO6pSFUVxlSRlO0uqviIgcNtxTuLdwv8h9qkJc7h3k45i8lCPU+04Y3Qe4P3Swk3tfJfe53MPwKf6NGN2LKdPbAtyv6n3svNq/LfGp9sGS9oT4lj6JnTl6v3fqGFIn9un3+ArYGI0peUkjH+0Y5anPMfRhymQbGA/addbjgT3qAPyt/fIpjAfxpONzniEpxz6kndn2PonN9CFgr9ZFWs2XNldSb7UzR+bHttCf+FL7m/akXyH91uNG9dXnbsqMxqK2fxN1PCB91f0dzT/I2Eylh5HdtLmX7fWRhzZRdlRP2jvypfcFdWbMia/+jPioVuoBccs7B7aIcgT0UurkA/Zz4nYixDetmHcivilHwEYX5DC3yk5aftu/FF4Q0C+ETYK+w4RjkhJOQ07C2CJMXXToe25CBC4ytW4mdtL6CZM04nPCjKDebduzpMxUe0RE5PDg/pIHKQL3jtxfEuau6/VelTB68OLesa3t0zKqj1Dvm+fV/m3h2Yt6q60l7ankYRsbeTA+LdRHm7FLYFz7M8oU8Sf9OSpT24td+oFyERlA+akx2fd4UDZ28KE+E9OWWk8C8SOOcTyAdmOTeoD8aeuob5PG+RTYT3yF/ozP+APYxC/qy37iY2NULyTP1PyYg3ZSvtvmuI49tkdxgTjak3HIPmPe5xBx2Eo60A+UI6RPKtU+ZQg5JszR29aJ7Wo3fsHUHKnQxszFTcSfWkeF9Ix577t9cRT/px7hioClAxDPnBzZH0E86axi8zKAwPFcGVbIWaHfFnzhZcMXX3wxFNikU+eo3sSPXgQE0vE7F6B9wAVpatItmbiBCcpJmkm/BMpsUwfkQj26IIRuE582nfC7lBERkcOEh6X68L2Jft+qD5P9AbAyda9Yem/jfoaNbeD+1/0j1PviebV/G3h+oZ5e15L2BOJqf9PGUb5dwRZtZVyWiCjGruahbaO+Ij5jQuA5jji2qas+2/U+6n2zj/EI+FPn66cwHoDf+LukndtAX6Y/8Zl68AnfsM15kP0OeSnTw1mQPk0fpO96XGB+Vp+6r3X+Uo5+Jx5bQJ9MjV/OjwTKEGpcPycq1FfnYSe+V7vxq7ZxRMaJbR3Lylzb6Ic53/Gjnn/74mBFPWJ27rfuCHY+V68grjlxENgMZlazExDPpI0gjTLbfA0AlMnn9nVyV1hZx9cq7NknbuqzfFiSZxeYhEzSfnEhrl8IOZ46aYhnUm46sSrknToJ5uAEwN/RSZC6c8JlO1fPpjJncbKJiMjhUh8m8wA4uo+MHuZGcRXupREQuXcC2yX3m/4AnDD34Lgt3fZU+5cSQT96PljanvRPjU//5b69C5RnLOJjHrKJYzsFaTyLVH/oI3zqz1TAuONn7QPyU18XUJ3eN6cZj/gd2K+2PpXxCNhPG6ee3beBOrFFvfic/uUY36gj+x3iO7Rr17EGbDIedUzwKX2CbXxJ//W4CnO49yXj1PVC+hNIP2vwdaqPaAPjQMDPev2FjM1ozqatlGGeAHX1PqCOOnbxJXHVt9rPwP6U76fhoP9QHidBVtoJrIRnVZt9xG5NB8pM/c6cONKmIH3uU/kpqHPuokAav9FHoMdX9onr5XoeXkb0PLzsSB4CZAL3k3GK0YlLHCETn8DkJG4K0uukHsHJHXv9plRPNMIclM2FgjrryUhabLGtfUaZUb/MlcH2pnaJiMhhkntiD/1ewMPV3ANoz4+NPOhVyNcf0nJ/oY488OahF7jP1Ie73Cuxlf3RQ+cSzqr9FcoSRuA3ZdMHU/XPkfKj/iaOunftH/qcsaj3/cSxHT3b4A991Z/JIM9UtT/Ii42R/6kr/RTOajwyxzIO1DtqxxzHPh6VOi/n+jt5yB9q2UBdHLPFZ+j+bgP9mDGbYm68gX6pvvZnfMpOxQH9QhztSFzANvGk0+aQ+lJ37wPatesc2YbMnVFIG/Gt+j6i+s8cr3OFshmj2MmYUK7mTb708y7n3xIO+g/liczBicEJOgcnGifY6CY0xxLbIiJyOPAQycMS1/v+MBnIk/sB9wfyk5dtfXDlHgDEEUinbL8vpE7Y9p5BHbG/D86y/SOwRdom8bErU4KtQp60pz5Ez1H7J31AO2hP4qiXPqBt8WHJc8Fp+sTxONvxiNga9U/EWPWF4/Q1PlWSB/tpb8BfAnlIpz72sYcd/B/5QJn0WW3nFGc93hX8pj7a0dsL8T39l7yEmg5T7U8fp8xpoT7qwheodfZxrXXia+ZCh3jsECjLNm1ln7IplzZPtXcTu/yhvAtffvnlO6K+870f/Wy1/RRFfVbBK3wdsOlEk/MhJ8zcRT0n4DYXCW4Uu56EIiIinwJ5YJXDwPH4tHC8P24i6n/8/W+vtktwpV5ERERERETkANhppX4k6n/lV35lfTSmFRERERERERGRHRh9IV7ZpL8n/1AeBUdBRERERERERPbHSHsTlnAU/6deRERERERERN5HUS8iIiIiIiJypCjqRURERERERI4URb2IiIiIiIjIkaKoFxERERERETlSJkU9f1Z/FERERERERERkf4y0N2EJF37xi1/M/p38P/eXfr7a5p/fnze1IY8ePTq5efPm+ujk5Pnz5yfXrl1bH73h2bNnJ1evXl0fnazSyRdIIw/cunXr5PHjx6v9CnVQ14jY6/9egLjbt29/YxuW+DcFfr169erkzp0765g3EPfkyZNv+oF8N27cOLl06dLqGEZ5RrYC6ZTHTo7JH7AT+9h9+fLlah+I7/WEmhZIJ198efDgwWoLtZ45RmWIW1peRERERETkEPnOD3+y2v7Vv/gnV9slfPZrv/ZrJzV861vfeuf4Q4KgR1znf/QhBgP7CGZEctIJxNV8UG0g/BDzPR6yPyXoQ7UxxTb+TXH58uWViN4H2KpiPFQRXqGNCG+EfveBONII5KvUtJH/tJ207Cc/2yX9MlWG4yXlRUREREREDp0pfT4KB/ubela5WdGuorGKbUT1aNWbuDnB/fnnn5+8ePFifbQb+ISNORG5q38VRDGieyTGtwVbT58+XR+9hbjr16+vj96HcrsS/wN1IcQh8bHPllX2ubZuKkM7Rm0UERERERH5WDlYUY8YRtgTOohp0rtghsSPysH9+/ffW13ehYcPH06K86X+IVL5bLwK3w4ieF+r9V00z9UbEMkR0dvSy1J3jqm7fypP2pxPm8qwv48XICIiIiIiIsfCQf/1e1a1+Vx9JJ6vXLmy3nsf0upqPOXzhwYQ9Hfv3l2n7A7C/N69e5PCfol/CFQ+G+9CtUIaK9D7EPbYqaJ3bpWeFxO8cBjlwRfSkl6paYjsKfsjgb6JTWVIm3spICIiIiIi8rFx0KIe4czv0NkiyFllD3Of0JNWRXV+O48IrzZOCy8HqGv0VcA2/m0CYYxYPa1gjSCOLcKUSOblBy8cCAj0Wnd+007ooj1pxHfBX9lFgC8pM9UeERERERGRj5GDFvUB8YwoZ/UYAY3gZDsS04nnRUAHO4jpfQp7PsPnr95XdvVvjrnP8LcRx6yeI7ZZsZ9aRe9s+ix+BLYR2HPCvtusn+dPsUsZERERERGRj5WD/kN5c39QjtV3Ps2vwpl94ub+ej1prNjXcqcBcY6I7y8KdvVvCgRyBHmFuC72OZ4SusQjjLcRw+TdZQWcFxH4O3ohkLqxXbdz9Wwqs+2LBxERERERkWPnoP9QHmI5v4UnsNKeFW7S8pv7pLNPHGlzRHDvi3yGX1niHyK0f9o+Rz7DrxBHyO/YN/2WHUjfJOjzm3oC4ryK7fq7ecIclMUWUGeEOOTrA2ywreNGmVG/zJXB9qZ2iYiIiIiIfExceM137YWvvvrq5OLFi+ujt//8/qc/+O5qK3IaEOP85n4OxDwr/Aj4bVhiW0RERERE5FDp+rvr8xGfkakG6MefIlldryErzrI7rKxvWt3fZcUdm3XVXkRERERE5FiZ0uej4Eq9iIiIiIiIyAGw00r9eisiIiIiIiIiR4aiXkRERERERORIUdSLiIiIiIiIHCmKehEREREREZEjRVEvIiIiIiIicqQo6kVERERERESOFEW9iIiIiIiIyJGiqBcRERERERE5Uj7jn9nXAP34Q3Ht2rWTCxcuvBMeP368Tn3DrVu33kmnTGD/+fPn66O3TJXp8QnEj9JrXSO6/7Ez5VcgX/KO6HaXQL89ePBgffSWV69evdOn7BNXGeUZ2QqkP3nyZH30Nn9CtU++mjaqZ5QWsEVaqPl7O6YYldmmvIiIiIiIyD6Z0uej8NnFixdPaoB+/CF59uzZyevXr78JiN379++vU9/w6NGjb9LJv4RRmRoH2Sc+bFtX9b/amQKx/+LFi6GAJQ0R//Dhw29sEja9XAiXL19+R2yfBmy9fPlyffSWKSF88+bNkzt37pzcuHHjPR+II41AvkpNG/lPP5GW/eRnO+rDzlQZjpeUFxERERER2TdT+nwUju7ze0TsvXv3Zle6j5kvvvhiJWwJ/eXF7du3Vy8Jrl69uo55w9IXGYhiRPdIjG8Ltp4+fbo+egtx169fXx+9D+V2Jf4H6kKIQ+Jjn+2lS5dm27qpDO0YtVFERERERORQOMrf1CN4Wc3+GOGFxeeff75qY10pzkuMLugriNRNn40jgve1Wt9F81y9AZEcEb0tvSx155i68adC2pxPm8qwv48XICIiIiIiImfFR/GH8upv3fvq9hS7lIFty9Xfv2/Kj4hHtBMQ9Qj5CHteYly5cmW1H2KXAAhUPhvvQrVCGivQ+xD22Kmid26VnnbwwmGUB1/ym/a+Ml7TENlT9kcCfRObypA291JARERERETkQ/NRiPr6O/e7d++uY+fZpQxsW67+pn5TfoQvYj701fpO7G4LwhixelrBGkEcW4QpkUxbeOFAQKDXuvObdkIX7Ukjvgv+yi4CfEmZqfaIiIiIiIgcAkcn6rN6XcXvx0Daxef3WX3nmEBaBH4+wz8tc5/hbyOOWT1HbLNiP7WK3tn0WfwIbCOw54R9t1k/z59ilzIiIiIiIiKHwlGJegQtn7Mv+Svyx0b+QF5W3xP4FJ80oN2b/h3eUhDIEeQV4rrY53hK6BKPMN5GDJN3lxVwXkTg7+iFQOrGdt3O1bOpzLYvHkRERERERM6bgxf19Tfp7CN0+yp9/Z07odLLh7kyc+xartP9YoV+9Hk+caQB7eZz/lqWkHREaP+0fY58hl8hjpDfsW/6LTuQvknQ85VB7CHOq9iuv5snzEFZbAF1RohDvj7ABts6Tygz6pe5Mtje1C4REREREZEPyYWvRfI7P8rmn9fzv+7Cd374k9X2pz/47morckggxvnN/RyIeVb4EfDbsMS2iIiIiIjIvuj6u+vzEZ+RqQboxzJPXTVPyGqynC2srG9a3d9lxR2b/YsQERERERGR82BKn4+CK/UiIiIiIiIiB8BOK/XrrYiIiIiIiIgcGYp6ERERERERkSNFUS8iIiIiIiJypCjqRURERERERI4URb2IiIiIiIjIkaKoFxERERERETlSFPUiIiIiIiLySfPgwYNVePr06TrmePD/1IuIiIjIufLy5cvV9vLly6stD9HXr19f7X8IeJCf4+bNmyeXLl1aH73xF9+Je/LkycmNGzfWKduzpPzjx49XPozAl00ihL6t/Vv7u+7HF8aHttU2Vx/m/AmjPHNtrWmvXr1a+TA1J0jH72rrtONQ2XY+7Ert5yn/dxlf2Ha8lkC/Y6tD3dVH2pP6iOc453o/9/c5bkvaOdUGwI/4FfAvPk9BmU1zcZt27vJ/6i98+eWX74j6zvd+9LPV9kOK+lu3bq22jx49Wm3DtWvXTp4/f37S3kt8A+lXrlx5pxz5ia88e/bs5OrVq+ujN+UePnz4Thzlbt++vcoLU3XXfPg9mjRMtt6WELvh3r17J3fv3l3t9zT8iz+B9CXtq3YAf+pJQJ5NfRAuXLiw3nu3bb391d8lPkyBTU7IO3furGPeQBwnTGyQj5OnXnRHeUa2AumUz0mY/AE7sd9P+npB6+VqWiCdfPiSfRjlrTeb6sMU1R6kvdhZUl5ERGSf9AdcHvynBFyHey1h6gG5igsetnPfpwz3u9E9b65+0rBTy9W4fo8H4nPv7uldgPW+gE2iEijTBQhQF22d68/+HJH88aX3xxJ/Rs8T9TmDfsDmUp9H/RJGaVNjSHw4q/kwYuoZq/dl8vT4qWdT/IZRP4Zdx4u+IW6q7SE+MG6jvH18OMbf+Jz+HbWFeZJjtvFxqt+XtBXSn0vOj8pornVG7eWYbdrYmRpfiKj/8fe/vdou4eBX6iMk2XYBjTBEtDMpCZWUq6KeSYLQ7CIXUVoF5RJBm7oh9qHnC9Qx9fKh0uuuvpGGwI+f9+/fX9W3j/aRp79A2NQHo/qIA+oijW3qrSzxYQrqyAldTyBOUk6e1Ec+0uvJP8pDOheJekGB5CU99VSbnKRcYGKLvCM7QDkuHkmjHPar/1yUcoJjK2k9b7WFD+SduzAAtvFz5HetV0RE5DzYRnQsfWjP/Zn7ZIc07n/1ATv2YVMdU3m5H/f7eYf7NPkoT158qIKi3vMD9+maZxtGdVRI688qqQ9f8JP0+FufO9IHm/zb1J/9uYN6sc92BPXmuQV/8CtgC38IFeLjf2ef82EEdcbfOagfO4TRPICl87+2d9vxquAHeafa1/sfRuM5agvtHY0xddX+wn7Gpo9r6GOwye8Q29v0x9z5DT3PqMw2Y7DTSv2hi3qEKyAoEYBV8EXkkqeL6AhKJl5EL6KxC17ANrbSFUsEba2bbSZizxeoexdRn/ZTR+qcqus07YNafpRn1AcjO2FbUQ9TbajkYpWTIzcmTlJOotRHPk6oenKP8sRW95N82ObEz4nZbXKccskffyqpZ8pX6sfmqCz1x4deDrrtTi0fajtyscSGiIjIWcN9h3tWvT/nnj4H9z/y9HKj+2fubcnLlnsh5dlCLTNX/5S/icOv2Kxwn00d5OGYfNzL41+Fe3vq6P6kPFA+bRmxKb36S33kI65CfH3WwJ+Rz4F21ueM6m/q6n0R8JfnkojS7vtcX2S/2+xl4nv6l23q6f5BL18hLWM/Anu0Y6p8hbzYIfQ2BOJJp176qPrLfo57+9PmEX28Kpv8x5/0FfkI3VbaQhpjC7Shz6mpfsyLjH5OTOWnHvyeGs9K9WkO/MdG2oJd9is9D9SXMIzX6KVMyk2xi6g/+D+Ux8rt559/vhrUqQFgxbymIT47pCMUR2Ix8aNym0CYIl4/BAj+nBz7aB+2Xrx4sT6aJ/09qu80xAdOOE4CtlNwQvSTa1e4QOQiAHP1hlxcdqGXpe4pWzUNv/rFjLQl/lawkTKUr20XERE5K3K/GT2Yb4L7fhUqsVXvn9zbeH6IIMk9jpC4fi8lP3bZjgJpPPdM3Wvxi4f3Hqpf8QMb7Pd8bHuf8IwzqhM7sZ321oCvo/bU+ukL6sxzZG/DaHzIm/SUT6B8hbpSL+0gVD8qpKU99flkKZTv9Yf0z3nOB9JjewRlYwvfQ+2zPGeH9Ddp+Eo72KeuqbZvM16V9NEcvc8gvhPSN+RJ/YTa9vRjLUNgH9/Th8lT8/f+2dTnnd4fo5A5WannyVQfpixbyP6mcqfloFfqGbC6Cs8qbv+MnJVrRD35siKPyCYecYgN4tlmf0RdVV66Sp1Vc+omHds9X9hlpR5bHGflmv0qzGtfnLZ9sE0fbKoPsEeesOnzfqg+TIFNTkZOEk5iLgCcIGy5OKYs+YivF51RHmyRp14YyUM8+bmwJZ78xIWcsECZehGkPAF6OezViwXptc3YyYW+5sVHiF0YxVWoN/ZpZ46rXS6QtS0iIiLnydxDeb0nzlHvu4BN7nOUJx4b3PuyrdT6cy+v91726/MEcYmHev8H4nsd9b5efej+5Nmj+l59GvlfSfnaF53e3vgWaGt9Lkl758Cn9Ef1sfoONS2+sk1cb1/1FeaexcKojzJe6Zvkmcpb+wfif+zU+VDpz3RzYBs7hJEfgTTyxn+gTI57ffhImIO60qbOXBvwhf4nnedHYAxqn1XiR0+rbd/EXN9A/JgCX1NPPT/6XAo1f+pOv6fP6nH3rx6PfJvre/joPr9H4CH6IgQ5hghJhGGENWnJNxKebOsLgk4VmZsELdS6c0wZOK2or8IdO/Gj1klbaFPqOW37oArqUZ5dRH3sdZb4MAX1ciLmZOA4Jw4nUcomvl4sOHF7ntgiPhec5OGEJcR+t8mJSj6OKYOd0Ula6+Hihs3aRtLrcQW7uXh2f2DqYlmhDHYAXwnkTzvm6hcREdkn3NO478zB/TL3Ou5hMLq/dur9roIt0rj3cd+s91FYKgqq74mjvm5vFEf9lM/9OiKo5yVPfE1ajUu5KWreTvU/pO7avyP/t2FTf3YhXuujffiS/u5tqXmzTx5CtUEZ4sjTSZn0Z8qFbURiZ8kzFXUSYG4eZbyIp0/wOeOUvuE4dU75tC1zbSCNOjMm8Tt93klf4lu1STn873NhU9+HqfZiE9JPnZo+6nPaQVpsJw/l2K9kXLqdetzTNvkHH5WoR0Ai/EZE6JIekcsEIxCfP56XuAjPqd9rp650RbUbNon6pCNUTyvqR2IXep0IYPIRB9u0byTYe55NfTBVX9hW1HcfpmBMuWjkZOCilhOGberr+SB5R3k4yQicxIQal5OR/OzXE518hLrf6b6QFxu5+JE+6qfABY6LHr5wsal5u09LiL2wqX4REZGzZEoQAPc+GN1fR1QhWB/Q8wxQ78eh1t/r6w/5UOOwmTKBtPogD+TDh9xvUyfxNW+tv9eT/epLp7Z/it5ebFewX58LRm2s4D++jajtmaL2Qc0/Klvz9nIEjmv8ecyHypJnOmwTqp9dzBKfOueEbh8rwG78HlFtj5hrA7YB+9RNwF7tsxE1Hfvs4wNtm/KHOgj1vKnPvcRzvATKU6aOZ+3/0Md3lKfT8+ATvs0x1WbYRdQf7G/qv/jii1XnI/BqQASS1iFvPrefmoSIe0Qj4jFESNYVZ8ojSCuI2Sm7gF+ks1p+XuAzn7SnPUvb19m1D6ibcpV8QbAtS/ycgpOOk4KTsJKTtcLx1AlEfC78U3k6uaBtCycy/o5OeOJqW9hPHfErF6Rst/GBPqgX3U0XHRERkQ8J96lt7nPcNwkRQinLdmSLe2nyE7hPEnJMWu63U/CivIYO5bmH5/4PUwKo+sg2dVOW/e7/PsB29X9UR02vgbIB39NvCb0/E6b6NM9jkH5bQvq38yHmwxz0GWPfbeB/7dfa7hpfA4zaDKP8hKn825D5MqWNaFvGEOizjCt9SPm0Dzs9f/IRT15C+p/9Ooa1bYTk7/Epg80+5vsifvexHIU6vvvgYFfqp1aBEYyITdxGBNbV5AjqrFyTl1CFYsRjZVQPthCtof4eHHrdIbazmh3OYqUean/AkvaRTr7KyLdNfQCpP9Q8xJNeST2bfOCkoCxt7Sce8Xm7V0ldtX9yIQ+UqzfRbit5k4cTPxcUIH+96BCfslzwyVvhpIWRz+SlDHmol3ZWP+IL8bVN6ZuQOoD4erEL1e/eB73NIiIi5w33oqn7EPfK3IeXwj2PctxXcx/nXsg9k4fu0fNFyL283rM7+Es6Nkb3f9LiM76QP8e9rb19U+3FDvVsul8vyRcf0kdQ2zvyqbexQt6p/lrSn1N9MJoX9ZkG6nMQjNpPXNpKGrb3OR8q+Iytufz4k/pD74MOdgmV3vZw2vHCv6n50/sf8KOOFfvYpx+wl76fax+kX9J/sVHT5nyHTeNV+3nUFqjzYVNfwlzbKEt/YBNb1Fef60d8VJ/fi3xqcFOZujgvgYsEF41NF8zOaesVERFZSh7Ml8D9LKJgSmB0Yp9yeXCuD9Uh4iD7S8iDfoRA7p1VJITEkY/90UN87FRfOU7A5zmwX4UL7aQuoL/m+gzbBNoQwYKtxFefYNTGUMuP2JQO2KfOuTaP+rvu1/ZnrOjHs54PI7BR7VfiU3/2muvjTtpK/lG/ztnaNB6UZe5Mta3bzjHPkyH9TV0E0uPzFL0tmYtAfOrEBrbm+n8K+p6yOTd6W4A6qS+2R3k6ozwZ5+o7JH7O/51E/c9//vP3l2gLf+HhL1ZbRf1+YeW+wxcFUxcA+fiZusgvhYsQF4epi/SITW+nRURERGQ7TvtM96FAnPJMuPQlmpwNEfV/+fYfXW2X4Eq9iIiIiIiIyAGwy0r9wf6hPBERERERERGZR1EvIiIiIiIicqQo6kVERERERESOFEW9iIiIiIiIyJGiqBcRERERERE5UhT1IiIiIiIiIkeKol5ERERERETkSFHUi4iIiIiIiBwpn/HP7GuAfvyhuXXr1ip0rl27dnLhwoX10fuQ3ss9f/58VaYG4iqU63EcEx+m6q75qLvXRRi1JcRuDY8fP16nvoG4yijvprp7PbVtQFzoeWvfkDbXV5v8YL9C2Z63248/nVrvHPTRgwcP1kdvefXq1Tt9zT5xlVGeka1A+pMnT9ZHb/MnVPvkq2mjekZpAVuk1f2pvEkj9DaOqPYIYWl5ERERERFZzpQ+H4XPLl68eFID9OMPCULtxYsXQ2ECN2/eHKZ1IQjkQ/Q9e/bs5PXr198E4qbsz0HdcwL90aNH39QB2Sd+ju4fddy/f3+d+i6I21pP2rGk7ppnU1viE2Vu3769jt3MEj/CNuOzyd9NXL58+R2xfRqw9fLly/XRW6bELr7fuXPn5MaNG+/5QBxpBPJVatrIf/qINHj69OlkXvLFFtvetyPIU/1OGY6XlBcRERERkeVM6fNROPjP77/44ouVmCCMhO1UPHF3795dH70BEYhgvHr16jrmDcTtIhCpe+6Fw75A2N67d++9FxUc0xb8CCOxvITPP/981ZZN1Lr2zTbjc9q+R+giukdifFuwhYjuEHf9+vX10ftQblfif6AuxHao+5cuXVrvvX3RkLrZkj7XD6QlH6RsbNHGUftFREREROTsOXhRj5hFcCLipgTclStX3kmbWqVHLHbBCIkfldvEw4cPT7VivJSI2Ep83sXvDi9Blgj2pfm2ZZfxmet7BOemT8MRvvtare/CeK7egBCOQN6WXjbCe0RNw68q8oG0Jf5WsJEylJ97KSAiIiIiImfHQYv6KvQQkoi6kbBnRb7Gj1bpAfE/BWlLVqo7+MaLh/MQ9iNYxebz9F3qp0x+t07/jvosUAf5aOtcvtOw7fjM9T2ik0/Du4CtkMYq8z6EPXaqsJ1bpWeu8sJhlAdf8rv1vvpd0xDSU/YBX2reOVG/CfJjLyKebW0r6du+FBARERERkf1w8KK+rgqzPxL1iDvIqjXiL3GVOdFO2pyonAORS/l9rJhvC+3k83y2iO7RTxGmyO/dEcabyvHyIL9xp56zaOsu43PavkcYI0hPK0ojlGOLMCWemce8cCAgumvdfD2QtC7ak0Z8F/wdRHzsIMBz3uwiwClD3XkZwcsF7Nf2TbVVRERERETOloMV9Yg0RASCM6vJHBNGAg6hhDDlN/ijlWTSKTcqm/j6ImBOYI7gU/Bt/oDcNuAb7a4vODq0GcE91T9zUBbBvPSFAH7U/tm2r0ZsOz6V0/b93Gf42whghC5iGxE9t4peocy2IhvbiOhNwj7QvlpHrw9/s5I/RX1JwFhRRiEvIiIiIvLhOVhRnz+Ql9XhBIQdaZ0IzTnxy8o0n5FX4cg+cfUPzFG+f9KNaJyyC/hF+jYr5UsY+RdI29dn/9jnBUrtmyno46ya79JXUywdn85p+x5xGkFeIa6L/axSjyAewbxEJIddxTFCHX9HLwSIq21hP3XEL+qt2218oA/qS4uRDyIiIiIicj4crKif+u02caSNQNjNiUnS8hv0rP6zT1wtlzqSh0D6yJ8K6ftYte7+8TJj1K6I2eonPkytaG8ionpE9Yl8qWPXvhpBuSXjM6L3PUKzf9o+ByK15yWOkN+mExDFVdB2SN8k6HkpEnuI8yqoEcy1vjnySTxQZxfosUF87b98mUAa25qGvVGfVZ+xX/sA+5vaLCIiIiIiZ8OFrwXjm38gvoZ/Xs//ugvf+eFPVtuf/uC7q62IHCYIbj6P3xXEPKv6iP5tOG29IiIiIiLyhq6/uz4f8RmZaoB+LPunrmwnZNVVZBdYcUdg78ouK+7Ut+krChERERER2Y4pfT4KrtSLiIiIiIiIHAA7rdSvtyIiIiIiIiJyZCjqRURERERERI4URb2IiIiIiIjIkaKoFxERERERETlSFPUiIiIiIiIiR4qiXkRERERERORIUdSLiIiIiIiIHCmKehEREREREZEj5TP+mX0N0I8/NLdu3VqFzrVr104uXLiwPnof0nu558+fr8rUQFyFcj2OY+LDVN01H3X3ugijtoRt6k64f//+OmVcPhBfyxGm8m7q8xoeP368Tn3LpvQOeR48eLA+esurV6/eKc8+cZVRnpGtQPqTJ0/WR2/zJ1T75Ktpo3pGaQFbpNX9qbxJI/Q2jqj2CGFpeREREREROUym9PkofHbx4sWTGqAff0gQnS9evBiKILh58+YwbSRWyYcoffbs2cnr16+/CcRN2Z+DuucE+qNHj76pA7JP/Gmpbbh3795G/7dp+6Y+7zbog/piASFf2760by9fvvyO2D4N2Hr58uX66C1TYpexvHPnzsmNGzfe84E40gjkq9S0kf+0nTR4+vTpZF7yxRbbJX1Gnup3ynC8pLyIiIiIiBwmU/p8FA7+8/svvvhiJVwIVTiGqXji7t69uz56A+ITQXr16tV1zBuImxPnU1D3nPg9LxD1+DHHNm3f1OcdhDs+8DKAQB2UDUtfYiB0Ed0jMb4t2EJEd4i7fv36+uh9KLcr8T9QF2I71P1Lly6t996+aEjdbEmf6wfSkg9SNrZo46j9IiIiIiLycXHwoh6x+Pnnn69E4pR4vnLlyjtpU6v0iM0uaiHxo3KbePjw4U4vBM6Tbdu+pM875OXFQmyN+hLBuenTcITvvlbruzCeqzcghCOQt6WXjfAeUdPwq4p8IG2JvxVspAzl514KiIiIiIjIx8FBi/oqRhGNCMWRyGRFvsaPVukB8T8FaZtWu0fgGyL4Qwl7+iQifI6lbV/a53Ow+s9n/b1PEJ18Gt4FbIU0Vpn3IeyxU4Xt3Co9beSFwygPvuR36331u6YhpKfsA77UvHOifhPkx15EPNvaVtK3fSkgIiIiIiLHx8GLeoRlmFo5RoBCVoizYvz/b+/+Qu/68/2u7+/vnLandlKa9gjntKg1atUkFzqhdBTtVMhcKUIhfxDsVTH0bq4ULCNJ6Nz0RpwLwQZ6UQpi/kgvxIs6QTra4ijNgJAEO/YEKTrnwGlPJL9R+z/mubNfv9/7+8ln/dt7f/PdO3k+YLH3Wp//n7XW3uu91v4mrbGgnbSxwHcMNxAoT9sfC0Ezf7uev5PvjbeaO/a5cz6GvvCTfF7p45yf8FcExgSkuwalCZRTF8tQ8Mw4ueHAQtBd2+bXA0lrg/aksb0N+FsE8amHADzzuk0AThnapg76y80F6q/jGxqrJEmSpE/HwQb1eULMU+j6r6iz9IJngjKCR/4evPeUnvQE/a1sr4HxWBDcw8/wb9++vVnbzZy2CeTzD9FNBfRzx87rkjmPlKOdiv2QfyhvrHzP2M/wlwTABLoE2wTRY0/RK8osDbKpmyB6KrAPxlfbaNujv3mSP6TeJGDuKWMgL0mSJH1eDjaozz/WlsC1BrCktchLMNwLLoN/sI0n2zXA5D3b6j/mRvn2p+ME7EP1gn6RvvSpdGubtueYM/alc462Dtb38acIBKcJyCu2tcF+nlL3sJ2AeU6QHNsGxwTq9Ld3Q4BtdSy8TxvpF+3W1yV9YA7qTYteHyRJkiR9eg42qOdpce+JO9tI6yEgHQt+Scvfe+dJNO/ZVsuljeRhIb3Xn4r0pU/4W9u2XbXjw5yxz53ztg4C/9SRmxtJZ6E82wk025+2jyFIbfOyjSV/m85CUFwD2hbpUwE9N4NSH8F5DagJmGt7Y/KTeNBmG6CnDrZnzpBfJpDGa02jvt6c1T5Tf50D6p8asyRJkqTjd/IuIHv/n6hv8J/X83/dxbe+/6P164+/9+31q6T5CLj5efy2COZ5qk/Qv8Su7UqSJEn6+Nr4u43Pe74gU13Qrmv/6pPsLHnCq08HT9wJsLe1zRN32qtP+iVJkiQdl6H4vLf4pF6SJEmSpAOw1ZP6zaskSZIkSToyBvWSJEmSJB0pg3pJkiRJko6UQb0kSZIkSUfKoF6SJEmSpCNlUC9JkiRJ0pEyqJckSZIk6UgZ1EuSJEmSjtbTp08377727Nmz1evXrzdrfaSTb8rjx483777WazNq2tw2dnHys5/97O3mfdcf//M/Xb/mP7//mK5evbp6+PDh6sqVK5stq9WLFy9Wt2/fXj1//ny9Th62vX17ehhtvpOTk3WeW7dudXfKzZs3V48ePdqsnZaySHsV5Sg/pi1Hv+q4QN/Q6wd9iNpeOx7qzJiHkJ+D686dO5st77GNAzB1k+/69eurixcvrtfRy9OrK0inPPVknfxBPamfel+9erV+D7a37URNC9LJl748ePBg/YrazpheGbbNLS9JkiTp42hjhCFDsQpliT+uXbu22TKsxgS0S5lLly5tUr/Wq5M4J/HQlG99/0fr17/0J//Q+nWOk3fB6qlo+Msvv1xduHBhs/Z1pYcc1F++fHn9vgbDQ0F91dvW0wb1bZ9Iv3fv3uru3bubLR+q5TgI7t+/fyr4Tn957fWzDeQzVt6zPWlz0H4C1HpwcQBuE9STzgHdHtTJS3oN6lMnBzt3rVIXeXv1gHL1xMmdt9p/TrScsDU/7VD30MkcY2Vq3ZIkSZIOB9ftNS4A8QLX9TWW4XqfGGJKve6vD/162hghMQ2vPfRnLHZr4+82Pu/5JH5+z6S8fPlyvZPOA0E4QX19Ej+mtxOfPHmy3s5CwB/UyY2AWqb3JH8pDjQOaILXXVFX7yclbKt3qFqU21b6H7SVEznbUz+vuYkwZKoM4+iNUZIkSdL54pqd4LsuvWt3YiqC8Cy55m+3V+TJduINlqwndojEV2ynTmKI5GVhvcZ1+/LJ/E09T8Hz8/XzwM7hxsIcBO3tzuSmwI0bN9bb680JAnoC+7k3DIIDioO5Br4tDsihO0hLtUHzWLvBidaeCHO1ZXPygLbpT0XaWJ+myvC+jk+SJEnSYeBavQbPCaDHJH6Yus4nLTcKiJ1Yst6Wy1N6EFvMiYn24ZMJ6gl+CYzPM7Cfwk/wez/VJ4in/3kiTwBfA3t+pk/ZobGxnXpZ8pSfg4iDuQ1UK9I42PcR2FNPPagJuodOJMbGSdDLU0+S9u5aTeNkGaq/F6BPmSpD2sc6KSVJkiSN49o8sUENvLMQSyTu6AXtbMv1P6+9PKg3DMae1NOfuv4xfVL/+j2BMk/Llz7V/lgIzvmpPgsBePrJwVaf3Pee1lOG1xq4Bz/HT71jf9ffQ2DMAbhrwJoTInWxDAXJjC8nAidZbbueJG3QnjS2twF/tU0APqfM0HgkSZIkfVxcmyduIJiucQTviRlqekUMQp4gnaC+Fw/UGwY8ZKwPGuuNAPrTxi81xlganyxx8EH93J+0Bz/D5x+c+5jyZL0G5lPImxsQlOXpfZ62s87S3pwgYCdw76XtggN66Gn9koOPk4Fgm4O7PaCHUGbpAU7dnCBjgX1bJ31qT+bWNmUkSZIknR9iI67ZWbh+r9fwbYzD9T7BOIF+KzER5avcGGAhD0vdNqYN6lk/Cwcd1BP4tj85J2AfC57zE/b2afZZIbjmp/FL//E6Dj7+1f78A3l50p6FcZBG/Wf9JwUcXBz4bZDMtvZEYD0nSYvtHKxLgmHybnNwczLR3zYQR9rOCZnXsXamyvTakSRJknQ+uD4nQCcu4Nq9fZJOOtf4vA/SCMSJxdjOKzEF71mIy6iLsqm/LrX+uiR2aCU+AnnmxkhLHfR/aQeCc55iR/v36ATUrLeBPttxFv+lXfuUfE4dbbn8F3XUTR8J4isOMIJ56s77SFmwnfSKMhw8bCdfG8yynafd7UGVeupccpDXYJ9y9Sl8W1fyJg8HLwsnG8ifAxtsT1lOkPaEyN2vXp/JmxOTdnNzAhl/1LtobKfddl7GyrTjkiRJknRYEku0cc4Qrv8pM/caf079xCeJfZB14ok57WzzX9odfFAvzcVdshqI93DickLVE22OOXVLkiRJ+nh6DwVbPMhrHwDHWQX1tJmHgj1jccVWQf2bN29GHzN/5wc/Wb9+DkE9T81b9an4HPuoQ9vJk/axk6R9oj8HAX3vFw+SJEmStE8J6n/43W+uX+fwSb0kSZIkSQdgmyf1n9R/aSdJkiRJ0ufEoF6SJEmSpCNlUC9JkiRJ0pEyqJckSZIk6UgZ1EuSJEmSdKQM6iVJkiRJOlIG9ZI04OnTp5t3X+ttk3Taq1evVs+ePdus6Vi5HyXpOPj/1EufMS7Wrl279sF7Atfr16+vL+guXry4XuLx48ermzdvfvB+Hx48eLB510dbtS9LMcZLly5162AsyHgYexvAMye9bRgK9u/cubN59/W8Vr1tY/2M169fr/uYfTakt496bUZNm9vGXNTH2KizyhyN9WuOof6mPea0tWR+qIe0HvZVrYdxsoyhn21fl55fZ7V/SUvdjG3pvqEspvo/F3NJP9iHY3Ob/kaOOcY4NNbqkOazl2fpftjVvvdji/qZm4rx1XO1HfPSOVjyvbLtcbbEx9qvY597Q+gH+afK5HhOnykX9TsPvX5Mjbc9D89ifs4Lc8d49nVO9ebmU5qvz9U2/0/9yZs3b04F9a3v/OAn69fzDOpv3bq1fn306NH6Na5evbp68eLFqrkv8RXSL1++fKoc+dlePX/+fHXlypXN2vtyDx8+PLWNcrdv317nxVDbNR/9zhdixYncjiVSb7R9w9B84OTkZPPufXo+NNq+UGfGMiRftu0HdPuBlA/29kKqzdOrK0infD6Ekj+oJ/VTb74kwPa2nahpQTr56Eveo5e3XgzUPgyp9SHjpZ455T+2dny5IM0XQi6GY+riCBlnvRjiyzzHA22Q3puLtr2KNOqZmsOxua518L72kXbTNvux11/2bbahd+GTuQvqaucV7bE6ZOicqfVOqXNCu5Tp9b1XZzueHvJQ91RfmG/y0Xa7L9r5WWrOsYnesTF3fpbs99ZY2VhyflVnuX+pm2Nwyb4hb9rgPX3bB+piXHVsU+dBztmaj1eOuaF+HcJ8Ui95gvbpT/3MQv18oD/0N9vq8URb7RiSv5cG2h/bj3WettXOA+MGdWZu2zz5vKD/Weq8ULb2NfmR+jNe0jK3QXtsq3NCG+2+3sY2+3Ub1NfWCdqrc0lfMidD6nzW/mffs41XlnZfRbt9KB/Snzr/Y/nPWs6Tucf6VH7SGU89Rrf1sY6nT13mce4+/hgS1P/wu99cv85x8E/qEyT3AugE7eyE9uRIuRrUc5IR3LaBMoFwDYDnBvXUjRpct/mCNoZuPlS1bfp7//79U3WNzUc7DsaavvG+N09jaD8Hd/0wbT+QyEd6PRF6eUjnA6d+UCN5SU87tU5ONj6gUhd5e/WAcnzpJo1y1F/7n4sqUFfS2ry1rpzwUx+M9SKn7Xdt9xDQv3YO6S9jzv4gnVfmpc4H22r+VvK3mFvaZYnMF+pFaE/N20Obme+q7U/G0Ot7NdWfdn8yrvSP99RP23lfj7fobWNe6zyD/lPXlNqnpf2nL7TLaw/96c0vKMMYx/ZPHWs9dupx187FEnWuqxxvjK3aZv+irQdt36fqDtrI8Um/634fOr/iY+/fOfsmbWSOGBvbhurd1dA+z5zSZ/qSdbDeG8uhzCd9Zd+TnmOObWCcvc8H0P/0kbGm7Yyd9Vom85Hjrpq7H2ub28g85FjPeOln9ms7V8mb/UUfWc/Y2vxT+7Wdlx7G3zvOlth2vy7FfqXe3v6m7bqtnauemif9rsdL7XfNSx9yjFX0q91OmdSZOsb22y7H3K5687gE88IY23NpqY91PJ23Xed7CscZ88TcnWU7S231pP7Qg3qCWhDEEujevXt3vQ4CYNbbwBcJYjkYEtgS9LYBPaibujIVc4P6tM1rTs42X2wT1Ge91jU0H0PtxrZBfT4YeM0HbvuB1DvhenlSV9sH8lE3H0rUg7ZO1lMu+dOfKu0M9ZX2qbNXlvbTh7Yc2rpbtXzUcdA2qOMQMD76C/pHv9hWsb3OAWPIOHqYmzr+5M1+5JU2aStt1/kk/9D8kEbe1NWiPvbb2PzWOsbaCuajjqdq02ibOtnGfmc9+z5j7tU3dOHCvA+NFdRV2+ip7bXz3es//eZiiffpc0zN19T8k04dOZ7qBTn9H5qfJTKGHuqtxxqWzA/Iw/YexlDPFfKxjTEzp7V+3me9tkFeliGUrfmX9H/p/p0KhND2hzKsZ4zgfdqeOqaHUFfms84xemNhG/mzjfdgveZr56iuH8J8orbL+/QLdT5oj/X0t0VfqSfzn+OMvlOmlluyH1NPHesSGV/mK+1Rf+Y0eVjnfWReMob0qc4Z6r6o4wFpKZv6eT/nONtF7SPv0y/02p+LfZf9w77ilYVx1v0WtM34ee3JvKevmaPg+O+NhXnKXNV00Bf6Qbt1/pFjjHojc5N9dt7ac2kpxsicbLuPe3r7IOjnPtv62Had77k+VjtzbRPU/+Lm9WDdu3dvHajyVDwBdIs0dkYOWgLcFukEwW1Aj2xPoLwEAXi9IbBPjLc9EYfmI/1fOobel3SLg5w89UN2W7TBh00+nGl/Sj70t9GWpe2hD7e2X+18kDanvxV1pC7K82G7r4uCXdAn+kO/6sUO+7rOF/1t1WOF+e2Nh/pzzGQfUFdtL32IXPSSfwhpQ8dq0qYwzuyT3oV2nQPyzrkYz3hRL4jn7G/ykb8amwPkWKVd3g+1Mbf/oK8ZN3ND3UtQljkY6kutn/HVOZojczI1n6S3eZiHniXzA/q75HMwfaGNHLe855X13tjnnF9xlvu3HSfl2+M0/c/xPzQ3tEcaeagj46vG9m/mfe6xkvnNfqds+ljPrbYfhzKfqP3IMcNS66n56fvY5x/9y3h5n/y1jm32Y87hoeN07nk7B23RZ/rJ++zfKfSh7vdW9iOvjK/Oyb4t3a+tqfls912do+z/KsdgWy7tMCeZn6BMtuVYiPaYBvsr487+q/2v/arHEn3vzUVtv5X8Q/0gvZ4n9Vimj7xPHfQjfSGNOSJ/zhP60GsHyR8Zf/T2xTZqvbynXpbadm8OY+p4ylijzj3t1fnKXPTmD+0cpI9j+4Xtc+b7rO1y7HxMBx3UM2EJuFl42sy2OqnIE/NsT7D78uXL9Xrk5/I9pJF/SUAM8hNo15+674qbBFFvFkzNB8E+ZVnv9YX8QZ+Zo/bk7yEPBycH664nFPXwIZIPBd6zjROmxdii7WNOHLQnT02jv0Mf/qhfGjUv/WHcS5Cf+lKWV9ZTZ7YdAvrCkg/0qHMH8rTqfkFbR+ax7rPMST2O2jkmf44H5GKkHiu87/VpDtpLHbTP+/Qx+6oeR0jenjpX9Cl1pd/IOFtsq/PYftkh85r5rNLXzGE9zqra/3Y+a/+ph+29vu4D9dIP+sD77Of0f5+oO3NX9fbj3PlBW2/K1Xy1Pl5Jy77J/ma8WW+/yzD3/EJt7yz3b/bTUJ/r8T+mV/Ys5VjrqXMXhzKfYD7JR7vJw/v6WTH33KFcHWu7HtvsR8psOw/byPmEufuhjqndr7ug3fZ8HcJ80+Y+92tPrYf6a11jacH80B8+n9vvwyA9yNPOAeOsxxft0B7nIvXXtLrveJ/vhci8RfbfkN5xvQT1Zx8xLtqu88Q42E47c/cT817HwfzVMVbt90wM7Y+zPp4yH8ictOdTO191PX1u54BybKt19Wwz30vncF+mjp2P4eCD+hykyM6t25BAPE/oE5y3QX27XpE2FvSPITgmmO79QmAbBOcZU/2Tgan5IA83AbipQbkE7lH/3n4pTgTa4mDdRQ7w1MMr23r10tfk5+Sv6/XDoZW0nNhD+UBaPlT4ICR/2uEEXYIytM08Zb09qev785QPHeTDj76381q/vDH3Q5G5q2XTRsY/dBxlnw0Z25djaI/+0PfUMdSHKl88U+p8VrTVmy/moR535Eu/aJP6huY5X4TpP+Wogzrb42tu/ylHe3WfsY028rqL9I3+sH/pP6/5/GL7FMY5lY82Mq/0mfxjx+vc+YnUXftRz5nMH20ztpxT5Oc1aVlvP9fo61h/W3P7T/277F/ayTGafbZvc/bvNtp91u6r6tDmM5+FvOa4yHjQG0OL+tMWqIv39HNfxuqirX3u18xx+76HdMY/Rz0P5yJ/3R9z7bJfp+aTeqiXpTd2+pzjbWx+UkfUz7n6HtSTz7epfZ1yjDFlgr6x1HZ7c9GW26fUnb7sqp7r0X52VKTlmJgr88Xrvo8n0sc+E9v5SvtZ59hgaeeA90nft23mcB/2fexs42CDegJkPmxYCE6r3k/M+ZAimGV7DWSDdJ5U98qyrd2+9Kk9P8Pnb9p53Sf6nZsRc+eD8edGw40bNxaNYwwHbO+DGJyYcw9iTmY+fMg/98SjzJI2QN2UqR90YxhX/fBqP2z44OuNvaKf9cOU+qbKnAfmkX7WuWF87Yd/O9+kj30BMFbmgIVjl7zUTztsoz4W6untE7bV/oByoI5t0Sb9WVpH9mU97tt+IfOJNn3sS4vzmfGSt5ajn+25Rj3kr8dXkK/WFTVvr99jGFPOubzuQ8aU/Ty3Xvo/1PfMTU+7z3OMYpf5GZPjYexiiPbafTn3/IqPtX9rOn3IsTlWZqmx/dtqz425pvp7SPOZz8z0I6/1mBprA73PhJwP9bygbvLlnNynJft1DvrIHPA6NX7S232aeaRPU/3a9jgbs+t+nTuffN/16mFM0c4P6vyM4djiOM7xxbh4T/k6Z2PnAn2ZOuaoq/Yl/dsX+ndImMd6bgbz1JurszyemJv2mmPsO22fdtkvS+dwW4d27OBgg/onT56sP5Tan5ETqJLWBqrkJagnAObJdg91Ub4+CScgZltth7q4AVB/+k7AzvYh1Jc+7BMnFAH61HyAttv0feKDIR/eFdv4cK4nPutDHxSpgxNibE4rPni2ORn5QuBDiDbbDzbar/XSp+RJH/OBlw/KsQ/HVvuFdYgfAK32C7ReAER7ERCZo8j88co8ZO54ZS7auUxeljH7/FAeQl/asQ99mbVz1mKcbZ8ZP+c2xz/jbduiPhbazHyTh/e5mIrMF2nkybySb46h/rMtdTMf5NunerzM2adjeRhznSeQnzYYB3NRx5n5n2Nq/44ZOlfYr0PzOVSmztc++j93/9JO/Zxmrslbj8F9mHtes3+32R9jYzzE+WQ9xzCv9TyP9nOjoh3KtX1tj6/M5zZziqnjYGq/Zuws9KXOW69szvXsr+Sp+y+fgUHdpNdxMq+0x75o82Pb42zKrvt1aj7PUvYR2nljHHyu1WMblKnzmDJsYw56c1/15mLo3JpCW/SHhfe0v63UMYVxMgbayjxM7d8l+5h+nNXx1O671L1Ubw4y95nDqf0yd76xdA7noO2pPh6Cgw3qeRrdC84JcAm4h57GjyGdOgmEqxrkI3XzE/Zof8reQ3pb9zZqHQTp9I1tU/PB+GqfUzbq39SDmxYcoLnImHPCcKLUL0/k5KlBz9RJVT8ohtR2+BCv/Ws/pNoLlYqy1EUe2s0HS+pLv1mvx1DKRW2D7W2fwHbmFO0c1A+0Q8N8zu1b3c+t+mXLe+Yi+ypzln2RC4DMIe3XOc6H5tx+kW/uHPPlNHV8pi/UyTiSf06/6vFZxxSMOdszZ716a9kcm3mlT5Sp46jz37Y7p9+tHMvtcd5D/XPrpl72QT3fdpXjkjmgH7XvzAX7hCXH3DbzU4/9zHXd172yjLO9GGrbruacX9v2vzW1f3OOHgr6y/E+d4zkpQyfObxnjrK/6vwd4nzWcxn0n77X46O2Qz9zDvJKX+qxiRz7+5Q2t5X9k/nn/dgcJX/y8J7269gy7uSt+zf7NfNLOvlqedaXHGdLLN2v22JcPbvUTdn6GRTMF59xzBdjqfuPtMwj70Fe9gNjr/uyh/bqfsj+G5J9385zpE1Q7zbzkXHyOtROxfjq/qBM+52wrbb9fR5PjI9+pi7q3hbnX9unut/H9svS+V6KdnNspg+0Q3us857+bHPscLzmnKCN3vtt90/Pwf+XdtK+8cHSXsAtwcnIB93SD5dd2z0LjIOFfuXLkg+rbG8/ePkQGhp3Lc8c8eFXy5NOnbW+fGDm/RxjH4LUUeuv6Dt9IJ1+1HHQX9Lql1bG0H6R1HFG5gttflAP9dX5SH/GtPNf9fo8ptfvFn2izYylZ+gYpix9Gdo3yPHT7qfM39h4l9r3/NC/1NXut5TJ+IZQLnl67YyVn+rfVDqof+7+Hfq8yr4C+2pof8/pz67qxWbdzzl3MXRMpezQGA5lPusx0R4f7fpZfMdMzcOubbbl2XfMB+NqPzfpC2m9/TnXNsdljpX2ONvFkv26FHPE+HrH9VDd9ZwhfWh+6vylTPYPso15Ig/5Safd9Ik86UPy12M/50Nee8b6+Dk6y+Ppc8Wxmc+i87DV/1P/5s2b0f+L7Ts/+Mn61aB+v+oT9eDJ+i5fVponXyLbXohwkvPls+QLhYuC+qWls7HrvtV2uGjg2N7XBa+k5T7255/fa/rc5YZP5Q2Hs/Mx53uba/19SlD/w+9+c/06h0/qJUmSJEk6ANs8qf9i8ypJkiRJko6MQb0kSZIkSUfKoF6SJEmSpCNlUC9JkiRJ0pEyqJckSZIk6UgZ1EuSJEmSdKQM6iVJkiRJOlIG9ZIkSZIkHakv+M/s64J2/bxcvXp19eLFi83ah27durVeek5OTr5aHj9+vN5G3ro9y1AdQR/aMm2/6GtNv3///iblw3bJG225mlb1xjo1Ht5XS8bRIt9Q32KobJDejmGbuWXJPo12Lqb6Wj148OCr5enTp5utq3Ubr1+/3qy9x3rbNihXywZ5a/29stRJWrx69Wq93rY9praRckvrkCRJknQYhuLz3vLFhQsXVnVBu36ICPxevnzZDZII6h49erR6+/btekmeug15z/YhlCVAfP78+Vf5WdjWtl3z3Lt371R6bZt8VU27efNmN/DtjXXJeJaMo9eHuSjb1oc2UMeSPrV56F+9cYKxOe5J8Eyf79y5s14uXbq03r4EgTPLULnr16+fqr8N/hkraaA/1HPx4sX1+hyUTxu8Zu5Yb+dRkiRJ0uEbis97y9H+/P7JkyfrYIylBncEj1euXFlvj16QOxfBIwEidVZsGwt8CeoJxJe6cePGB+WGxrrEknHQztANkylDfWTb3bt3N2vvbTu3IHBnjns3C+Z69uzZur81gCboZlmCIDzlqHMMeerTc/ITiEcC87lSV/rMK+PJDYZr165N9kmSJEnS8TraoJ6AjgCYoKwGnwSIBHq7BHtBvdTXBp3I9n20UxH8MqZqaKxzbTOOhw8fTgbWQy5fvnyqn7052sfcMh9TN04Iens/Q0/Qu+SJ+BCC5gT1Q0/rI3kjNwS2xbjaMVBfDfan+iRJkiTpeB1lUF8DQgI7gr8aRPKkl59wbxuUVgSoQ0jrBZX0J4F40Jf8vXf7JLumMZ76RHtqrHMtHQftMYZt5pD+1z72ntJjm7kd05tjAl6efveC9zkBPePgpkCWdu4JmKmHJcF0G0Tzc/uUJw9Pz/elF9RXpLU3NCRJkiR9Oo42qCfADd7XYIuAlJ9n89oLopcYCyxJq4EpNxJoL38nTvtR/967DXCTRhDd9nVqrHMtGUfQT9Kmnpi3Mm7KsVBHnYvYpk9jxuZ4W8w3NwWy1H2B9kl778l4/t79LH4KPydoHwv6JUmSJB23owvq86SaADhPZVlnaYNPAjsCvF7aHARwCUxb2V6DVQL5BJW9IHYK/SWQTWBP/XPHOmbpOCp+hn/79u3N2ny0yTj49wB6AfYufQLpzEMbZM+V4HuXp9h5Kk+gnifxrA/VS1BPgL3vwL5ti/brjQZJkiRJn66jC+rzj8YleK5BNGkEe/v42X3w9Jcn7zX45D3bdvkH+IZQJ0E8bUyNdYltx0FbCdCXoAxP28cC7237NCfPHATZ9K8i4CYoniPBc32Sz0LgPlQHT+1pY5ebCVWC97SX1zyd31c7kiRJkg7TwQf1BG95Ss17At7ek1+2kZYgNGVYSBt76juGuvI3+rUfbBsKVnvq33uzjEmwOzXWJXYZB+2N/VR+CPWO1b2kT20ebm60eXpzTFDLE/ShJ+cE2XnKzoK5T7kJznt/Hz/1M3vazM2E/GIg2J7+5n3SWe+Ng/ryd/u81nmhrE/tJUmSpE/Xybvg6P1/cr7Bf17P/3UX3/r+j9avP/7et9evkvaLYJwn/GMI5rlRQAC/xJy6JUmSJB2GNv5u4/Oek5/+9KengvrWn3j4s/Xrpx7U58luxRPzsSfNnyvnar/yVH4s+Cag5yf1S566E9CzT/yH8iRJkqTjkKD+L97+/evXOXxSL0mSJEnSAdjmSf1R/pd2kiRJkiTJoF6SJEmSpKNlUC9JkiRJ0pEyqJckSZIk6UgZ1EuSJEmSdKQM6iVJkiRJOlIG9ZIkSZIkHSmDekmSJEmSjtQX/Gf2dUG7fl6uXr26evHixWbtQ7du3VovPScnJ18tjx8/Xm8jb92eZaiOoA9tmbZf9LWm379/f5PyYbvkjbZcTat6Y50znm36PtSHinzRlmfJnI958ODB6vXr15u1r7GNtOrp06frpUU75M0y1G7NU+shf9sH1nv17NKHmv7q1avN1vfa8ZLOem9uaj1t+ljakF6ZJeUlSZIk7d9QfN5bvrhw4cKqLmjXDxGB6cuXL7sBFEHlo0ePVm/fvl0vyVO3Ie/ZPoSyBK3Pnz//Kj8L29q2a5579+6dSq9tk6+qaTdv3vwgeB8a69R4lvR9qg9T2jYoX29s9Fy7du2DABdsIy0IMFl6eXH9+vXVnTt31sulS5dOBd4JkBlTzTNU15Bd+sBcJ41+kFaD5qSDvtLGxYsX1+sV+dIOr3UfjqUNGSrD+pzykiRJks7GUHzeW4725/dPnjxZB0gsNXgkAL5y5cp6eyTI3QbBKQErdVZsGwt8CeoJxJe6cePGB+WGxjpl2773+rAUgT1z0P4qoCL4ffbs2Wbta2wjLQhyWR/KX5GnBszkZ95qkJy6ltilD/VYpB+1L9RFQB0JsFupL/3mlXro11jakKky3FSZGqckSZKk83e0QT0BI8EnAVN9qkgASyA5FkzORb3U1wbFyPZ9tFMRtNcgEENjHbNL33t92AZ1cHOAALL3k26CSILJGnwmeG4DX7a1eXuSF8lb69rWtn3oYR7Sp4x3Si0TlGP7WNqQqTK8nxqnJEmSpPN3lEF9DVgJHAlOa7DLk2h+Yj72NHquy5cvb959iLTeE236k0A86Ev+3rx92l7TGM/du3c3KdNjHbOk72N92BXBI0+g2yASbfDYBrmsU44lQWcbbPJzdm4asJCn/nS/12aL+Ux5lnZ+d+1DRb7ek/gpvSA8xtKGTJUhjTySJEmSDtvRBvUEnsH7GogRAPPzb157QfQSYz9DJ60GztxIoL38HTvtR/2b9TZgTho3Atq+To11zJK+j/XhLBEAEyATQLLwnm3Rrid/lb8L3/Yn48wp5bPU+ca++sB+y42BpcaC7G0C8DllyCNJkiTpsB1dUJ8n1QSfebLMOkv7c3KCZwLVXtocBHeU65XN9hq4E8gncK/b56K/BNoJqql/7lhbS/sebR+2Rf30sw2QewiECZJZ6hPuBPkEyXkKnny9gJSyBKIJqhN8Lw14q137EMwFaXV8S7Xt0YfcIBhLG7JNGUmSJEmH5eiC+vyjcQmeaxBNGsHkPn52HzzB5sl7DY55z7Zd/gG+IdRJEE8bU2Odsm3fax+2sXR+Eny3QWXW61N0FoJm0np4Yk5AnYCVIJqAuiJ9qHxrH31IQL9LwJyyaTOv9GMsbchUmTbglyRJknSYDj6oJzjMU2reE2z2/t6bbaQR8BIIpwwLads8OQd15W/0az/YNucpdNS/WWcZk2B8aqxTdul7+jBX2wY3H9IGASJPuIcCxRp81vcExr0n22xrn4RXBNUJ5MnLep6ys2BugL1rHwiWGXf9m3uWzAX9SEANyiQ975NOnamH17oPx9Kopzf3Y2Voc+4cSZIkSTo/J++Cr/f/yfkG/3k9/9ddfOv7P1q//vh7316/Stovgmqe/p8FgnluPhDAL3GWfZIkSZLU18bfbXze8wWZ6oJ2/XOQp8x1ydPez5nzcvZ4Qk4QfRa2eeJOX+pTe0mSJEkf11B83lt8Ui9JkiRJ0gHY6kn95lWSJEmSJB0Zg3pJkiRJko6UQb0kSZIkSUfKoF6SJEmSpCNlUC9JkiRJ0pEyqJckSZIk6UgZ1EuSJEmSdKQM6iVJkiRJOlJf8J/Z1wXt+nm5evXq6sWLF5u1D926dWu99JycnHy1PH78eL2NvHV7lqE6gj60Zdp+0deafv/+/U3Kh+2SN9pyNa3qjXXOeLbp+1AfqpRpUXevfK//GKonSK/l2jFP9fXBgwer169fb9a+xjbSqqdPn66XFscPebPkeGrVPLUe8rd9YL1Xzy59qOmvXr3abH2vHS/prPfmptbTpo+lDemVWVJekiRJ+twMxee95YsLFy6s6oJ2/RARPL58+bIb3BDsPXr0aPX27dv1kjx1G/Ke7UMoS+D4/Pnzr/KzsK1tu+a5d+/eqfTaNvmqmnbz5s0Pgt+hsU6NZ0nfp/rQMzff2L4C9fTS2psPMTaXrWvXrn0Q4IJtpAUBJksvL65fv766c+fOerl06dKpwDsBMuOoeYbqGrJLH5i/pNEP0mrQnHTQV9q4ePHier0iX9rhte6XsbQhQ2VYn1NekiRJ+hwNxee95Wh/fv/kyZN18MJSn4oTCF65cmW9PRLkboOglcCROiu2jQW0BPUEskvduHHjg3JDY52ybd97feihP2PBekz1f2g72+7evbtZ2w7B77NnzzZrX2MbaUGQy/pQ/oo8NWAmP2OoQXLqWmKXPtB+0I/aF+oioI4E2K3Ul37zSj30ayxtyFQZbqpMjVOSJEnSuKMN6gmaCT4JZmpQSQBLYD/0lHcJ6qW+NihGtu+jnYpAtgZoGBrrmF363uvDkIcPH04+rZ/T/8uXL59KWzqvBJC9n3QTRBJM1uAzwXMb+LKtzduTvEjeWte2tu1DD/OQPmW8U2qZoBzbx9KGTJXh/dQ4JUmSJI07yqC+BqwEigSANSDkSTQ/MZ8KNucg2BxCWu+JNv1JIBv0JX8H3j6VrmmMpz6dnhrrmCV9H+vDGPrFWIfmem7/aa9uH3tK35tLgkeeQLdBJNrgsQ1yWaccS4LONtjk5+zcNGAhT/3pfq/NFmNLeZZ2DnbtQ0W+3pP4Kb0gPMbShkyVIY08kiRJkrZ3tEE9AWLwvgZJBJD8vTWvNfDbxtjP0EmrgTM3Emgvf8dO+1H/DrwNVpNGcNz2dWqsY5b0fawPUxgP9fWers/tf+aKOlior85fNTaXPQTABMgEkCy8Z1u068lf5e/Ct/3JOOOmfJY6J9hXH5jb3BhYaizI3iYAn1OGPJIkSZK2d3RBfZ70EnzmaS3rLG1QScBH4NdLm4PAK0FmK9tr4Ekgn2BzKCAdQ38JtBNUU//csbaW9j3aPszFz/Bv3769WXuPNpb0nz7TLn+DPydYX4JAmCCZpT7hTpBPkJyn4MnXC0gpSyCaoDrB99KAt9q1D8G8klbHt1TbHn3IDYKxtCHblJEkSZI039EF9flH1xI81yCaNILFoZ+Cb4Onwjx5r0Eo79lG2r5RJ0EwbUyNdcq2fa99mIs+JSiPpf0nL0/oCU55v08JvtugMuv1KToLQTNpPTwxJ6BOwEoQTZ8r0ofKt/bRhwT0uwTMKZs280o/xtKGTJVpA35JkiRJyx18UE8Amqe8vCfY7D3FZRtpCS5ThoU0tm+DuvI3+rUfbFsSeNa/A2cZk2B8aqxTdul7+rAE/ao/+d+m//Rrqm+9uSRA5An3UKBYg8/6nsC492Sbbe2T8IqgOoE8eVnPU3YWzA2wd+0DwTLjrn9zz5K5oB8JqEGZpOd90qkz9fBa98VYGvX05n6sDG3OnSNJkiRJfSdveXRa8J/X83/dxbe+/6P164+/9+31q6TjQ1DN0/+zQDDPzQcC+CXOsk+SJEnSMWrj7zY+7/mCTHVBu/45qE9+s+RJ7OfMefk08IScIPosbPPEnb5M/SJDkiRJ+lwNxee9xSf1kiRJkiQdgK2e1G9eJUmSJEnSkTGolyRJkiTpSBnUS5IkSZJ0pAzqJUmSJEk6Ugb1kiRJkiQdKYN6SZIkSZKOlEG9JEmSJElHyqBekiRJkqQj9cWv//qvr+ry85///NT6ebp69erqxYsXm7UP3bp1a730nJycfLU8fvx4vY28dXuWoTqCPrRl2n7R15p+//79TcqH7ZI32nI1reqNdWo8Y+22purifaTPQ0hPOSzpR+vBgwdfLU+fPt1sXa336evXrzdr77GefV1RrpYN8tb6e2Wpk7R49erVer3Xdq1rrlomddb3kiRJkj4/Q/F5b/niV3/1V1d1+cY3vnFq/VARVL98+bIbiBE4Pnr0aPX27dv1kjx1G/Ke7UMoSxD6/Pnzr/KzsK1tu+a5d+/eqfTaNvmqmnbz5s1TATGGxjpnPGPtVnPqquhn2x8M3YSZ249I8Ew7d+7cWS+XLl1ab1+C4JhlqNz169dP1d8G/4yRNNAf6rl48eJ6vSJf+kqdvblpkSft1zKszykvSZIk6dM0FJ/3lqP9+f2TJ0/WQRRLfSpOUHnlypX19hgKTOcgwCYIpc6KbW3wXRHUE4gvdePGjQ/KDY31PA31hW13797drG3v2bNn6zZqAE3QzbIEQXjKUecY8tQn5OQn2I4E3620kb6mj2NP25OWvCmfmw/Xrl2b7K8kSZIkHW1QT9BMAEzgV59qEnwT2A89MV6CeqmvDeiR7ftopyIoZkzV0FjP2+XLl0/1Z+lcENj2fmqewLb3RHwpAmMCZpbUOyR5I8H6Nuj7VFDfjo+2arA/1V9JkiRJOsqgvgbbBLoEkzW45Cl6+3fd2yJwHUJa72k8/UkgHvXvytsn3DWN8dQn3VNjnTLW7q7oZ+3L2FP6Xj8Iann63Qve5wT0tM1NgSztvBAUUw9LAuY2UObn9ilPHp6QL0X91JuAvNdOqxfUV6SlPkmSJEkacrRBfX2a3T7BJgDmb7d53TWYHfsJPWk16OdGAu3lb/BpP+rflLeBb9K4EdD2dWqsU8ba3VXGx40GFuajjrk6i34wF9wUyFLnCQTW9Ul77+l3/qZ9l5+7E4Dnb+K5OcCNAtraNWgfKy9JkiRJOLqgPk+qCYDz5Jd1FtIqgkeCyF7aHASJCVhb2V6DWAL5BK5Dwe0Y+stNggT21D93rOeFOaK//N3/voL1BN+7PKnO03IC9TyJZ32oXoJ6guhtA3v6XG8u0M5UUN72gzL1JoQkSZIkTTm6oD7/aFyC5xpEk0awu4+f3QdPmHnyXoNo3rONtH2jToJ42pga6yGgfzyh50YD7/eFIJs6KwJuAt85EiAn0M5CoD1UB0/baWOXmwngSf3Uz/gTvKcvec2NgF37IEmSJOnzcPBBfX7SzsJ7At7eE2G2kUbAS3CZMiykbfPkHNSVv9Gv/WDbkiC2/k05y5jcSJga6xxL2t0W8zA1F71+ELjyBH3oyTlBdp6ys2Duk2yC815gzbaxp/H5GT1oq94AYHv6m/dJzzoLgXltm7TeGGkrf9PPa51D6vWpvSRJkqQpJ2959Ft8+eWXqwsXLmzWVqtvff9H69cff+/b61fpc0LAzRP+bRHMcxOBAH6JXduVJEmSdHza+LuNz3u+IFNd0K5/DupT5Cx5Yvup+ZzGuiuenhNgb2ubJ+60t+RXIJIkSZI+LUPxeW/xSb0kSZIkSQdgqyf1m1dJkiRJknRkDOolSZIkSTpSBvWSJEmSJB0pg3pJkiRJko6UQb0kSZIkSUfKoF6SJEmSpCNlUC9JkiRJ0pHy/6mXJEnSJ+3x48ermzdvbtZWqwcPHmzefe3atWvrpXr9+vXq2bNn6+2vXr36ID1Ie/r06WZt2PXr11eXLl1a56XMmIsXL57qM/npT+1DO65qrE/pR0Vd1E8a5e7cubNJOXu0TbuMeV/Oos5dMLfM69D++lR9ruPexTb/T/3JmzdvTgX1re/84Cfr1/MI6q9evbp68eLFZm21unLlyur58+ebtdXq1q1b6xM2kt5uDw6mR48eret9+PDhOn/Qzu3bt7+qf6rtpDf3RD6op2fbcVXkAeNpnZycbN69T68nEe3SfkXddS52GRttp1w7TrT9GcL4+RBov1DaD4beB3YvT6+uIJ3y1JN18gf1pH7qrV/CbG/biZoWpJMvfakXFbWdMb0ybJtbXpKkz1H9rkygHnw/8/3eBu18Z1OmpvNKebZHrg1qoMw1Q64tWmNp0eap672bEu11R69P6G1nG0ut36B+vziG2Ic5nnJsze3fNmU+hql+1XEfC86F9LkdU+86HJkHsK0db+pEL71KUP/D735z/TrHF0T9dUG7fp4IAgkSWRh8gtmo6Qk26zbkPduXmGq7t22ubcYVBMovX7786sCpCKpr2ZqH9wTa1Jd0Fra1de0ytqptizrv37+/SR2XO9n7QF35Eqs4AXsYP19mfBm0fWAbaSzkq2par//MM2l5n/y8tvugZ6gM63PKS5L0ueK7MhfgBOVcnGdpv0O5PmB7DfJThuuJ9vu/Sp3ky3sWyg+hvbF0ridyQ4H3XGMwnrq0wccStL9LeS3DXM/ZZxyXuVadW+ZjW9qvOqZDlHO3Nx76PnTtzvnLdpY2BqC+mj72+VENxee95aj+pv7GjRvrYPY89NpmhwwF10ssHdeTJ0/WbbPUAJlgnyfu9UCpNzIIqAmy61N5sK0N4Pc1thaB/b179z54gt/DCcFJz4mwK+rqfVmyrb0rX1FuW+l/0BYfAMj21M8rHx5jY50qwzh6Y5Qk6XPG92cC61xo852ZC+z2Ipv85Mt3NuW4HkqZbK8X7VVbd5YW39/pF/XzHZ719vucvORJv2rZLPWaI8jf5hvqt6T3N/9yjldT1+G1THtDgPO5fsachaMK6glgz3pChgy1zc/4d32ivXRcBMXcCKBMDboJ1gmWewEz+UhvA3pke1tuH2Prod/cMMiXbO9LKDhB9vXl0wbNY+0GJ2FO3qXasrSdddpuT3jSxvo0VYb3dXySJOnrJ4kE2yyoATRLvZ4if70uoyzrbZmh7+w2X5YW39sJ+LneYcl6+hk1D2rZLO21ZC9PFtKC6yz6nH63mJs6P7uo80F7rZreXtPUNJa5apn2OnAojfFme93PNX+v/62av51DtlU1L3WTn7Z5zbXwWJleGmNKWu3v0NjTXo4Fljp+sK3VbktZljrudkykD9WfvLWusWNizv7YBX2Ze+1OP3OOpVzGe1Z9PfignqCSn5Sz8GF19+7dTcp7NX3uz7rnmmobBMME2UuD323HxQGeIJxyBOL1ZOGpOz+n7/Xn8uXLm3cfIq39tcC2Y5srX7LtCVKRxhfbPgJ76qkfBpxQ7ZdmMKc56do8YydlTeNkHqq/98EwZaoMab0PFkmSPnf5vs73KN/PbaDbfmfznZrv9XqtBb7j2yA6enWzjKF/tDX2PV4DBeR6oy6UJ18vrbeQnxsF9Dn9rhj30Fjpc6/O9tooSKvzQT/reGkrabRXr/0oW2968J5tU8bqpP1eGv3nOElaTPW/1fa57rtWm5d9QZ/oB6+ktebMScZIHYwr/R0ae0Ua/SBv8J5tY8bG3Y5pqv6pYyJpLJTt7Y+lx+kQ6s7nRw/tp27GnHFTjjTW09e6L/bl4IP6/H04wWUvaK9/P94Luncx1XbQLgHxnJ+Ux7bj4uDmoA7esy0IxCnDa3tDYOwn/qT1gv5txrZvnNwc+Lse/DkRUxfL0MnJvObE4+SsbdcPqvaDLWlsH/uwoN2l45lTZuzDRpKkzxXfySz1mgl1ne/7Vr7v+X6v3/9jaCcX93UZQlrqJmipQU7QT64ByJvrC4IErje4Zsn7bE8/E1i0kmfsuoE2a70ttqeduvTyZ0x1PhhPHWu9vqVftE16AqI6Ft7PuS4aqhO8T1/qcZA82Ua5lBnrf9Xr89A89vJO6ZXhfTsnHFdgO0uQtzd2UD595bVez/J+rJ9Lxo2p+seOCczZH7TRHqMsY/3qaee2Rd9SN/1oj6l2Tnp93cXR/Pye4JKgcyy4XmIswG3NaZufqvMvwy+1ZFx5Ks+NgDzFZ52lDbqpl+A+aZwUvPaC82znRkDPtmProR36VE/SOfhQ6t1FxNgJ1uKE4gODE2nuyUyZJW2Aujn56wdVq62TPtUTvmebMpIkfe5ysd1+Z3J9kaCA9DE1KOpJetpKe3nfXndwjZB2U5brI77b6wU/3/35/k+d5CcPdXBdlfet2n5d5hq7/kn/22Xo2qfXl7FrsbG2t5U6eWXeal+CuWU9x0b2xdL+H6qxsaM9zhkj+5R5IK1N39WS+usxMXd/LD1Ox7THJH2mHy2OneRlPG25s3BUf1PP02sC2l5gugQfmO1PyglaxwLNqbbzc/htbjrMHVf+gbw8wc9C26RRfuyn8rTT/jdzvGcbaUN2GVs1p60hnBCcNO0JyLY22Ge9d4KB7ZxYQydhTz5kluKEpr+9EzltU3d9HWtnqszH+MCQJOlY8Z1cv/u5XmAbwQDfpfle7SFt7Dua7+CkU2etizSCiBYBCG23uH6o/aRe8rEtwQjbWKcOrtHyvlXridrXMdRLPgLAnvS/XYb6wZzUeWmv3xhXkI9+Uq5XNu+nxjFUZ16j5st76mYsydv2YehhE5bk7+Wt/aH9Vq9M3k/NydjYe2pbvX1bzR13HdNY/UP7b247WHKcjqFNpM28Mt/0qz2Gsh/ymvzJm/r25aiCeiQwjfq35yxz8BS7Pu1m4YOL7WPatluUX/ILgGrOuOhzr48ZT4LvWo60PIEnLX9zn3Tes420MduOrW2LmxBpi4OaL6d6Yo/JB2vFNpbcdWPhJBk7UfNhMIYvsNTHl2v9gORDo7Y3hrL5MqTN+uFDWurite4DyvTmZawMde/7A0KSpE9BLqT5rsx7vjP5XgXfp/WiHLnu4DuX6wDK5rs/5YJ8yYv6fUxZggjSyBOpa2hJ3tTLK/Vgl+97xlGva8YwB7RF+/UaZhvMcb2GavvAetLIl7GC97Us+6peAw0ZqpMxZV5ZqnpdSTu5ppzqf6vNP3ZtOpSXfrKdpbXtnIyNvYdxslAmY865wLbW1LjbMfXqD9ZTD/mz/7B0f8yVGID+5H2O/aHr8LSdvpC/7ovaV+pkfV/9jZN3Qdb7/8x948svv1z/X3eR//z+x9/79vpV0vY4mesHUg8fInwwtxcMU+bULUnS54bv1VyA8/3KMoTvXi62c0Oe9/XiPPjORdJog2AlaI8LewKaXjBH+tT3fC8P7aQt0ukf7xlTAolesECZqTFJQzjWOM7qMb5Pvfo5XnM+fm7a+LuNz3tO3rx5cyqob33nBz9ZvxrUL8fT6RZP5D+FD9JPeWxnKV+qY8E3X8z5kp6Li4uhL3JJkqRPVW6wVASDZxWAts67/bPGtStB91ld4w/Vb1C/Wv3wu99cv87hk3pJkiRJ0ikE1gTdZ/XgaKx+g/qFT+oN6iVJkiRJOn/bBPVH9w/lSZIkSZKk9wzqJUmSJEk6Ugb1kiRJkiQdKYN6SZIkSZKOlEG9JEmSJElHyqBekiRJkqQj5X9pJ0mSJEk6c8+ePVv/3/OXLl3abPnQq1evVk+fPt2snUZZ/l/7ivygTupnqa5du7ZeeijL/5U/lI5eHv4f/bYfMdZ//u/9sbFjq/+n/s2bN6eC+tZ3fvCT9et5BPVXr15dvXjxYrO2Wt27d2919+7dzdp7t27dWr8+evRo/do6OTnZvFutJz752F7vZ9AWnj9/vn7FVN1t/2p9lGVnx5UrV07V3ar9aesFfRg6cCra5KC7c+fOZst7bOPgSh3k46DixIhenl5dQTrlqSfr5A/qSf3UmxMO9YRsy/VOVtLJl748ePBg/YrazpheGbbNLS9JkiRpnly/z1GD3Rqkt4gpEntE3UZAX4Nv+kB9vaCd7SzEASxDwXatv8YTQdkauwz1f2xcVYL6H373m+vXOb4g6q8L2vXzRCBMsMtCUF8PDALfly9fdg8WthEo1/JMdi8vAThpNegeq5s06n748OFXdbPkxkAQiCdtLKDvqf1moY/379/fpI7jQOHg2wfqygFY1SC8Yh4JvDnw2z6wjTSWeuCjpvX6z34gLe+Tn9fePmoNlWF9TnlJkiRJ8xHscq2dhWv8vCfIbq//t1ED7iXX9AT/xDiUpS+8b5/wg/qTzvs6hixn9XBwKD7vLUf1N/UE9QTa8eTJk3VwyNIGvKwTGPOEPJK3Srn2FwBjdd++ffuDurE0cF+CwJ7xt0/wezjYcldqV9TVO8Dbu2CtbU9MpP9BWzlZsz3188qJNDbWqTKMozdGSZIkSdvjGpun2yxce+c92wmS876VtHapMULinaQlXqj5e4F+tiU/hm4MUD/bcvOgtpel9il6/WfbWTnqfyiPIPfGjRvrwLvugLxvg+4W+Vh6P68fqjtB9VTdZ4G+cFODA2foAAoOun0dOG3QPNZucHImiF6qLUvbWaft9m4YaWN9mirD+zo+SZIkSftBDMMTbR6k8Z6F92zjfYtr8/okvC41P9f32UZ9ud4fys+1PzEUcVK92ZCFbdTD+8QJ1EH+BP29vrVjGOs/aWfhaIJ6gukE2iDQJrBmYSJJr8H35cuXN++G8ZN2fkLfGquboLqtm5/iZ6moP9vn/nR+jhzAbaBakcZBuY/Annpq0JsDvod5qidFVe9YkV7VNA72ofp7AfqUqTKk5cSVJEmStH/EE7kmT1DdPljL9iyks9RtbXwzFptUtJ0YqgbadUlAXmMH2q/BeO1LFmKJtp9jy75jj4MP6vk7dYJiXutP3gke610R3tegfg7q6/2jdEvrzt+9t+rf1Lc/7/8YOLg5YHY9aHJQpy6WeqBXzFVOivaA5Q5X0toTL2lsbwP+inaXjmdOmaHxSJIkSdpegt3EV1x3JyboPblOWp6Oo8YRVQJ86q/vs/RiOLbVPHVp87NOHEFaYpQ8gGQ89WFkbgiw9MaF5Nl37HHwQT2BdwLjBPR5cs6T+zwJZ52FtAThbbDeor42sN9X3fuWfuVkmIsToL2bFUuCYw5ADmROyjYgH0KZpQE4dXOQjwX2bZ3t3bOebcpIkiRJ2g3X3MQkbQA9dr0/F9f0LMRIuQmQwJqlFzvVmwrtUoNt4ofEEKQxDtJpj74Tm+V9i7xt3Sxn5Sj/pj7/iF2C/Rr0kwaC8vZfo+cn8Ex+RRmeqCfvnLqT/2MF9rRDe72//Z/CgcdB1R5sbGuDfdbZ3sN2DuolwcBaRfkAAC14SURBVDB564kxFyck/W0DcaRt6q6vY+1Mlem1I0mSJGl/6tP2pQ8qh6QuYryhB5nbIlagfmKJ3IRIbNV7Ul8l/qiIObaJjeY4eRewnvrdePuf27f/+f3HRCDL37znCX3w9Lz+FD/Ymfwde4aU9SDQz8/gqaMOveadU3cC7arWT17KVM1Un1L707thUMtyQFA3B1J7YLCdA6s9kNKXegJxYNZgn3L1oGzrSt7kIThmyV0x8tcAme0py0mWYDpyt6rXZ/JShjz1BELGH6kHbKfddl7GyrTjkiRJkrQ7rrO5hudavA26c/3PdX+uw8mfa3MkzqhlKcP2en3PtX3ih54aN1GmxiwVeRIvpf60R915TWxS45Q2/mjVvGPa+LuNz3sOOqiXgrtjNRDv4cTjZMnJP9ecuiVJkiQtw7X5UMBLWq7dE+iyXh8gVsmT4HpbY+WH0ogzWOhDG9TTz97DVuTGAEivD1iHbBXU//SnPx1+fPzOn3j4s/WrQf1+8ES+xc/q5+zgz1lOiLHgm5Nqzt2vioB+6CSUJEmSpI8pQf1fvP37169z+KRekiRJkqQDsM2T+qP8h/IkSZIkSZJBvSRJkiRJR8ugXpIkSZKkI2VQL0mSJEnSkTKolyRJkiTpSBnUS5IkSZJ0pAzqJUmSJEk6Ugb1kiRJkvbu6dOnq2fPnq0ePHjwwfLq1atNrvfIF/U9dYD8r1+/Xr8H66nj8ePH3TaGUE9t42OpY8i4hpzl3C3ND+Y46vtD8bnP18mbN2/ebt53fecHP1m/5j+//9hOTk4271arR48erW7evLlZe+/WrVvrV9Kqq1evrh4+fLi6cuXKZst75K8TS/rz5883a9PtVbTx4sWLzdpqde/evdXdu3fX79u0th2QTr6KPLXPqeft2/5uIv3y5cunxj9VbzsHwViphzmo7e3ST7bdvn37g7FXKRvpB9t7+zCG9n209Q7NYcW8cFLeuXNns+U9tnHi5ngg3/Xr11cXL15cr6OXp1dXkE556sl6/UCgntRPvfUDie1tO1HTgnTypS98wEVtZ0yvDNvmlpckSZ8Prlu4PuD12rVrm63v5Zrm0qVL61e01xkpxzUQ10oEU7WeXh09uQaaY+iaZpvrpqhlUa+hqnq9eNZzt0v+IUvnpaL9XENvUwflP6X5+tb3f7R+/eF3v7l+neVdoHMKQX71R/7MX1kv54HuvQvYNmtv374b/Obde+8CxbfvAr51vhbbSW9RR62zmmqv1bZRy5NW63oX8J+qjzTyt31s+0A9Q33O+LepN9jeqtuW9rOds/RxDOlt/RjajtTb6z9pvT5P9QOM6Yc//OF6qX7rt37r1Hh5z7aql4d6fu3Xfm2z5WvJW9updVKm1jVUD8hX0/76X//rH/T/z/25P7d5dzo/rzVtyFiZOeUlSdLnJdciXJe0uJbIdQXq+0g56uF9ve7i2qMuS1FXr18921w3DaF8xtFeq1VnOXdL8vPKeNs6kn8fqJ92mefaxhKf2ny18Xcbn/cc7M/vecL6Lghb38WIdzt78+69J0+erNNZ7t+/v9m6nTntTeFJ/cuXLzdrp924ceNUGk+Z3wWdHzyFZlueQMfQ+NiWXwbEknrnWNpPxjj3buguxvZ9fhnQ6/Mc3Mnjrm7u7O2Curh712rv6LWm7jqPSf+DtriLiGxP/bzmzuaQqTKMozdGSZL0eeIaoV6L8OSyLjzhrMifNK4jWefagvW8r2V4qp3rKK4FU7Zdcq2yrW2um3ZF3Wc5d0vyM9b8goC8KZf8Wdo+LUH9uU7dBn3+nOZr0Ca4/8qhPal/F4ht1j6UdO7svAvgNlvfY71X9t2Jv87fM9Veq22Dp/EsIK22Q7tJ6/W3qvWmnrbfpGcbr1hSb3QOga+2bdNP1mudrI/VgV6/MLQdQ/t+Tnu5i1bvoAX1cUcueYJ10oL3bfleHuriLl69y0e+bMudRdQ6uaNX7+q1dVRpJ3LXMGqf2jbRttWaKtOOW5Ikfd64LmivHdDbxnUE1xr1WoT1em2DtizrlKnbe+XANq7rxpbetRDl2nbrNdAczEVtJ9d6dVu9jjrLudt2rsmffmPJ+KlrznUieWobc31q84VP6kk93gVo67+L7j1h5u7Hu+BtvbwLatdP2tk2B/Xxd+Ms9SnvWHtTaJ8n9TyRj9oOfaxP1fk7+CGktU/8KVvH13tKj6X1TllaH/uDeVg6h8x7b5/0jO17+tP2OfWyIHfReB1CWv5WZlfUw5284G7d0FN6xpE7em0e+pI7fKRXNY27yEP1cydzbNw9U2VIq3dIJUnS54trgnodwnq9DmpxHZEn4VW9tmGp1xrUR7ksbRvtdRL1c+03tvSunaiX+oe0T2Cz1Pa5Vk0b9Yl07RN5cNZztzR/lWtUlt64h/rJmDO+pabm91Ocr20ddFBP0Pb27dv1axvsMVH1AOF9Arspjx49WtfLUgPjsfaGJBjllZsClI20Q5Db1jUWXPcC09RLAMtCntpWLK13yjb1Maek0c+5mLvePulZuu9T71J8SHCS9k7UJfJlkLpYsq3FWPIBzwlf2+ZDMWntF0/S2F6/SFq0u3Q8c8oMjUeSJH1euCaogVC9huB9DWzqthr4oF73sNRrDQKirLfXRCBtLGgiKJtzPUQ9Y/lou/YxS9unjI12x5z13C3NH0PjrEsv+N3V1Pw6X187eRfsnIp2vvzyy9WFCxc2a1//63vn9a/fVwTO/Gvoed+TwDp528CXJ8gETjUoHDJUR4ylk0ZwmnZol3wJWLkR0N4EAIEwZbNbaj0EriyUIZiu27iBgLn1BvnHtm3TT5DO37YzP3P+9fvePPa2p92e9HOoz72xtphLTsScaJzMfABz8vKa8bX5kLy9PHyx5AsoH0DZRt3Jz/t8MFAX+Vjq+1bbF/JSB9tAevpEe3wwZR1tu605ZWobkiRJXI9wrcA1BNcoXDNkWw/5cu3CtQd5K8pzrcH1FktQN/nzmm1tW6xTP3l4rdcyte1q6hqINJYWdaU+AsGs1z4lQAy212s51ql7n3MXS/OTnrntqX3fVu96dM784lObrzb+buPznoP+h/KGfsKdfySNAK0uBHGkbWOsvX0g6OaJPe1kneA060jAmgC9xZh5Aj4WQG1T75ht62Nf0Mc5v3ZYYs6+7/V5W5yknHTtBwrb2hOa9aETlO18AXGCj53EFXnrB9tc+VCrX3iRtvNBk9exdqbK9NqRJElCrn+W4nqmPtnMdUeuzaqpaxHS22sdrifZxjUTr70+Tl0DEejVPmapAWfW2/qpu5Zpx4R9z92QOflrel0oe1bmzG/1Oc/XwQb1CQp5upqFJ8FsJzjOE++KbaQFgV3K8j4I3mu9GGtvXxJsgrZ4mtz2kW2kDSFtKn2beofsUh/zN/bz/Tnadufs+16fWZLOCc/d0akvgOCDo83LNpb8FIeFD+OhDxmQ3vvArrhhk/o46euHBDcNantjKEtdoM36AUda6uK17kfK9OZlrAx1T41LkiR9nnItw/XDHHPzBfl711/1+ofXoWs0rnvaa6Vq7BpoLtqgLHUt8THmbq5cf7bLVB3cNGkfjlW59mWO8n5oX0z5FOZrW0f183tJ2+FDhLuDY/gw5UN36RfOnLolSdLnJcFLrisI1NqAhrQ8GEjwxzVFgjrSsp2ArX2ogJTnegTkqQ9FQPkE9ckXlKcf1Ee5tuyuEqy210rMxdA111nP3dL8Y31t90OLssz9vue1+pTmC9v8/P6EfyJ/877rOz/4yfr1cw7qecrb4ql73Xma5jyen6EvlCofSmMfMi2+GNl/Z/lBLUmSpOPE9afX+sskqP/hd7+5fp3DJ/WSJEmSJB2AT+ofypMkSZIkSeMM6iVJkiRJOlIG9ZIkSZIkHSmDekmSJEmSjpRBvSRJkiRJR8qgXpIkSZKkI2VQL0mSJEnSkfL/qZckSZIkHZ3Hjx+vXr9+vX5/7dq19cK2mzdvrrfx/vr166uLFy+u1/Hq1avV06dPN2unkS9lt/XgwYPNuz7qr/1pbfP/1J+8efPmVFDf+s4PfrJ+Pc+g/urVq6sXL15s1lareh/i5OTkq/U2X92ZLdIePXq0Weu7devW+rXNl3aa+yFfIf3y5cunypGf7dXz589XV65c2ay9L/fw4cNT2yh3+/btdV4MtV3z0e9txpyT4s6dO5st77GNA7/OZ3ty9PL06grSKU89Wc8JCepJ/dTLyRf1ZGvL1bQgnXz0Je/Ry1tPwtqHIbU+ZLzUM6e8JEmSpO0QJySeePbs2TpmqLFB1JgkccWlS5fWr1WtD9QZ5E+8Qx1c5/eu9SnDzYUe0qhnLEZIUP/D735z/TrHF0T9dUG7fl4IVAnaCXQJYrO0wXFFUJt8BLAsWUdNG0PbL1++PBWwVezMXhrlWuSjz7VvLGwbqn8MbeeGQ8+2Y0YO1n2grhqMR+9EA+PihONEavvANtJYyFfVtF7/mWPSwIk0lJd8qYvXOfuGPLXfKcP6nPKSJEmStsf1feILgmWu8bkuZyG4Zn0b1EndWbi2ZxvxDQvrPMhjqfENebO9XUibayg+7y0H/Tf1efJcn1wjT63P0pMnT9bBGsv9+/c3W782tJ1td+/e3ay9RwA+NI6x4HwIbY/dcNgFB30O1l1RV+/AZdvQ3Stse+Ih/Q/a4oSO+r7eIUuZtM0r6WPzQFryIWVTF2NccuJKkiRJ2k2uyVHjgooHe72gu+bnGp8HdVzTs+RGAduTVrcFeUnrLWMx0C4ONqjPE+82EP5Y7t27t7px48Y6gB4KnvmJfU0bekrPGHrjyPZeuSn8emGbGwIcqO0B2+LA3NfTeg7wGhiPtRsEwvVkXKItm8C7p6bRr3oygrQ5/a2oI2UoP3ZTQJIkSdJ+5Rqca/JeEE16L+BmIfYLyhM3pY7Uy5JtbQxBfuKR3CRoF9KID5fGGFMONqjnSTRBc8VP8bMM4SftydN7kj5HDcTZsQTdvcCeJ/J1e+8pPdpxVKQx1qXoGzcelgb2HHQcsG0AW5HGgbqPwJ56amDLgdw7ucBc5mBv89S7aaRXNY2Tbah+0JealwXtCTkH+fOBAV7rWEnf9wkrSZIkqY9rb67zuSZPAN3GIokFko+lbksMxLU8cVMkXqhxUrYF+UnPTYI8yc86acSXtcw+HNV/aVf/TnxI/bv1XoA9Bzu/3qUZelpPYA2CfhaC82yrxoL23s2LuRgf5bd50j+FA46DdNegNAds6moP/Ip5zgHPCVXbbk+GKmlsbwP+Vr0zxwmc/Uqflo6VMrSdmxGc3NRfxzc0VkmSJEn71cYJaLclFuA6PmqsETXYzw0CXnOTYCh2qDcOiA/qA8ipWGVbBxvUJ5A+i4B1TJ7K8xQ8T/xZH+oL/eQJPX+D37uJQDrlemWzvd4IWPrUnp/h828PnAUO7tyFai0JgAl0cwL0TrQeyiwNsqmbIHruycL4ahtte/Q3T/KH1JsE7GvKGMhLkiRJZ68G5lEDdK7Pt8V1PuWJMaiLV9bZzvs80GslPwt9qf0h7Swc9JN6/rX2/BduH0v+gbw87c9C4E1ai7wE4gT9QwdNbxy8Z1v9F+kp3/6cnoB9qF7QL9K3/VODMQSnHKhtkMy2NtgfOqjBdgLmOUFybBscc9LQ394NAbbVsfA+baRftFtfl/SBOagnaq8PkiRJkvaH63au63MdzjV5nowTo+2CelmoC4kNeOVav40V0pe0T19qf0hLnLFPJ+8C1lO/Z2//c/v2P7//2BL8VjxFz1NxnqRnCORr/5/3quYdQp7ev1TPAUHATXnaof0E2wmo06c82a8Be28cvXaoi/FFHSvatiN1U2fVjpmDLzcg2oOQ7ZwMbeDNdtQ2c4AH5WpA29aVvMnDwcySu2vkr0Ew21OWE6E9+LnThV6fyUsZ8tAu46z9SF/YXseUuYm0AbbTp96cpd/tHLRjliRJkrQ/ud7mWp8YINfqufbnOp3tuR6vsQASixA7BGWzHdRBetogjRiAWIFAvRdXRWKY9GeONv5u4/Oegw/qpV1xstUAfSlOZE7+enLPsWu7kiRJkvraa3TeE1zXAB31wRt58j4BdyTwpjx1Uj/Be30QSBnqqA8G8/Av7+cYuxGwVVD/5s2b0UfX3/nBT9avn2JQz1PsFk/X607S8csJuW2AnQ+IJXfYpu7aSZIkSVIrQf0Pv/vN9escPqmXJEmSJOkAbPOk/qj+SztJkiRJkvQ1g3pJkiRJko6UQb0kSZIkSUfKoF6SJEmSpCNlUC9JkiRJ0pEyqJckSZIk6UgZ1EuSJEmSdKT8f+olSZIkSefu1atXq6dPn27Whl2/fn116dKl9Xvys171tsWzZ8/WZS9evLjZ8rXHjx+vX2/evLl+xevXr9f9unbt2mbLNNonf9qg3lrnmG3+n/qTn/3sZ6eC+tYf//M/Xb+eV1B/cnKyebdaPXr06KvJYHvuR1y9enX14sWLr9aDbbdv3149f/58s+W95I9ajrSHDx+urly5stny3q1bt77aySC9rbdq27h3797q7t276/dtWltXHVvUeWAOmAss7VeMzUFvbiPzX9uM2q8eynBS3LlzZ7PlPbZx4Ne6OQnridbL06srSKd8TubkD+pJ/dTLiRpsb9uJmhakk4++5D16eR88eLB5d7oPQ2p9yHipZ055SZIk6VjkmjwBO8YCdCQ9r1w/E7jXbVUN6nnPEgTibfBOfTWor9fzaK/5a/tI/eSr4xqSoP4v/ck/tH6d44tf/dVfXdXlG9/4xqn180RwSZBIgMlSg5sWE0mAO4bglDoJ2lMnC4HrHLUvcwJn8iQ/QX3tf61rrO+Uoc+1LvIP1TXVr23moLZNW7U91LQpHMicXPtAXTUYD06kHuaNoDgneMU20ljqSYma1us/+4I0cNIO5SVf6uK17sMh5Kn9ThnW55SXJEmSjhHBMwvX+3nPUoNwrvsJlhN4J6BOAF7jBdJSnuvoXKfn2p2lDejJT17K8J46yFPLtA/Zavtpm/X0b66h+Ly3HOzf1BN88tS5BlhjQSP5Xr58ORro5Kl9+xR+KhDeB4J6+tdz48aNwbT79+9/0GfG2gaec53nHIATKyfdrqirntRRT6Qeym0r/Q/aItiO+r6e4CmTtnklfWweSEs+pGzqYoy98UuSJEnHrg2eswTXwQm4CdATONfrZ9Jyvcw2ypOPWKpetw8hP3nTl3p930Nbub7nlXXKgvbo59j1/7YONqgn6CSwrz/9nsLT56En3qmnDWYPAYF7L0jPDYp99fljzAEBZ+5iDckBvQ9tYDzWbnByJUBeqi2bD46emka/2g8B0ub0t6KOlKH8WXwoSJIkSeeN627iinYJguUE6CxcI1OGOCN5iTtY2mtm1hOP1LqzbHONTfss9IlX6uB96qrruZ7fl4P+1+95eszPwqd+Vh8EqzwR7+XnSfjly5c3a+/xM/Qsc1Bv8hOIz0UwTb94Ih+1Lg7C/L19q+1zz9x+bTsH7IM59SN3wMbuYpHGAb2PwL6eKKh3w1rcJOEk7eWpJz/pVU0jkB6qH/Sl5h0L6qeQv570+XAI0vf9gSBJkiQdAq65iSvaparX2Ly2ednGUq/JudbnNU/qk7c+kU/+oAzX9/VavEU7qbO+b7Gd9H066KCeIJ2/1eZ1TkAJgmOC1zlP+Ovfhc9R/5Z8KAivEgzz2v7kPXUR7C+5QdCztF9Vyo2h79vWP4QThpNp16A0J0TqYhk6SThRc9JyUta2ObmS1gbtSWN7G/C3+ABIPZz0+bUFfVo61nwY5GYENxeov45vaKySJEnSMUsg3S49XHdzXcxrmz/X41yLcz3NNX2u96euz1Oe/Fzft8H+oTiK/6eeQJKAkgmdE6zzM3z+drwioJtbfl9qMDz0k3fGxtPzXmC/7z6fxxyMIWAdelq/JADm5OKk5yRuA/IhlFkaZFM3HxZTgX0wvtpG2x79nfpgID03Cdh/+cCSJEmSPkW51s01cILpvK/X+2wnnuA6O9fV9WEdS+rjlevpJSi/tEzrY1y7H/Q/lDf3Z/ctAmgmvw2UeaLNU/NDCWqDfvHEvtcvttPninERnG/jkOaAA5yTrw2Sc3JWeUrdw3ZO5DlBcmwbHPMhQX97NwTYVsfC+7SRftFufV3Sh9xZjF4fJEmSpGPF9W2uj7mWzjUzSOPJecU1NsvQ9fl52zbmWOqg/6E8AvP8LTcLT7WHnni3yNv+i/LUl7/Tr/USOFc1vQbU9W/XWfYpwXaLcZDWtlvvGC3p19w52FZOtrknFUFqm5dtLPnJDAsnaw1oWzmhx3AjJPURnNcTjIC5tjeGsrmpQpttgJ462F73E+XSDq81jfp6c1b7TP11Dqh/asySJEnSseB6OPEE6rUu18I8OSct1828cl3Ndl6znuvnmrfFjYCx+GII5ebU/zGdvOW34cWXX365unDhwmbt6//8/sff+/b6VdJpnMx8kGyLDwI+HAj6l9i1XUmSJOlQcE3MUgN5AnQeZOWhX8V2rqHrg7I8bGvryHV26qNMe/1N22kreu23NwNq/SCd9nk4V6/Ve33raePvNj7vOXnz5s3ov5L2nR/8ZP1qUN/XezLOk/V6cJ2HQ+3Xp4gPgPakXYITnzuPUyd4RUDPvqy/NpAkSZJ03BLU//C731y/zuGTekmSJEmSDsA2T+qP4l+/lyRJkiRJHzKolyRJkiTpSBnUS5IkSZJ0pAzqJUmSJEk6Ugb1kiRJkiQdKYN6SZIkSZKOlEG9JEmSJElHyqBekiRJknR0Hj9+vHrw4MF6efbs2VfbgvevX7/erL336tWrr8q0Sy1bPX369FQ9Q/lA/SzVWP59OHnz5s3bzfuu7/zgJ+vX/Of35+Hq1aurFy9ebNZWq7dvv+7yycnJV+ttvps3b65fe5NI2qNHjzZrp7X13Lt3b3X37t31+zbtypUrq+fPn2/WTvcn2Ba13Vu3bp3qW1tXD/k5oO7cubPZ8h7bONjqmK9fv766ePHieh29PL26gnTKU0/W68FMPamfeuvBy/a2nahpQTr56Eveo5eXEy5qH4bU+pDxUs+c8pIkSZIODzFIYhWCeuKRGndEjXcSs1y6dGn9WtX6gvqou7YDYoheHW39NXbBtWvX1suQb33/R+vXH373m+vXOb64cOHCqi5o188LwTMB8cOHD9eBchYC6yEExclH8MySddS0MbUegvoaFNY6CQoJznsoQ/9rXeQfqmsqoA8OEA64faCu9k4SeicD6D8nBQd12we2kcZCvqqm9frPnJAGTpShvORLXbzWuRxCntrvlGF9TnlJkiRJh4nYIbFLAm2u+VkInlnfBfUnCE/cxHrvBgKxBbELC+UI6OlTYpuhGwE9Q/F5bznon9/fvn17HejyBLuaG/zuC0H9y5cvN2un3bhxYzDt/v37H/Sf4LINeJfiQOAA6gXjS1FX7jZV9eDt2eXkSP+Dtjjpor6vT9FTJm3zSvrYPJCWfEjZ1MUYe+OXJEmSdHxyvY826A6CbgLudmnzEyck1uC1xkjELNRTYxHiPNJzQyEPFVM/72t8sy8HG9TnJ+5tQH9oCNx7QXqeAG/Tfw6m3kFV5SDahzYwHms3OKDrCbNEWzaBd09No1/tSUDanP5W1JEylK9jlyRJknS8cn3P9X7vISXpeXLeLjWuo3zq4JU6eZ/Yoa4ntgCxToJ9Yjrep/7cTKj59+Fgg3qefl++fHmz9h4/Zc8yhJ/mJw8B9664ucCTep7IBz+3Txvs+Py9favtf0+tK/0l6GSnj93FIY2DaB+BfT04Ue9AtbhZwYHYy5ODNOlVTeNEGqofOQGSlwUc/GNz0kP+eqLlhAzS931SSZIkSfr4uK4nhuB6n3iE2KWNcxJnJB9L3Zb4ijiBB6nt+1Z9+p6ybKPe9kYB76fivG0c1b9+n789H1P/fn0o2J4jNwd4bX9Cn7+DJ9jf9cZB/Zv6pf0lMObA3TUozUGVuliGDrQciCwc9LVtDt6ktUF70tjeBvyteveMkyG/eqBPS8dKGdrOzQhONOqv4xsaqyRJkqTj0Xtw2G5LnEGMEDWO2QWxSurltb2JwDIVC23jYIN6gkcCsfovzX9M9ebA0E/oCcJ5Gt8L7D9W/zlYckeotSQAJtDlACOI7p0MPZRZGmRTN0H03IOZ8dU22vbob57kD6k3CdgvlDGQlyRJko5bAuiKbfXaf9/G4ohee2w7y/7goJ/U8xS7/S/kDg195Il9r49sb/+lfm4A5MnzPnBQJSCv2NYG+3lK3cN2AuY5QXJsGxznrlXvhgDb6lh4nzbSL9qtr0v6wBzUmxa9PkiSJEk6DsQExAy5xud6P0/F9xl3Ydv456wddFDPnQyemNe/k2chWD4kufnQ4kk+abXvqHdo6t/UJ51Ak4NwbsDJAdzmZRtLDmgWguIa0LZInwro8zN2FoLzelDXE4hlDGVzktFmG6CnDrbX+aJc2uG1plFfb85qn6m/zgH1T41ZkiRJ0uEhmE+MkweDU0/qExcQS0SNY/atxiKJf/bt5C2/Ly++/PLL9f91F/nP73/8vW+vX6WzwEHOibctgnlOZE7iJXZtV5IkSdLH117/854HeDVYRx52gjx5n4eKkQd9lK8xBWVIIyCvcUPKtw8I6/aUzYNL+kx6fcjYauPvNj7vOXnz5s3ovzz3nR/8ZP36KQb1eTJe8WS9d0dHZ4sDvD1RlshJ3J5UYwjo2dc5ySRJkiTpPCWo/+F3v7l+ncMn9ZIkSZIkHYBtntQf1X9pJ0mSJEmSvmZQL0mSJEnSkTKolyRJkiTpSBnUS5IkSZJ0pAzqJUmSJEk6Ugb1kiRJkiQdKYN6SZIkSZKOlEG9JEmSJElH6gv+M/u6oF0/L1evXl2dnJx8tdy/f3+T8mEa6xXbWjX/rVu3NltX6/c1ra2r1badutj+4sWL9fse8tV2W229czx+/Hj14MGDzdrXXr9+vU4L3rOt6uXp1RWkP336dLP2df4stX7y1bReO720oC7SouZvxzGkV2ZJeUmSJEk6D0PxeW/54sKFC6u6oF0/T8+fP1+9fft2vdy7d+9UAPjo0aOv0m7evDkYMFOGILnWRf6husg3pdZF2SkE+y9fvuwGsKTRv4cPH35VJ8vUzYW4dOnSqWB7F9T16tWrzdrXhgJh5vHOnTur69evf9AHtpHGQr6qpvX6zzyRlvfJz2tvDltDZVifU16SJEmSzstQfN5bjurn9wT1BMY9N27cGEzjCT9B+JUrVzZb3gejbaB5lp48efJVm/UXB7h9+/YH/cOcmwsgKCbo7gXjS1HXs2fPNmtfY9u1a9c2ax+i3LbS/6AtAnFke+rn9eLFi6NjnSrDOHpjlCRJkqRj88n8TT2Bci9Iz1PZNmD+2LghwY0H+lifFOfn+mP9I0id+tk4QfC+nta3QfNYu0GQnCB6qbYsbWedtulPRdpYn6bK8H4fN0AkSZIk6bwdTVBP8JvAOOrfwhMs3717d5Ny2uXLlzfvhtW62ifpPfXv36fyE8QTtLPQT8aSwJ5fF7T9S70sIEDlZ+NtoFqRxhPofQT21FOD3rGn9IyDGw69PPQlf9PePhmvaQTZQ/X3AvQpU2VIG7spIEmSJEnH4uCD+gTPvLY/Uc/fwRPszwnEx9S/qR+6OVDVv6mfyk/gW39F0D6tb6XepQiMCVZ3DVgTEKculqEgmbFww4GFAL22nb9pZ2mD9qSxvQ34q20C8DllhsYjSZIkScfk4IP6GjwP/USdoJqn3b3APgF0fub+seWpPDce8vSd9fRp3/0b+xn+kuCYp+cE2zyxH3qK3pr6WXwPdRNgjwX2bZ315/lDtikjSZIkScfmk/mbep60Ezj3gmO2t/+SPDcACKbPWv6BvNyYqDcoSAN9p3/7COwJkBOQV2xrg33WhwJdthMYLwmGybvNE3BuRNDf3g2BtE3d9XWsnakyS288SJIkSdKh+mSCeiQ4bvEkn7Q8KWcBwXbUv6lP+jby5wIsvOeGQu/n+WwjDfSDXyTUsixJJwhtf9o+Jj/Dr9jGkr9jn/pbdpA+FdBzYyT1EZzXYLv+3TzLGMrmJgttJhBHfn1AHbzW/UaZ3ryMlaHuqXFJkiRJ0jE4ectj44L/vJ7/6y6+9f0frV9//L1vr1+lj4FgnL+5H0MwzxN+Avgl5tQtSZIkSR9bG3+38XnPyU9/+tPRf5HtTzz82fr1cwzqeVre4ol/feqrs0HAzlP4seCbgD5/bjAXAT37b5s/E5AkSZKks5Sg/i/e/v3r1zl8Ui9JkiRJ0gHY5kn9J/U39ZIkSZIkfU4M6iVJkiRJOlIG9ZIkSZIkHSmDekmSJEmSjpRBvSRJkiRJR8qgXpIkSZKkI2VQL0mSJEnSkTKolyRJkiTpSH3Bf2ZfF7Tr5+nk5OSr5fHjx5utq9WtW7dOpV29erW7PQvbx9JAHS9evFi/r4baAu/ZNoT01I9t6qJPyTc1hp7Um+X+/fublA/Tan/AtlbNP3dsQ9inDx482Kx97fXr16f2N+/ZVvXy9OoK0p8+fbpZ+zp/llo/+Wpar51eWlAXafX9UN6ksbRj7Kn1scTc8pIkSZIO21B83lu+uHDhwqouaNfPC4Hho0ePVm/fvl0vbUBU054/f/7BNuQ928fSpvTaips3b3aDtd4NAkzVNRagbzsG2knee/funepvrXOsfcqwT2pd7djHxjbk0qVLp4LtXVDXq1evNmtfGwp26f+dO3dW169f/6APbCONhXxVTev1nzkhDc+ePRvMS77UxWudyyHkqf1OGdbnlJckSZJ02Ibi895ysD+/JyC+cuXKqWBqKnA9L/SxPv0Ott29e3ezNg91vXz58kyDM4J62ui5cePGYBrjIVBnvwT9rftoGwS6BN29YHwp6iKIbrHt2rVrm7UPUW5b6X/QFsF21PcXL17cvPv6RkPa5pX0sXkgLfmQsqmLMfbGL0mSJOnTdLBBPYEjgf3Q0+5Dc/ny5VOB+C79fvjw4ejT+rNE4N4L0jO2GtDPRcA59dNwAt99Pa1vA+OxdoNAOAHyUm3ZBN49NY1+1SAfpM3pb0UdKUP5sZsCkiRJkj4tB/0P5fFUmL/LHgpw699w956U79NUWzyRr0H92FP6qboInHmafhaBPTcbqJsn8lH7Q0A/1G9uXEzpjY2gk5+GtwFsRRpPmfcR2FNPDWzHntKzz7jh0MtDX/J36+3T75pGID1UP+hLzTsW1E8hP/UliOe1jpX0pTcFJEmSJB2vgw7qCW7522xeewFw/fvtpT9zX2qqrTzBzq8L+An70FPtOf1mO3Xs65cK+QfxeG1/Qp/+EOz3bjIsscs+ITAmIN01KE2gnLpYhoJnbmJww4GFoLu2za8HktYG7UljexvwtwjiUw8BeG7+bBOAU4a2czOCmwvUX8c3NFZJkiRJn56j+C/tCA4JEglk9hXkngUCRILiJ0+eLA5oe/gZ/u3btzdru6n/uN3QzQb6zNP4XmDP2D7G/I/9DH9JAEygS7BNED32FL2izNIgm7oJoqcC+2B8tY22PfqbJ/lD6k0C9gtlDOQlSZKkz9NB/0N5Z/Hz87NEgJV/5I73uyL4zo2Cj4Un7Tyx7wXvbG//mzr6lifP+0BwmoC8Ylsb7OcpdQ/bCZjnBMmxbXBMoE5/ezcE2FbHwvu0kX7Rbn1d0gfmoN606PVBkiRJ0qfroP+hPALa/H02C0+S61Pm+vfbLPuQn6mz1AB2blv0eSqgX9Jvxjz0r9GfFQL7NngHfSGt7Xsdb29sBJrtT9vHEKS2ednGkr9NZyEorgFti/SpgD4/Y2chOK8BNQFzbW9MfhIP2mwD9NTB9jpf+WUCabzWNOrrzVntM/XXOaD+qTFLkiRJ+nScvOX32AX/eT3/11186/s/Wr/++HvfXr9KmkbAzc/jt0Uwz1N9gv4ldm1XkiRJ0vlp4+82Pu/5gkx1Qbuu41CfkGfZ50/jNR9P3Amwt7XNE3fam/qViCRJkqTDNxSf9xaf1EuSJEmSdAC2elK/eZUkSZIkSUfGoF6SJEmSpCNlUC9JkiRJ0pEyqJckSZIk6UgZ1EuSJEmSdKQM6iVJkiRJOlIG9ZIkSZIkHSmDekmSJEmSjtQX/Gf2dUG7LkmSJEmSPo6h+Ly3fHHhwoVVXdCuS5IkSZKkj2MoPu8t/vxekiRJkqQjZVAvSZIkSdKRMqiXJEmSJOlIGdRLkiRJknSkDOolSZIkSTpSBvWSJEmSJB0pg3pJkiRJko6UQb0kSZIkSUfqiy+//HJVF7TrkiRJkiTp4xiKz3vLFxcuXFjVBe26JEmSJEn6OIbi897iz+8lSZIkSTpSBvWSJEmSJB0pg3pJkiRJko6UQb0kSZIkSUdqMqj/pd/2Psv/9w/+0fpVkiRJkiTt1//799/H3L/zt/3C+nWuyaD+933jt69ff/PLv79+lSRJkiRJ+/WbX/699esvX3gfg881GdT/gYu/c/3609/4+fpVkiRJkiTt1//26+9j7sTgc00G9f/aP/d7168/+ht/e/0qSZIkSZL263/YxNz/+j//Pgaf6+RnP/vZ2837rt/8+T9Y/alH/8fqi5PV6r/8U3949U//3mV3DSRJkiRJ0rBXv/n/rP79B89WJ+/i7v/i1j+7+uXf9YublGknb9/ZvF/78ssvVxcuXNisvfdn/pu/sfpv/9ffWH37X/zl1Z+9eWWzVZIkSZIk7YKA/D98+Hz1V//3v7P6d//VX1396X/7D71PeKcXn7cmf36P/+CP/sHVP/Hbf2H9E/y/8Nf+1marJEmSJEnaxV/4q39rHdB/43f84rvY+5/ZbJ2v+6T+d//u371Z63v4v/yfq1t/+A9s1iRJ0iE44Td7I5qvfEmSdM7+q3ex9b/3R/6pzVrf1Pf34JN6CvYW/Kd/+W+u/vR//XL16//3312vS5Kkw9D77maRJEmH42fvYun/+MnL1X/23/3aer333c0yx+CT+qEKeArwb/3Z/3H9H+P/tl/4YvXH/qVfXv8L+f/y77+w+gO/55dWv/0XZ/2iX5Ik7Rnf0WPf33MvDiRJ0n79/X/4j1f/17tA/uXPvlz9T3/z76x+9Df+zuof/KN/vPpdv+MXVv/9f/Rv7vT9vVVQ/5tv/t7qP3/609Vffvlbq3/sBYIkSQfhf/5P/tjo9/cf+TN/ZbMmSZLO0xfvvpf/nX/lV1Z3/ugfXP2Tv/t3fPygnjTy/b3V71j/43l/7W/+nfVP8f/2z//+6su/+w83OSVJ0sdkUC9J0mG68Eu/uPrlb/z21a/+nl9a/Rv/wu9bffMP/NLqD/7K+/+PfixwnxPUk+GUN2/eUGKz9qGkkW8O/h/8OebWd175fvrTn27ejTv0cbg/+s4rn/uj77zyuT/6ziuf+6NvLN+c7+/W3HbdH33nlc/90Xde+dwffeeVz/3Rd1753B99Nd8239+VfwAvSZIkSdKROuEOweb9V6b+S7t3ZTbvpv385z9ffeMb39isHa/f+I3fWP3Kr/zKZu14uT8Oi/vjsLg/Dov7Y7l9fn+33B+Hxf1xWNwfh8X9cVjcH9N2+/5erf5/ewK8XBsCWA4AAAAASUVORK5CYII=;" vertex="1" parent="1">
          <mxGeometry x="130" y="120" width="1013" height="834" as="geometry" />
        </mxCell>
      </root>
    </mxGraphModel>
  </diagram>
</mxfile>
